<?xml version="1.0" standalone="no"?>
<!DOCTYPE svg PUBLIC "-//W3C//DTD SVG 20010904//EN"
 "http://www.w3.org/TR/2001/REC-SVG-20010904/DTD/svg10.dtd">
<svg version="1.0" xmlns="http://www.w3.org/2000/svg"
 width="466.000000pt" height="466.000000pt" viewBox="0 0 466.000000 466.000000"
 preserveAspectRatio="xMidYMid meet">
<metadata>
Created by potrace 1.11, written by Peter Selinger 2001-2013
</metadata>
<g transform="translate(0.000000,466.000000) scale(0.100000,-0.100000)"
fill="#000000" stroke="none">
<path d="M2049 4596 c-2 -2 -33 -6 -69 -9 -36 -4 -75 -8 -86 -11 -12 -2 -39
-7 -60 -10 -198 -32 -454 -146 -583 -261 -37 -33 -105 -104 -124 -129 -7 -8
-46 -32 -87 -52 -274 -132 -508 -343 -689 -619 -47 -72 -149 -268 -155 -298
-2 -7 -6 -19 -9 -27 -11 -26 -38 -112 -43 -134 -5 -20 -17 -87 -29 -151 -10
-54 -5 -229 8 -284 12 -50 11 -64 -9 -144 -30 -119 -38 -194 -39 -362 0 -156
7 -226 37 -365 87 -416 316 -775 588 -924 50 -27 77 -50 112 -99 136 -185 364
-367 602 -482 99 -47 235 -101 276 -110 8 -2 35 -8 60 -15 126 -34 250 -48
395 -45 129 3 218 20 317 60 56 23 79 26 213 30 83 2 159 5 170 8 11 3 42 8
68 11 27 4 75 14 108 22 32 8 67 17 76 19 10 2 56 16 103 33 330 114 635 336
798 580 60 90 115 208 127 272 4 23 24 56 56 90 72 79 169 228 228 350 47 99
114 281 125 343 3 15 7 35 10 45 36 120 54 463 31 602 -27 162 -81 305 -160
425 -22 32 -40 66 -42 74 -3 23 -16 104 -19 118 -8 40 -49 170 -56 178 -4 5
-8 16 -8 25 0 44 -192 388 -252 451 -7 8 -31 37 -53 64 -21 28 -75 85 -120
128 -236 231 -499 361 -752 371 -67 3 -87 8 -124 32 -117 74 -365 160 -514
179 -16 2 -48 7 -70 10 -43 7 -351 16 -356 11z"/>
</g>
</svg>
