<?xml version="1.0" encoding="utf-8"?>
<!-- Generator: Adobe Illustrator 23.0.6, SVG Export Plug-In . SVG Version: 6.00 Build 0)  -->
<svg version="1.1" id="Layer_1" xmlns="http://www.w3.org/2000/svg" xmlns:xlink="http://www.w3.org/1999/xlink" x="0px" y="0px"
	 viewBox="0 0 275 71" style="enable-background:new 0 0 275 71;" xml:space="preserve">
<style type="text/css">
	.st0{fill:#0458A0;}
	.st1{fill:#FAA71B;}
	.st2{fill:#F26122;}
	.st3{fill:#EA1D25;}
	.st4{fill:#F69E1E;}
</style>
<g id="g4158" transform="matrix(4.4299631,0,0,4.4299631,-81.165783,-105.04783)">
	<polygon id="polygon9" class="st0" points="34.98,36.12 32.68,36.12 34.12,27.21 36.42,27.21 	"/>
	<path id="path11" class="st0" d="M43.34,27.43c-0.45-0.18-1.18-0.38-2.07-0.38c-2.28,0-3.88,1.21-3.89,2.95
		c-0.02,1.28,1.15,1.99,2.02,2.42c0.89,0.44,1.19,0.72,1.19,1.11c-0.01,0.6-0.72,0.87-1.38,0.87c-0.92,0-1.41-0.14-2.16-0.47
		l-0.3-0.14l-0.32,2c0.54,0.25,1.54,0.46,2.57,0.47c2.42,0,3.99-1.19,4.01-3.04c0.01-1.01-0.61-1.79-1.93-2.43
		c-0.81-0.41-1.3-0.68-1.3-1.1c0.01-0.38,0.42-0.77,1.33-0.77c0.75-0.02,1.3,0.16,1.72,0.34l0.21,0.09L43.34,27.43
		C43.34,27.43,43.34,27.43,43.34,27.43z"/>
	<path id="path13" class="st0" d="M46.4,32.97c0.19-0.51,0.92-2.49,0.92-2.49c-0.01,0.02,0.19-0.52,0.3-0.85l0.16,0.77
		c0,0,0.44,2.13,0.53,2.58C47.96,32.97,46.86,32.97,46.4,32.97L46.4,32.97z M49.25,27.21h-1.78c-0.55,0-0.97,0.16-1.2,0.74
		l-3.42,8.17h2.42c0,0,0.4-1.1,0.48-1.34c0.27,0,2.62,0,2.96,0c0.07,0.31,0.28,1.34,0.28,1.34h2.13L49.25,27.21L49.25,27.21
		L49.25,27.21z"/>
	<path id="path15" class="st0" d="M30.75,27.21l-2.26,6.08l-0.25-1.23c-0.42-1.42-1.73-2.97-3.19-3.74l2.07,7.79h2.44l3.62-8.9
		H30.75L30.75,27.21L30.75,27.21z"/>
	<path id="path17" class="st1" d="M26.4,27.21h-3.71l-0.04,0.18c2.89,0.74,4.81,2.52,5.6,4.67l-0.81-4.1
		C27.31,27.39,26.9,27.23,26.4,27.21L26.4,27.21z"/>
</g>
<g id="layer1" transform="matrix(3.3557321,0,0,3.3557321,-1551.7864,-1849.1059)">
	<g id="g13" transform="matrix(2.5579399,0,0,2.5579399,884.90115,-11.427398)">
		<g id="XMLID_328_" transform="translate(-502.86126,-41.013507)">
			<rect id="rect19" x="361.84" y="262.61" class="st2" width="2.73" height="4.47"/>
			<path id="XMLID_330_" class="st3" d="M362.01,264.84c0-0.91,0.47-1.71,1.19-2.24c-0.53-0.38-1.2-0.61-1.92-0.61
				c-1.72,0-3.12,1.27-3.12,2.84c0,1.57,1.39,2.84,3.12,2.84c0.73,0,1.39-0.23,1.92-0.61C362.48,266.56,362.01,265.75,362.01,264.84
				z"/>
			<path id="path22" class="st4" d="M368.25,264.84c0,1.57-1.39,2.84-3.12,2.84c-0.73,0-1.39-0.23-1.92-0.61
				c0.73-0.52,1.19-1.33,1.19-2.24s-0.47-1.71-1.19-2.24c0.53-0.38,1.2-0.61,1.92-0.61C366.86,262,368.25,263.28,368.25,264.84z"/>
		</g>
	</g>
</g>
</svg>
