<svg xmlns="http://www.w3.org/2000/svg" width="32" height="32" viewBox="0 0 32 32"><path fill="#10dd76" d="M32 16c0 8.837-7.163 16-16 16S0 24.837 0 16 7.163 0 16 0s16 7.163 16 16z"/><path fill="#fff" d="M10.667 12.333V21s.133.667.667.667h1.333l.067 2.733c-.067 1.267 1.267 1.267 1.267 1.267s1.333 0 1.333-1.333v-2.667h1.333v2.667c0 1.333 1.333 1.333 1.333 1.333s1.333 0 1.267-1.267l.067-2.733h1.333c.533 0 .667-.667.667-.667v-8.667H10.667zm12.666 0c-.733 0-1.333.6-1.333 1.333v4.667c0 .733.6 1.333 1.333 1.333s1.333-.6 1.333-1.333v-4.667c0-.733-.6-1.333-1.333-1.333zm-14.666 0c-.733 0-1.333.6-1.333 1.333v4.667c0 .733.6 1.333 1.333 1.333S10 19.066 10 18.333v-4.667c0-.733-.6-1.333-1.333-1.333zm12.666-5.666c0-.2-.133-.333-.333-.333-.133 0-.2.067-.267.133l-1.4 1.4C18.466 7.334 17.333 7 16 7s-2.467.333-3.333.867l-1.4-1.4c-.067-.067-.133-.133-.267-.133-.2 0-.333.133-.333.333 0 .067.067.2.133.267l1.333 1.4c-.933.867-1.467 2-1.467 3.4h10.667a4.58 4.58 0 0 0-1.467-3.4l1.333-1.4a.503.503 0 0 0 .133-.267zm-8 3.666c-.4 0-.667-.267-.667-.667s.267-.667.667-.667.667.267.667.667a.669.669 0 0 1-.667.667zm5.334 0c-.4 0-.667-.267-.667-.667s.267-.667.667-.667.667.267.667.667a.669.669 0 0 1-.667.667z"/></svg>