<svg xmlns="http://www.w3.org/2000/svg" width="32" height="32" viewBox="0 0 32 32"><path fill="#e03131" d="M32 16c0 8.837-7.163 16-16 16S0 24.837 0 16 7.163 0 16 0s16 7.163 16 16z"/><path fill="#4bb64b" d="M21.046 14.646A3.702 3.702 0 0 0 16 16a3.702 3.702 0 0 1-1.354 5.046A3.702 3.702 0 0 1 9.6 19.692L2.511 7.409 2.142 8A16.062 16.062 0 0 0 0 16c0 5.514 2.88 10.88 8 13.858a15.849 15.849 0 0 0 7.311 2.117L22.4 19.692a3.702 3.702 0 0 0-1.354-5.046z"/><path fill="#fcd11c" d="M30.203 8.615H16c-2.043 0-3.692 1.649-3.692 3.692s1.649 3.692 3.692 3.692c1.009-1.772 3.274-2.363 5.046-1.354s2.363 3.274 1.354 5.046l-7.089 12.283c.222 0 .468.025.689.025 5.514 0 10.905-2.855 13.858-8a16.062 16.062 0 0 0 2.142-8c0-2.585-.615-5.12-1.797-7.385z"/><path fill="#fff" d="M23.385 16a7.385 7.385 0 1 1-14.77 0 7.385 7.385 0 0 1 14.77 0z"/><path fill="#0091d1" d="M22.154 16a6.154 6.154 0 1 1-12.307 0 6.154 6.154 0 0 1 12.307 0z"/></svg>