<svg xmlns="http://www.w3.org/2000/svg" width="32" height="32" viewBox="0 0 32 32"><path fill="#249dd8" d="M32 16c0 8.837-7.163 16-16 16S0 24.837 0 16 7.163 0 16 0s16 7.163 16 16z"/><path fill="#d97827" d="M26.585 4.012c.025.148.049.345.074.566a13.2 13.2 0 0 0-4.8-2.437c3.077 2.043 4.234 3.766 4.972 5.317-.837-.837-2.24-1.723-3.2-1.797 1.428 1.058 3.791 4.185 3.569 8.935-.64-1.625-1.526-2.314-1.526-2.314.148 1.551.369 3.668.074 5.686-.098.468-.197.812-.295 1.206-.172-.763-.418-1.182-.418-1.182s-.074.714-.295 1.6a9.896 9.896 0 0 1-.615 1.723c-.369.788-.665 1.378-1.009 1.698-1.723 1.6-6.794 2.043-9.895.32-.566-.32-1.403-1.034-1.846-1.477 1.871.468 3.84.123 4.997-.665s1.846-1.378 2.462-1.231c.615.148 1.034-.468.542-1.034-.468-.542-1.625-1.28-3.2-.886-1.206.295-2.24 1.28-3.914.591-.098-.049-2.338-1.108-2.412-2.782-.025-.369.222-.886.665-1.132 0 0 1.231-.665 1.92.148 0 0 .295-.862-.295-1.575-.025-.074-.074-.172-.098-.246.098-.394 2.511-1.674 2.683-1.797.246-.197.517-.468.665-.788.123-.222.197-.517.172-.935-.025-.32-.197-.492-2.782-.468-.714 0-1.157-.394-1.428-.788-.049-.074-.098-.172-.148-.246a2.46 2.46 0 0 1-.123-.271c0-.025 0-.049.025-.074.197-.64.492-1.255.886-1.797.763-.935 1.748-1.477 1.748-1.477-2.486-.542-4.357 1.28-4.923 1.945-1.403-.32-2.609-.246-3.618.049C3.304 5.068 3.23 3.246 3.23 3.246 1.088 5.388 1.359 8.514 1.507 9.424.522 11.369.005 13.633.005 15.996c0 8.837 7.163 16 16 16s16-7.163 16-16c0-4.775-2.092-9.058-5.415-11.988z"/><path fill="#dc8a27" d="M15.581 9.698v-.197c-.025-.32-.222-.542-2.806-.517-1.058 0-1.551-.911-1.723-1.305-.271 1.009-.32 2.018-.123 3.249.049.222.123.443.222.665 0 .025 0 .049.025.074.049.148.197.369.345.615.025.049.049.074.074.123.049.074.123.172.172.246.172.197.197.418.246.418h.025c.492-.615 2.486-1.526 2.954-1.994.271-.295.32-.369.345-.492a1.13 1.13 0 0 0 .197-.468h-.025c.025-.049.049-.074.049-.074 0-.074.049-.222.025-.345z"/><path d="M15.606 10.215c.123-.295.246-.96-.123-1.083a4.297 4.297 0 0 0-1.108-.123c.172.049.665.148.788.369.246.443.049 1.28-.049 1.526.271-.197.369-.394.492-.689z"/></svg>