<svg xmlns="http://www.w3.org/2000/svg" width="32" height="32" viewBox="0 0 32 32"><path d="M16 0C7.168 0 0 7.168 0 16s7.168 16 16 16 16-7.168 16-16S24.832 0 16 0zm.672 6.816c.576-.832 1.536-1.408 2.88-1.696 0 .032.032.064.032.128s.032.096.032.128v.256c0 .48-.096.992-.32 1.568s-.576 1.12-1.056 1.6c-.416.384-.832.672-1.248.8-.288.096-.672.16-1.216.192.032-1.152.32-2.144.896-2.976zm5.856 15.2c-.992 1.504-1.984 2.272-2.976 2.272-.352 0-.896-.128-1.6-.384-.64-.256-1.216-.384-1.728-.384-.448 0-1.024.128-1.632.384-.64.256-1.152.384-1.536.384-1.184 0-2.336-.992-3.488-2.976-1.12-1.984-1.696-3.936-1.696-5.792 0-1.76.448-3.2 1.312-4.32s1.952-1.664 3.264-1.664c.544 0 1.248.128 2.048.352s1.344.352 1.6.352c.352 0 .896-.128 1.664-.384s1.44-.384 1.984-.384c.928 0 1.728.224 2.464.736.416.288.8.672 1.216 1.152-.608.544-1.056.992-1.312 1.376-.48.736-.736 1.536-.736 2.4 0 .928.256 1.792.8 2.56.544.736 1.152 1.248 1.76 1.44-.288.96-.768 1.92-1.408 2.88z"/></svg>