<svg xmlns="http://www.w3.org/2000/svg" width="25" height="32" viewBox="0 0 25 32"><path d="M8.208 14.632l.675-1.563-1.137-1.244 1.102-1.457-4.193-4.442-2.061 2.772 5.614 5.934zm2.203-1.386l2.132-2.772-2.452-1.457-2.096 2.736 2.416 1.492zM4.513 5.82L2.097 4.363.001 7.135l2.416 1.457L4.513 5.82zm17.34-2.559L17.127.489 15.599.134l4.726 2.772 1.528.355zm-8.67 7.64l4.264-9.381L14.96.028l-4.193 9.239 1.919 1.137.497.497zm.106-6.609l2.132 1.244-1.706 3.731-2.096-1.244 1.67-3.731zm9.061-.675l-2.025-.462-4.69 10.305 1.528 1.635 5.188-11.477zm-9.025 7.462l2.168 2.31 4.655-10.305-2.523-1.457-4.3 9.452zm3.091-.214l-2.168-1.279 1.706-3.731 2.168 1.244-1.706 3.767zm-8.279 3.909L2.452 8.769.32 7.525l7.533 7.888.284-.64zm6.254 6.929l.462.284-.391-.426-.071.142zm-.782-3.695L7.533 31.475l2.025.497 5.543-12.33-1.492-1.635zm.96 3.34l.817.853.959-1.315-1.066-1.137-.711 1.599zM8.35 12.251l12.437 13.183 2.061 1.173-12.437-13.183-2.061-1.173zm4.3-1.634l-2.025 2.772 12.721 13.503 2.061-2.772-12.756-13.503zm-3.589 2.629L2.168 28.419 4.62 29.84l6.538-14.427-2.096-2.168zm-2.736 12.33l-2.096-1.244 1.706-3.767 2.061 1.244-1.67 3.767zm5.01-9.949l-6.538 14.32 2.523 1.457 6.112-13.574-2.096-2.203zM9.025 27.14l-2.132-1.244 1.706-3.767 2.132 1.244-1.706 3.767z"/></svg>