<svg xmlns="http://www.w3.org/2000/svg" width="32" height="32" viewBox="0 0 32 32"><path d="M28.681 7.159c-.694-.947-1.662-2.053-2.724-3.116s-2.169-2.03-3.116-2.724C21.229.137 20.448 0 20 0H4.5A2.503 2.503 0 0 0 2 2.5v27C2 30.878 3.121 32 4.5 32h23c1.378 0 2.5-1.122 2.5-2.5V10c0-.448-.137-1.23-1.319-2.841zm-4.138-1.702A27.334 27.334 0 0 1 26.811 8H22V3.189a27.334 27.334 0 0 1 2.543 2.268zM28 29.5c0 .271-.229.5-.5.5h-23a.507.507 0 0 1-.5-.5v-27c0-.271.229-.5.5-.5H20v7a1 1 0 0 0 1 1h7v19.5z"/><path d="M8 2h4v2H8V2zm4 2h4v2h-4V4zM8 6h4v2H8V6zm4 2h4v2h-4V8zm-4 2h4v2H8v-2zm4 2h4v2h-4v-2zm-4 2h4v2H8v-2zm4 2h4v2h-4v-2zM8 26.5c0 .825.675 1.5 1.5 1.5h5c.825 0 1.5-.675 1.5-1.5v-5c0-.825-.675-1.5-1.5-1.5H12v-2H8v8.5zm6-2.5v2h-4v-2h4z"/></svg>