<svg xmlns="http://www.w3.org/2000/svg" width="33" height="32" viewBox="0 0 33 32"><title>brand-circle</title><path fill="#f40050" d="M27.681 27.207l-2.44-4.813a10.885 10.885 0 0 0 1.902-4.597l.009-.064 5.113-1.886-5.133-1.682a10.95 10.95 0 0 0-1.973-4.671l.021.03 2.287-4.95-4.818 2.435a10.872 10.872 0 0 0-4.603-1.893l-.063-.008L16.092 0l-1.677 5.118a11.012 11.012 0 0 0-4.676 1.973l.031-.022-4.95-2.277 2.435 4.813a10.858 10.858 0 0 0-1.898 4.598l-.008.063-5.113 1.886 5.133 1.682a10.9 10.9 0 0 0 1.947 4.635l-2.277 4.95 4.818-2.435a10.87 10.87 0 0 0 4.597 1.897l.063.009 1.891 5.108 1.677-5.123a10.995 10.995 0 0 0 4.676-1.973l-.031.022zM8.824 16c0-4.091 3.329-7.421 7.421-7.421 4.097 0 7.426 3.329 7.426 7.421s-3.329 7.421-7.421 7.421c-4.097 0-7.426-3.324-7.426-7.421z"/></svg>