<svg xmlns="http://www.w3.org/2000/svg" width="23" height="32" viewBox="0 0 23 32"><title>adult</title><path d="M23.133 29.943c-.121-.931-.32-1.867-.516-2.772-.064-.304-.129-.606-.188-.91a.543.543 0 0 0-.032-.114l.001.003c-.181-.957-.575-2.925-.647-3.288a3.064 3.064 0 0 0-2.042-2.418l-.022-.006c-.673-.237-1.369-.436-2.043-.629l-.48-.137c-.89-.258-1.728-.493-2.429-1.093a.574.574 0 0 1-.162-.48v.003a.438.438 0 0 1 .187-.35l.001-.001a6.342 6.342 0 0 0 1.967-1.811l.013-.02a5.903 5.903 0 0 0 1.116-3.227v-.012a.394.394 0 0 1 .32-.445h.002a2.186 2.186 0 0 0 1.377-1.313l.005-.015a1.793 1.793 0 0 0-.226-1.628l.004.006a.517.517 0 0 1-.037-.192l.001-.034v.002-.067a23.712 23.712 0 0 1-.021-.843l.001-.135c0-.576-.042-1.141-.122-1.695l.008.063C18.506 2.739 15.354.01 11.566.01c-1.656 0-3.19.521-4.447 1.408l.024-.016a6.954 6.954 0 0 0-.802.686l-.335.33-.173.173-.088.098a7.673 7.673 0 0 0-1.237 1.96l-.019.049-.031.075a5.574 5.574 0 0 0-.225.651l-.01.043c-.052.162-.101.328-.147.493a7.932 7.932 0 0 0-.211 2.283l-.001-.019V9a.601.601 0 0 1-.043.262l.001-.004a1.812 1.812 0 0 0-.234 1.588l-.004-.013a1.986 1.986 0 0 0 1.119 1.251l.013.005c.477.193.58.41.634.926.214 2.05 1.253 3.644 3.095 4.735a.72.72 0 0 1 .163.457l-.001.029v-.001c0 .147-.028.219-.046.23l-.258.173c-.322.251-.69.467-1.085.633l-.032.012c-.805.284-1.643.516-2.453.75l-.944.271a3.281 3.281 0 0 0-2.432 2.666l-.002.018-.23 1.145q-.534 2.672-1.06 5.344c-.116.598-.186 1.467.573 2.076.179.131.386.241.607.32l.017.005c.093.039.188.075.276.119h20.041l.098-.036c.046-.018.095-.039.144-.052a1.726 1.726 0 0 0 1.304-1.973l.001.01zm-4.679-19.629a.797.797 0 0 1-.541.715l-.006.002V9.602a.812.812 0 0 1 .547.709v.003zm-13.183.715a.775.775 0 0 1-.554-.675v-.003a.806.806 0 0 1 .549-.754l.006-.002zm-.196-2.68a8.426 8.426 0 0 1 .228-2.378l-.012.057h.015l.031-.126a4.76 4.76 0 0 1 .144-.495l-.01.033-.121-.026h.134q.036-.098.077-.193a.692.692 0 0 0 .034-.089l.002-.006a6.635 6.635 0 0 1 1.112-1.732l-.006.006.062-.064.026-.028a6.263 6.263 0 0 1 5.784-1.988l-.038-.006a6.432 6.432 0 0 1 5.408 4.974l.008.043a7.476 7.476 0 0 1 .135 2.047l.001-.023h-.021a1.265 1.265 0 0 0-.365-.075H17.7c-.415 0-.704-.222-.905-.689a3.693 3.693 0 0 1-.222-.867l-.002-.02-.026-.157a1.312 1.312 0 0 0-1.107-1.139l-.007-.001a2.061 2.061 0 0 0-.258-.015 5.58 5.58 0 0 0-.516.031l-.294.023c-.317.018-.634.044-.949.067-.678.052-1.382.106-2.063.098-.774 0-1.586-.093-2.362-.173l-.774-.077A1.444 1.444 0 0 0 6.67 6.382l-.003.01a2.386 2.386 0 0 0-.061.396v.008c0 .064 0 .129-.021.191-.139.879-.629 1.328-1.511 1.362zm1.527 5.003a6.59 6.59 0 0 1-.103-1.295v.006-.16c-.018-.923 0-1.839 0-2.535a.344.344 0 0 1 .106-.224 2.94 2.94 0 0 0 1.186-2.195v-.008c.015-.147.036-.302.093-.348s.142-.036.315 0a22.979 22.979 0 0 0 5.568.103l-.098.008 1.354-.142c.279-.026.32 0 .351.273.088.758.258 1.527.923 2.037a.976.976 0 0 1 .394.973l.001-.006a7.047 7.047 0 0 0 0 .872v.496l.001.168c0 .714-.056 1.416-.163 2.1l.01-.076a4.824 4.824 0 0 1-3.391 3.757l-.034.008a4.921 4.921 0 0 1-1.558.248 4.994 4.994 0 0 1-2.553-.697l.023.013a5.178 5.178 0 0 1-2.418-3.342l-.006-.034zm2.181 6.427l.91-.838v-.039a1.979 1.979 0 0 0 .046-.579v.006a6.254 6.254 0 0 0 1.847.273c.637 0 1.251-.093 1.832-.266l-.045.012c.018.093.031.181.044.258.014.116.033.217.058.317l-.004-.018c.129.249.297.459.498.632l.003.002.031.021c.227.097.422.208.602.339l-.009-.006h.013l-3.056 3.75-3.012-3.691c.075-.057.152-.111.242-.173zM21.83 30.611a.513.513 0 0 1-.368.155h-.011.001a36.48 36.48 0 0 1-1.878.015h-.671V26.59a.57.57 0 0 0-.568-.614l-.026.001h.001-.008a.588.588 0 0 0-.588.585v4.255H5.456V26.66l.001-.044a.71.71 0 0 0-.24-.533l-.001-.001a.552.552 0 0 0-.491-.089l.004-.001a.633.633 0 0 0-.464.697v-.003 4.118h-.652c-.603 0-1.173 0-1.751-.015l-.037.001a.7.7 0 0 1-.48-.19.778.778 0 0 1-.12-.606l-.001.005c.039-.357.093-.67.163-.977l-.011.056.039-.193q.462-2.321.928-4.624l.258-1.222a1.787 1.787 0 0 1 1.074-1.373l.012-.004c.426-.173.877-.307 1.313-.436l.317-.095c.485-.147.972-.289 1.465-.431l.438-.134 4.343 5.32 4.384-5.328.908.258c.81.235 1.645.477 2.458.745.669.22 1.167.785 1.288 1.479l.002.011c.046.219.258 1.261.438 2.182l.258 1.289c.041.217.088.433.132.652.067.328.134.655.193.983l.062.343c.101.552.206 1.122.258 1.687a.534.534 0 0 1-.114.418l.001-.001z"/></svg>