<svg xmlns="http://www.w3.org/2000/svg" width="36" height="32" viewBox="0 0 36 32"><title>booking</title><path d="M20.388 32h-.305a3.187 3.187 0 0 1-2.133-.968l-.001-.001a1.802 1.802 0 0 1-.622-1.605l-.001.009a1.677 1.677 0 0 1 1.028-1.203l.011-.004a7.277 7.277 0 0 1 2.224-.5l.023-.001a11.03 11.03 0 0 1 1.551.002l-.035-.002c.259 0 .514.021.773.021a4.859 4.859 0 0 0 .98-.058l-.028.004c.134-.025.18-.071.184-.084s0-.084-.058-.209a2.554 2.554 0 0 0-.442-.559l-.001-.001-4.335-4.347-6.063-6.072a2.928 2.928 0 0 1-.686-.954l-.007-.019a1.763 1.763 0 0 1 .723-2.084l.007-.004a1.789 1.789 0 0 1 2.288.27l.001.001q1.842 1.821 3.671 3.662a1.702 1.702 0 0 1 .508-1.598l.001-.001c.773-.764 1.867-.702 2.719.159l.054.058a1.697 1.697 0 0 1-.034-.338v-.018.001c.007-.495.219-.939.554-1.252l.001-.001c.768-.752 1.846-.697 2.677.134l1.082 1.09a1.329 1.329 0 0 1-.041-.193l-.001-.008a1.694 1.694 0 0 1 .627-1.601l.004-.003a1.72 1.72 0 0 1 1.054-.357c.25 0 .488.053.703.149l-.011-.004a3.47 3.47 0 0 1 1.06.743l.001.001c.526.514 1.044 1.036 1.562 1.558.722.731 1.47 1.487 2.23 2.201a8.029 8.029 0 0 1 2.434 5.768c0 1.79-.584 3.444-1.573 4.781l.015-.022a18.103 18.103 0 0 1-2.21 2.396l-.016.014c-.747.714-1.67.835-2.551.835a617.75 617.75 0 0 0-6.853.146c-.372 0-.743.025-1.111.046-.539-.004-1.086.021-1.633.021zm.902-3.466c-.205 0-.418 0-.601.025a6.68 6.68 0 0 0-2.038.433l.046-.015a.864.864 0 0 0-.562.579l-.002.006-.001.05c0 .317.148.6.379.783l.002.002c.401.425.957.7 1.577.735h.006c.618 0 1.253 0 1.875-.046.376 0 .756-.038 1.132-.046 2.121-.05 4.531-.109 6.861-.146.835 0 1.478-.117 1.963-.576a17.654 17.654 0 0 0 2.121-2.278l.029-.039a7.163 7.163 0 0 0 1.401-4.272c0-2.022-.832-3.85-2.172-5.16l-.001-.001a87.295 87.295 0 0 1-2.247-2.217c-.514-.518-1.027-1.04-1.549-1.549a2.665 2.665 0 0 0-.781-.561l-.016-.007a.906.906 0 0 0-.917.102l.002-.002a.862.862 0 0 0-.316.84l-.001-.005c.101.347.271.646.495.896l-.002-.002c.159.205.535.647.535.651a.416.416 0 0 1-.07.605l-.001.001s-.2.146-.338.263a.416.416 0 0 1-.543-.042l-.756-.768c-.589-.597-1.169-1.19-1.758-1.775-.505-.505-1.065-.551-1.499-.125a.914.914 0 0 0-.305.659v.001c.019.349.176.658.417.876l.001.001c.418.418.877.869 1.336 1.32l.639.647a.418.418 0 0 1 0 .58l-.367.418a.417.417 0 0 1-.606 0l-.919-.935-1.979-2.009c-.251-.255-.906-.777-1.537-.15a.9.9 0 0 0-.296.65v.001c.019.351.176.663.417.884l.001.001 1.503 1.508 1.253 1.253c.051.054.096.114.135.179l.003.005.042.063a.418.418 0 0 1-.062.551l-.351.313a.417.417 0 0 1-.576-.001l-2.89-2.915-.418-.418q-2.038-2.096-4.101-4.155a.96.96 0 0 0-1.256-.157l.003-.002a.923.923 0 0 0-.415 1.1l-.002-.007c.126.271.296.501.504.692l.002.001q3.028 3.04 6.063 6.072l4.339 4.343c.225.216.419.462.576.732l.009.016a1.048 1.048 0 0 1 .081.968l.003-.007a1.049 1.049 0 0 1-.771.551l-.006.001a5.353 5.353 0 0 1-1.099.07h.01c-.301 0-.572 0-.835-.025s-.526-.013-.793-.013z"/><path d="M30.653 1.282C30.24.372 29.513 0 28.152 0H5.573C4.374 0 3.134 0 1.915.088A1.829 1.829 0 0 0 .108 1.695l-.001.009c-.066.32-.107.69-.113 1.069v17.506c0 1.436.919 2.355 2.384 2.355h15.99a16.698 16.698 0 0 0-.835-.747.795.795 0 0 0-.414-.171h-.003q-5.771-.021-11.542 0H2.112a1.12 1.12 0 0 1-1.085-.942l-.001-.006a4.003 4.003 0 0 1-.092-.834V2.594c0-1.153.522-1.67 1.67-1.67.23 0 .418 0 .601.025s.418.025.635.025q12.194 0 24.371-.038c.697 0 1.094.125 1.374.418a1.755 1.755 0 0 1 .417 1.336l.001-.008V12.9a.698.698 0 0 0 .035.281l-.001-.005c.276.271.589.555.902.835V2.268a2.528 2.528 0 0 0-.291-.999l.007.014z"/><path d="M27.087 5.972H18.89a.418.418 0 1 1 0-.836h8.197a.418.418 0 1 1 0 .836zm0 4.1H18.89a.418.418 0 1 1 0-.836h8.197a.418.418 0 1 1 0 .836zM11.84 19.209H3.643a.418.418 0 1 1 0-.836h8.197a.418.418 0 1 1 0 .836zm-4.209-7.633L3.292 7.233a.42.42 0 0 1 .59-.589h-.001l3.758 3.758 6.372-6.389a.418.418 0 0 1 .598.581l.001-.001z"/></svg>