<svg xmlns="http://www.w3.org/2000/svg" width="29" height="32" viewBox="0 0 29 32"><title>calendar</title><path d="M28.688 31.993H0V3.305h28.688zM2.312 29.554h24.064V5.49H2.312z"/><path d="M5.331 8.801h17.695v3.573H5.331V8.801zm0 7.03h3.382v3.382H5.331v-3.382zm7.156 0h3.382v3.382h-3.382v-3.382zm7.16 0h3.382v3.382h-3.382v-3.382zM5.208.007h1.813v3.382H5.208V.007zm16.005 0h1.813v3.382h-1.813V.007zM5.331 22.868h3.382v3.382H5.331v-3.382zm7.156 0h3.382v3.382h-3.382v-3.382zm7.16 0h3.382v3.382h-3.382v-3.382z"/></svg>