<svg xmlns="http://www.w3.org/2000/svg" width="39" height="32" viewBox="0 0 39 32"><title>car</title><path d="M7.964 22.477a3.34 3.34 0 1 0-3.339-3.339 3.343 3.343 0 0 0 3.339 3.339zm-1.346-3.34a1.347 1.347 0 1 1 1.347 1.347 1.346 1.346 0 0 1-1.343-1.346zm23.921 3.34a3.34 3.34 0 1 0-3.339-3.339 3.343 3.343 0 0 0 3.339 3.339zm-1.347-3.34a1.347 1.347 0 1 1 1.347 1.347 1.346 1.346 0 0 1-1.343-1.346zm-14.455 2.347h9.028a1.01 1.01 0 1 0-.006-1.995l.006-.001h-9.028a1.011 1.011 0 0 0-.006 1.995l.006.001z"/><path d="M37.621 12.119a2.989 2.989 0 0 0-2.113-5.103h-2.812l-1.724-4.568A3.813 3.813 0 0 0 27.431.001H11.067a3.808 3.808 0 0 0-3.532 2.421l-.009.026-1.724 4.551H2.991A2.989 2.989 0 0 0 .002 9.988v.004a3 3 0 0 0 1.408 2.534l.012.007a5.03 5.03 0 0 0-1.421 3.511v6.192a5.05 5.05 0 0 0 4.603 5.03l.019.001v2.744a1.99 1.99 0 0 0 1.986 1.986h2.693a1.99 1.99 0 0 0 1.986-1.986v-2.72h15.909v2.723A1.99 1.99 0 0 0 29.183 32h2.693a1.99 1.99 0 0 0 1.986-1.986v-2.747a5.053 5.053 0 0 0 4.622-5.031v-.019.001-6.174a5.03 5.03 0 0 0-1.419-3.509l.001.001c.209-.124.39-.262.553-.418l-.001.001zm-5.739 15.172v2.717h-2.693v-2.717zm-22.575 0v2.717H6.614v-2.717zM29.118 3.178v.027l.475 1.262 2.468 6.524H6.43l2.962-7.833A1.804 1.804 0 0 1 11.074 2h16.358c.623.004 1.17.324 1.49.808l.004.007h-.057zm4.332 5.817h2.057a1.01 1.01 0 0 1 .703 1.684l.001-.001a.983.983 0 0 1-.701.293h-1.305zM1.999 16.044a3.066 3.066 0 0 1 3.063-3.063H33.44a3.066 3.066 0 0 1 3.063 3.063v6.174a3.066 3.066 0 0 1-3.063 3.06H5.052a3.067 3.067 0 0 1-3.053-3.06zm0-6.06c0-.558.452-1.01 1.01-1.01h2.043l-.754 1.989H2.992a1.01 1.01 0 0 1-.993-.971V9.99z"/></svg>