<svg xmlns="http://www.w3.org/2000/svg" width="24" height="32" viewBox="0 0 24 32"><title>card-money</title><path d="M19.274 19.538H4.961a1.25 1.25 0 0 0-1.247 1.247v9.964c0 .69.558 1.249 1.247 1.251h14.313a1.25 1.25 0 0 0 1.247-1.247v-9.967a1.25 1.25 0 0 0-1.247-1.247zm-14.327.622h14.327c.343.002.62.279.622.622v.309H4.34v-.313a.625.625 0 0 1 .622-.618zm14.949 3.425H4.34V21.72h15.571zm-.622 7.79H4.961a.625.625 0 0 1-.622-.622v-6.546H19.91v6.545a.625.625 0 0 1-.625.622h-.012.001z"/><path d="M18.667 26.702h-4.985l-.019-.001a.295.295 0 0 0-.294.315v-.001 2.804l-.001.019c0 .163.132.295.295.295l.02-.001h-.001 4.982l.019.001a.295.295 0 0 0 .295-.295l-.001-.02v.001-2.804l.001-.019a.295.295 0 0 0-.295-.295h-.016.001zm-.313 2.803H13.99v-2.182h4.364zM5.274 26.08h2.491a.313.313 0 0 0 .001-.622H5.274a.313.313 0 0 0-.001.622h.001zm6.229-.625H9.012a.313.313 0 0 0-.001.622h2.492a.313.313 0 0 0 .001-.622h-.001zm-2.182 1.247H5.274a.313.313 0 0 0-.001.622h4.048l.034.002a.313.313 0 1 0-.035-.624h.001zm2.182 0h-.935a.313.313 0 1 0 .001.622h-.001.935l.034.002a.313.313 0 1 0-.035-.624h.001zM.001 0v12.233h24.247V0zM23.59 11.575H.659V.666H23.59z"/><path d="M3.903 10.109v.327h16.462v-.327c0-.964.673-1.745 1.498-1.745h.327V3.873h-.327c-.825 0-1.498-.782-1.498-1.745v-.327H3.903v.327c0 .964-.673 1.745-1.498 1.745h-.327v4.491h.327c.825 0 1.498.782 1.498 1.745zM2.732 4.498A2.305 2.305 0 0 0 4.55 2.463l.001-.009h15.164a2.302 2.302 0 0 0 1.803 2.041l.015.003v3.236a2.303 2.303 0 0 0-1.817 2.035l-.001.009H4.537a2.302 2.302 0 0 0-1.803-2.041l-.015-.003z"/><path d="M12.085 9.247A2.975 2.975 0 1 0 9.11 6.272a2.975 2.975 0 0 0 2.975 2.975zm0-5.287a2.316 2.316 0 1 1-2.316 2.316 2.32 2.32 0 0 1 2.316-2.316zm.851 9.247h-1.615a.364.364 0 0 0-.364.364v2.269h-.851a.364.364 0 0 0-.251.607l2.015 2.022a.363.363 0 0 0 .502-.001l2.018-2.022a.36.36 0 0 0 .076-.391l.001.002a.363.363 0 0 0-.327-.218h-.851v-2.276a.363.363 0 0 0-.352-.356h-.001zm.836 3.135l-1.647 1.651-1.644-1.651h.996v-2.625h1.309v2.625z"/></svg>