<svg xmlns="http://www.w3.org/2000/svg" xmlns:xlink="http://www.w3.org/1999/xlink" width="33" height="32" viewBox="0 0 33 32"><defs><path id="a" d="M1153 434.45l.36-.38 8.74-10.5c2.16-2.58 4.32-5.17 6.5-7.75.39-.47.86-.87 1.32-1.29.12-.1.29-.17.44-.22.88-.32 1.47.1 1.48 1.02a3.5 3.5 0 0 1-.66 1.93c-1.74 2.72-3.5 5.42-5.25 8.13l-10.05 15.53c-1.23 1.9-3.62 2.05-5.1.33-2.43-2.8-4.85-5.61-7.26-8.42-1.65-1.93-.7-4.67 1.8-5.09 1.16-.2 2.12.3 2.89 1.18l4.45 5.17.34.36z"/></defs><use fill="#ffc411" xlink:href="#a" transform="translate(-1140 -412)"/></svg>