<svg xmlns="http://www.w3.org/2000/svg" width="35" height="32" viewBox="0 0 35 32"><title>children</title><path d="M6.913 32a1.998 1.998 0 0 1-1.996-1.996v-8.256h3.982v8.256A1.999 1.999 0 0 1 6.914 32h-.001zm-.728-8.974v6.978a.718.718 0 0 0 1.436 0v-6.978zM12.173 32a1.998 1.998 0 0 1-1.996-1.996v-8.332h3.992v8.332A1.998 1.998 0 0 1 12.173 32zm-.718-9.05v7.054a.718.718 0 0 0 1.436 0V22.95zM27.526 32a1.998 1.998 0 0 1-1.996-1.996v-7.785h3.992v7.785A1.998 1.998 0 0 1 27.526 32zm-.718-8.503v6.507a.718.718 0 0 0 1.436 0v-6.51z"/><path d="M24.679 32a1.998 1.998 0 0 1-1.996-1.996v-7.785h3.992v7.785A1.998 1.998 0 0 1 24.679 32zm-.718-8.506v6.51a.718.718 0 0 0 1.436 0v-6.51zm-9.792-.544H4.906v-5.802h9.263zm-7.984-1.278h6.707v-3.246H6.185zm3.31-12.471A4.601 4.601 0 1 1 14.096 4.6a4.601 4.601 0 0 1-4.601 4.601zm0-7.9a3.323 3.323 0 1 0 3.323 3.323 3.323 3.323 0 0 0-3.323-3.323zm16.674 7.9A4.601 4.601 0 1 1 30.77 4.6a4.601 4.601 0 0 1-4.601 4.601zm0-7.9a3.323 3.323 0 1 0 3.323 3.323 3.323 3.323 0 0 0-3.323-3.323z"/><path d="M22.335 8.57h-5.002l.368-.879c.184-.442 1.825-4.345 2.599-5.352a1.812 1.812 0 0 1 2.516-.464l-.006-.004.322.227-.059.391s-.202 1.367-.314 2.083c-.118.682-.358 3.387-.36 3.412zm-3.067-1.278h1.912c.079-.856.23-2.403.322-2.934.074-.422.174-1.068.243-1.534a.67.67 0 0 0-.42.284l-.002.002c-.468.593-1.449 2.753-2.065 4.181zM34.987 8.57h-5.002l-.051-.583c0-.026-.243-2.73-.36-3.412-.125-.721-.327-2.086-.327-2.086l-.059-.391.322-.227a1.804 1.804 0 0 1 2.506.446l.004.006c.767.997 2.415 4.907 2.599 5.352zm-3.834-1.278h1.912c-.619-1.429-1.597-3.578-2.045-4.174a.673.673 0 0 0-.428-.283l-.004-.001c.069.455.169 1.102.243 1.534.092.511.243 2.068.322 2.924zM16.927 21.316a2.078 2.078 0 0 1-1.958-1.381l-.005-.015-.805-2.326a.64.64 0 0 1-.626.511H5.492a.64.64 0 0 1-.623-.528l-.001-.004-.818 2.344a2.076 2.076 0 1 1-3.919-1.374l-.005.015 2.904-8.373c.368-1.063 2.045-1.344 2.374-1.39h8.212c.33.046 1.999.327 2.367 1.39l2.904 8.373a2.075 2.075 0 0 1-1.961 2.755zm-3.397-8.12c.278 0 .514.177.602.425l.001.004 2.045 5.879a.797.797 0 1 0 1.506-.516l.001.006-2.909-8.391c-.056-.164-.659-.44-1.293-.537H5.537c-.639.097-1.245.373-1.301.537l-2.904 8.376a.797.797 0 0 0 1.505.516l.002-.005 2.045-5.902a.64.64 0 0 1 1.242.21v3.031h6.763v-3.004c0-.315.228-.577.528-.629l.004-.001.037-.001c.025 0 .049.001.073.004h-.003z"/><path d="M32.385 23.494H20.117a.64.64 0 0 1-.61-.828l-.001.005.412-1.37a1.837 1.837 0 0 1-.858-.106l.013.004a2.021 2.021 0 0 1-1.164-2.532l-.004.014 2.556-7.826c.332-1.022 1.85-1.296 2.15-1.339h7.256c.299.043 1.807.314 2.142 1.339l2.561 7.826a2.018 2.018 0 0 1-1.152 2.505l-.014.005a1.797 1.797 0 0 1-.826.104l.008.001.414 1.365a.639.639 0 0 1-.611.826zm-11.399-1.278h10.538l-2.357-7.757a.639.639 0 0 1 1.218-.388l.001.005 1.789 5.498a.675.675 0 0 0 .339.405l.004.002a.549.549 0 0 0 .441.022l-.004.001a.737.737 0 0 0 .392-.92l.002.005-2.556-7.839c-.043-.135-.549-.376-1.071-.463H22.76c-.511.087-1.022.327-1.079.463l-2.556 7.839a.736.736 0 0 0 .389.913l.005.002a.537.537 0 0 0 .433-.025l-.003.001a.673.673 0 0 0 .341-.402l.001-.005 1.789-5.521a.64.64 0 0 1 1.218.386l.001-.005z"/></svg>