<svg xmlns="http://www.w3.org/2000/svg" width="32" height="32" viewBox="0 0 32 32"><title>client-money</title><path d="M31.558 0H15.982a.444.444 0 0 0-.444.444v1.952L9.425 4.042a.445.445 0 0 0-.305.53l-.001-.003 3.137 11.708-.035.035-2.893 2.906-.138-.2a1.7 1.7 0 0 0-1.402-.741H1.71c-.934 0-1.692.753-1.699 1.685v10.32a1.7 1.7 0 0 0 1.699 1.699h6.069c.793 0 1.458-.544 1.643-1.279l.002-.012.08-.315.998.887c.522.457 1.21.736 1.963.736h19.079a.444.444 0 0 0 .444-.444V.434a.442.442 0 0 0-.124-.308.446.446 0 0 0-.306-.129zM8.613 30.283a.833.833 0 0 1-.834.834H1.71a.834.834 0 0 1-.812-.834V19.964c0-.461.373-.834.834-.834H4.31v7.489a.444.444 0 0 0 .888 0v-7.475h2.604a.833.833 0 0 1 .812.82v.001zm1.455-25.518l5.501-1.473v2.755l-.572.164a.445.445 0 0 0-.305.53l-.001-.003a1.904 1.904 0 0 1-1.318 2.326l-.013.003a.445.445 0 0 0-.305.536l-.001-.003 2.533 9.379h-1.686l-.692-2.711a.428.428 0 0 0-.072-.152l.001.001-.027-.053zm5.502 3.332v7.542l-1.588-5.878.142-.075a2.792 2.792 0 0 0 1.067-.982l.007-.011zm8.872 23.02h-11.99a2.116 2.116 0 0 1-1.379-.508l.003.002-1.597-1.393v-8.935l3.066-3.066.59 2.302a.445.445 0 0 0 .416.324h12.423a1.088 1.088 0 0 1 .004 2.17h-6.36a.444.444 0 0 0 0 .888h8.345a1.087 1.087 0 1 1-.004 2.17h.003-8.345a.444.444 0 0 0 0 .888h7.014a1.087 1.087 0 1 1-.004 2.17h.003-7.014a.444.444 0 0 0 0 .888h4.84a1.087 1.087 0 1 1-.004 2.17h.003zm6.655 0h-4.991l.129-.284a1.946 1.946 0 0 0-.005-1.618l.005.012-.129-.284h.523a1.952 1.952 0 0 0 1.952-1.952v-.016a1.91 1.91 0 0 0-.214-.882l.005.011-.111-.217.235-.067a1.962 1.962 0 0 0 1.42-1.862v-.005a1.92 1.92 0 0 0-.39-1.163l.004.005-.04-.053v-8.079a.444.444 0 0 0-.888 0v7.444l-.2-.053a1.928 1.928 0 0 0-.415-.044h-.295l.089-.271a1.952 1.952 0 0 0-1.774-2.764h-2.01l.887-.382a2.826 2.826 0 1 0-2.236-.007l.018.007.887.382h-4.618V6.588l.155-.035a2.786 2.786 0 0 0 2.113-2.098l.004-.019.035-.155h5.075l.035.155a2.786 2.786 0 0 0 2.098 2.113l.019.004.155.035v2.125a.444.444 0 0 0 .888 0V6.184a.444.444 0 0 0-.444-.444 1.903 1.903 0 0 1-1.903-1.903.444.444 0 0 0-.444-.444h-5.887a.444.444 0 0 0-.444.444v.027a1.903 1.903 0 0 1-1.889 1.903H18.5a.444.444 0 0 0-.444.444v12.764h-1.633V.888h14.702zm-7.316-13.163a1.961 1.961 0 1 1 1.961-1.984v.019a1.964 1.964 0 0 1-1.961 1.965z"/></svg>