<svg xmlns="http://www.w3.org/2000/svg" width="32" height="32" viewBox="0 0 32 32"><title>facebook</title><path d="M16 32C7.163 32 0 24.837 0 16S7.163 0 16 0s16 7.163 16 16-7.163 16-16 16zM16 .78C7.595.78.78 7.594.78 16S7.594 31.22 16 31.22c8.405 0 15.22-6.814 15.22-15.22C31.22 7.595 24.406.78 16 .78z"/><path d="M12.613 13.62h1.436v-1.409c0-.624 0-1.584.468-2.178a2.582 2.582 0 0 1 2.272-1.057h-.008a9.155 9.155 0 0 1 2.666.275l-.063-.014-.363 2.15a4.727 4.727 0 0 0-1.164-.175h-.007c-.566 0-1.069.203-1.069.78v1.627h2.318l-.16 2.103h-2.158v7.301h-2.732v-7.301h-1.436z"/></svg>