<svg xmlns="http://www.w3.org/2000/svg" width="28" height="32" viewBox="0 0 28 32"><title>food-icon</title><path d="M26.964 16.161c0-.442-.013-4.09-.121-7.742-.068-2.266-.159-4.065-.27-5.364a17.948 17.948 0 0 0-.249-1.937l.017.109C26.262.829 26.096 0 25.367 0a.78.78 0 0 0-.162.018l.005-.001c-.449.093-.776.472-1.426 2.383-.41 1.203-.861 2.783-1.271 4.449-.485 1.977-1.586 6.858-1.322 9.475.174 1.688.929 2.043 1.533 2.043h1.365c-.049 1.224-.257 2.934-.459 4.59l.189.023h-.189c-.291 2.39-.593 4.864-.489 6.324.121 1.72 1.282 2.33 2.241 2.33a2.662 2.662 0 0 0 1.851-.773 2.24 2.24 0 0 0 .67-1.601c-.011-1.832-.912-12.753-.94-13.099zm-1.947 6.987c.261-2.143.508-4.167.48-5.476a.704.704 0 0 0-.698-.684h-2.018a.466.466 0 0 1-.038-.074l-.001-.004c-.429-.969-.11-4.256.816-8.372a56.068 56.068 0 0 1 1.706-6.178l-.12.405c.11 1.11.232 3.021.321 6.267.1 3.646.106 7.147.106 7.175l-.001.027.001.029v-.001.1c.215 2.644.92 11.369.927 12.929a.857.857 0 0 1-.264.608 1.252 1.252 0 0 1-.858.361h-.001c-.64 0-.814-.566-.848-1.031-.085-1.344.211-3.754.493-6.082zM19.808 7.689c-.028-1.299-.064-2.915-.064-4.6a.7.7 0 0 0-1.398 0c0 1.677.036 3.286.062 4.577v.108c0 .251.011.487.015.708l-.863.015V3.338a.7.7 0 0 0-1.398 0v5.178l-.786.011V3.338a.7.7 0 0 0-1.398 0v5.21l-.755.011V2.917a.7.7 0 0 0-1.398 0V9.66c0 1.779 1.31 3.01 3.435 3.242v3.952h-.391a.699.699 0 0 0-.67.591l-.001.004c-.351 2.355-1.103 8.527-1.042 11.535.04 1.956 1.333 2.644 2.428 2.644 1.259 0 2.661-.931 2.729-2.434.079-1.754-.378-8.006-.583-10.684l-.076-1.033a.702.702 0 0 0-.697-.651h-.291v-3.933c1.966-.293 3.174-1.835 3.174-3.142 0-.455-.015-1.105-.032-1.926zM16.93 29.147c-.028.657-.712 1.099-1.333 1.099-.874 0-1.022-.802-1.031-1.282-.053-2.574.542-7.861.944-10.716h.812l.032.419c.193 2.63.651 8.812.576 10.48zm1.511-19.26c-.106.784-1.146 1.665-2.423 1.665-1.233 0-2.568-.421-2.757-1.588zM4.959 1.803C2.225 1.803 0 4.503 0 7.823c0 1.569.506 2.999 1.426 4.024a4.67 4.67 0 0 0 2.745 1.522l.027.004v3.839h-.389a.7.7 0 0 0-.672.591l-.001.004c-.353 2.355-1.103 8.529-1.042 11.535.04 1.956 1.333 2.644 2.428 2.644 1.259 0 2.661-.931 2.729-2.436.079-1.756-.378-8.01-.583-10.684l-.076-1.033a.7.7 0 0 0-.697-.651h-.3v-3.788a4.659 4.659 0 0 0 2.898-1.54l.004-.005c.92-1.027 1.426-2.455 1.426-4.024-.004-3.321-2.23-6.022-4.964-6.022zm0 10.235c-2.064 0-3.561-1.773-3.561-4.215 0-2.549 1.597-4.613 3.561-4.613s3.563 2.077 3.563 4.622c0 2.432-1.499 4.205-3.563 4.205zm.895 17.464c-.03.659-.714 1.101-1.333 1.101-.874 0-1.022-.802-1.031-1.282-.053-2.572.54-7.861.944-10.716h.812l.03.41c.2 2.634.655 8.82.578 10.487z"/></svg>