<svg xmlns="http://www.w3.org/2000/svg" width="32" height="32" viewBox="0 0 32 32"><title>information</title><path d="M16.011 0H16C7.163 0 0 7.163 0 16s7.163 16 16 16 16-7.163 16-16C32 7.167 24.843.006 16.011 0h-.001zm0 29.389C8.616 29.389 2.622 23.394 2.622 16S8.617 2.611 16.011 2.611C23.406 2.611 29.4 8.606 29.4 16c0 7.395-5.995 13.389-13.389 13.389z"/><path d="M18.242 12.068h-4.496v.011h-1.679v2.611h1.679v9.338h-1.777v2.502h1.777v.011h4.496v-.011h1.473v-2.502h-1.473V12.069zm-2.275-1.777a2.253 2.253 0 1 0 .059-4.495h.006a2.253 2.253 0 1 0-.059 4.495h-.006z"/></svg>