<svg xmlns="http://www.w3.org/2000/svg" width="32" height="32" viewBox="0 0 32 32"><title>instagram</title><path d="M16 32C7.163 32 0 24.837 0 16S7.163 0 16 0s16 7.163 16 16-7.163 16-16 16zM16 .78C7.595.78.78 7.594.78 16S7.594 31.22 16 31.22c8.405 0 15.22-6.814 15.22-15.22C31.22 7.595 24.406.78 16 .78z"/><path d="M20.293 8.976h-8.585a2.732 2.732 0 0 0-2.732 2.732v8.585a2.732 2.732 0 0 0 2.732 2.732h8.585a2.732 2.732 0 0 0 2.732-2.732v-8.585a2.732 2.732 0 0 0-2.732-2.732zm.78 1.619h.308v2.38h-2.373v-2.38zm-7.075 3.965a2.466 2.466 0 1 1-.468 1.446V16a2.463 2.463 0 0 1 .473-1.447l-.005.007zm7.661 5.733v.012c0 .744-.603 1.346-1.346 1.346h-8.621a1.346 1.346 0 0 1-1.346-1.346v-.012.001-5.733h2.096a3.84 3.84 0 1 0 7.109-.025l.009.025h2.099z"/></svg>