<svg xmlns="http://www.w3.org/2000/svg" width="28" height="32" viewBox="0 0 28 32"><title>key</title><path d="M21.999 1.334h-2.667c-.063 0-.13 0-.195.004C18.138.587 16.706.001 14.666.001s-3.467.713-4.461 1.643A7.805 7.805 0 0 0 8 1.334a8 8 0 0 0-4.039 14.907l.038.02v4.407c0 .184.075.351.196.472l.861.861-.861.863a.667.667 0 0 0 0 .942l.861.861-.861.863a.667.667 0 0 0 0 .942l.861.861-.862.863a.667.667 0 0 0 0 .942l2.667 2.667c.121.12.288.194.472.194h1.333c.23 0 .433-.117.553-.295l.002-.002 2.667-4a.656.656 0 0 0 .112-.368V16.261c.504-.295.94-.615 1.34-.975l-.007.006v6.709a6.007 6.007 0 0 0 6 6H22a6.007 6.007 0 0 0 6-6V7.334a6.007 6.007 0 0 0-6-6zm-7.333 0c1 0 1.813.161 2.479.414a6.061 6.061 0 0 0-2.951 2.483l-.015.027a8.102 8.102 0 0 0-2.511-2.033l-.045-.021c.75-.516 1.74-.871 3.042-.871zM7.609 30.668l-2-2 .861-.863a.667.667 0 0 0 0-.942l-.861-.862.861-.863a.667.667 0 0 0 0-.942l-.861-.862.862-.861a.667.667 0 0 0 0-.942l-1.139-1.139v-3.516a7.82 7.82 0 0 0 2.663.458H8v12.667c0 .256.144.478.356.59l.004.002-.05.076zm3.057-3.535l-1.333 2V17.222a7.918 7.918 0 0 0 1.388-.364l-.055.018zM7.999 16.001a6.667 6.667 0 1 1 1.285-13.21l-.042-.007a7.673 7.673 0 0 0-.668 1.224l-.02.051a2.673 2.673 0 1 0 1.182.588l-.003-.003a6.01 6.01 0 0 1 .854-1.469l-.01.013c2.419 1.036 4.083 3.397 4.083 6.146a6.667 6.667 0 0 1-6.662 6.667zm.583-9.34a.667.667 0 0 0 .688-.383l.002-.004a1.333 1.333 0 1 1-1.274-.937c.042 0 .083 0 .125.006a5.076 5.076 0 0 0-.114.546l-.004.031a.668.668 0 0 0 .573.74h.003zm18.084 15.34a4.673 4.673 0 0 1-4.667 4.667h-2.667a4.672 4.672 0 0 1-4.666-4.667v-8a.64.64 0 0 0-.033-.206l.001.005a7.919 7.919 0 0 0 1.365-4.466 7.94 7.94 0 0 0-.989-3.852l.021.041a4.687 4.687 0 0 1 3.663-2.81l.024-.003c.448.411.811.906 1.067 1.461l.012.028a2 2 0 1 0 1.389-.129l-.014-.003a6.14 6.14 0 0 0-.756-1.417l.013.018h1.57a4.673 4.673 0 0 1 4.667 4.667zm-6-16.667a.667.667 0 1 1-.667.667c0-.368.299-.667.667-.667z"/><path d="M19.332 14.668a.667.667 0 0 0 .001-1.334h-2.667a.667.667 0 0 0-.667.666v2.667c0 .368.299.667.667.667h1.333A.667.667 0 0 1 18 18.668h-1.354a.667.667 0 0 0 0 1.334h.021-.001 1.333a2 2 0 1 0 0-4h-.667v-1.333zm5.703-1.222a.665.665 0 0 0-.922.185l-.002.002-2.667 4a.667.667 0 0 0 .554 1.033h2v.687a.667.667 0 0 0 1.334 0v-.021.001-1.334a.667.667 0 0 0-.667-.667h-1.421l1.976-2.964a.665.665 0 0 0-.183-.922l-.002-.002z"/></svg>