<svg xmlns="http://www.w3.org/2000/svg" width="28" height="32" viewBox="0 0 28 32"><title>lari</title><path d="M23.846 11.225a12.022 12.022 0 0 1 2.152 6.114l.002.037 1.531-1.525v-.363a13.916 13.916 0 0 0-4.942-8.167l-.027-.021a13.61 13.61 0 0 0-4.419-2.355l-.097-.026a.475.475 0 0 1-.357-.494V.009L15.97 1.735v2.647l-.889-.045a20.46 20.46 0 0 0-2.478.003l.058-.003-.876.045V.009l-1.719 1.726v3.062l-.227.071c-3.426 1.065-6.214 3.33-7.932 6.292l-.035.066A13.34 13.34 0 0 0 .001 18.08c0 1.137.141 2.241.405 3.295l-.02-.093c.828 3.522 2.915 6.456 5.751 8.364l.049.031.843.59H2.182c-.513.526-1.045 1.058-1.583 1.596l-.13.13h22.708l1.726-1.726h-11.23a12.038 12.038 0 0 1-5.566-1.446l.064.032c-1.848-1-3.363-2.4-4.468-4.093l-.029-.047a11.835 11.835 0 0 1-1.538-3.472l-.019-.084a11 11 0 0 1-.369-3.323l-.001.021c0-.428.045-.921.11-1.414a11.887 11.887 0 0 1 1.329-4.085l-.031.063a12.287 12.287 0 0 1 2.584-3.293l.011-.01a11.993 11.993 0 0 1 2.848-1.915l.072-.031.616-.272.753-.324V17.37l.039-.039 1.693-1.687V6.561l-.001-.033c0-.216.17-.392.383-.402h.001l.435-.045.532-.052a11.981 11.981 0 0 1 2.456.085l-.062-.007a.46.46 0 0 1 .434.501v-.002 10.738l1.739-1.739V6.574l.441.169a12.24 12.24 0 0 1 5.69 4.443l.026.04z"/></svg>