<svg xmlns="http://www.w3.org/2000/svg" width="26" height="32" viewBox="0 0 26 32"><title>like</title><path d="M7.941 13.05a.794.794 0 0 0-.792-.792H.793a.793.793 0 1 0 0 1.586h6.355a.796.796 0 0 0 .794-.794zm17.36-.792h-6.355a.793.793 0 1 0 0 1.586h6.355a.793.793 0 1 0 0-1.586zM13.047 7.944a.794.794 0 0 0 .792-.792V.796a.793.793 0 1 0-1.586 0v6.355a.796.796 0 0 0 .794.794zm4.169 1.732a.802.802 0 0 0 .561-.231l4.498-4.498a.794.794 0 0 0-1.122-1.123l-4.498 4.498a.79.79 0 0 0 0 1.122.814.814 0 0 0 .561.231zm-8.898-.233a.792.792 0 0 0 .56.231h.001a.79.79 0 0 0 .561-1.353L4.942 3.823a.794.794 0 0 0-1.123 1.123z"/><path d="M22.573 18.051a3.275 3.275 0 0 0-2.133-.799H15.9v-3.204c0-1.533-.455-2.649-1.359-3.316-1.427-1.044-3.362-.457-3.448-.429a.794.794 0 0 0-.554.753v3.865c0 1.176-.561 2.174-1.678 2.972a6.696 6.696 0 0 1-1.776.905l-.048.014-.079.019a1.618 1.618 0 0 0-1.211-.544H2.719a1.63 1.63 0 0 0-1.631 1.631v9.883c0 .901.73 1.631 1.631 1.631h3.033a1.61 1.61 0 0 0 1.046-.386l-.002.002c.599.587 1.42.95 2.325.951h9.467c.951 0 1.79-.231 2.431-.66.815-.554 1.328-1.434 1.473-2.556l1.223-7.597a3.408 3.408 0 0 0-1.132-3.134l-.004-.004zM5.794 29.797v.001c0 .025-.02.045-.045.045H2.718a.045.045 0 0 1-.045-.045v-9.885c0-.025.02-.045.045-.045h3.031c.025 0 .045.02.045.045v.001zm16.35-8.853l-1.223 7.61.002.016-.002.017c-.053.455-.224 1.836-2.332 1.836H9.117a1.756 1.756 0 0 1-1.716-1.463l-.001-.01c0-.033-.014-.065-.02-.092v-8.495l.046-.014h.033a8.049 8.049 0 0 0 2.31-1.146l-.024.017c1.552-1.104 2.378-2.589 2.378-4.294v-3.215c.436-.046 1.037-.027 1.48.298.476.351.713 1.037.713 2.038v3.991a.794.794 0 0 0 .792.792h5.333c.423.006.808.162 1.106.418l-.002-.002a1.86 1.86 0 0 1 .599 1.709l.002-.011z"/></svg>