<svg xmlns="http://www.w3.org/2000/svg" width="27" height="32" viewBox="0 0 27 32"><title>living</title><path d="M26.472 15.766a.882.882 0 0 0-.882.882v13.58h-8.022v-8.483a.882.882 0 0 0-.882-.882h-6.021a.882.882 0 0 0-.882.882v6.815a.882.882 0 0 0 1.764 0v-5.924h4.257v7.601H1.763V11.584l11.913-9.548 12.243 9.813a.882.882 0 0 0 1.106-1.373l-.002-.002L14.228.218a.884.884 0 0 0-1.116.001l.002-.001L.33 10.472a.876.876 0 0 0-.33.678v19.949c0 .487.395.882.882.882h25.59a.882.882 0 0 0 .882-.882v-14.47a.882.882 0 0 0-.882-.861z"/></svg>