<svg xmlns="http://www.w3.org/2000/svg" width="25" height="32" viewBox="0 0 25 32"><title>location</title><path d="M12.317 0C5.521.008.014 5.515.006 12.31v.001c0 6.417 10.219 17.462 11.383 18.7l.924.989.924-.989c1.164-1.238 11.383-12.288 11.383-18.7C24.612 5.518 19.11.013 12.319 0h-.001zm0 28.254c-3.395-3.797-9.766-11.775-9.766-15.942 0-5.392 4.371-9.764 9.764-9.764s9.764 4.371 9.764 9.764c0 4.162-6.366 12.14-9.761 15.942z"/><path d="M12.317 7.216a5.082 5.082 0 1 0 5.082 5.082 5.082 5.082 0 0 0-5.082-5.082z"/></svg>