<svg xmlns="http://www.w3.org/2000/svg" width="63" height="32" viewBox="0 0 63 32"><title>map</title><path d="M19.535 5.036h-.017l-.296.064h-.019l-.31-.019h-.014l-.296-.088h-.009l-.291-.143-.259-.073-.265-.012-.644.074h-.014l-.296-.031h-.011l-.606-.175-.327-.036-.678.093h-.008l-.341-.031-.012.001-.012-.001-.256-.146-.015-.012-.41-.429-.232-.136-.479-.155-.017-.009-.139-.101a.054.054 0 0 1-.015-.015l-.085-.133v-.009l-.13-.297-.068-.105-.248-.099-.657.129c-.006.002-.012.003-.019.003s-.013-.001-.019-.003l-.328-.146-.014-.009-.285-.235-.29-.144-.296-.065-.965.13-.012.001-.013-.001-.29-.076a.071.071 0 0 1-.023-.012l-1.292-1.03-.293-.17-.956-.336-.017-.009L6.4.614 6.151.487l-.31.034-.601.31h-.014l-.29.076h-.023L4.541.864h-.016l-2.3-.856h-.629l-.62.166-.2.144L.66.502.028 2.156l-.036.16.155.031h.012l.297.127.421.068h.015l.138.063a.048.048 0 0 1 .02.014l.279.3.5.147h.009l.29.139c.009.004.016.01.022.017l.155.189.201.347v.008l.155.378.002.015-.002.015-.037.398.077.115.211.211c.005.005.009.01.012.017l.082.17.138.344.036.039.2-.257a.065.065 0 0 1 .049-.024h.007l.347.037h.02l.751.359.288.05h.02l.177.101.016.012.155.155.13.071.014.011.173.173.081.033.093-.011L6 6.104h.012l.441-.025h.012l.939.132h.014l.68.271.015.009.063.051a.065.065 0 0 1 .015.018l.22.384a.068.068 0 0 1 .008.024v.033l.138.085a.064.064 0 0 1 .02.02l.265.41.189.067.348-.155.012-.001.012.001h.234c.026 0 .049.016.058.038l.155.362.389.677v.008l-.001.008.212.774.415.633.068.039.085-.014.178-.113h.015l.107-.031.013-.001.014.002.189.025h.015l.234.095.226.125.012.009.146.133.143.079.702.13h.02l.384.22.015.012.31.335.009.012.24.429v.011l.164.503v.009l.465 2.896.299-.144.341-.214.333-.413a.066.066 0 0 1 .027-.02l.454-.155.825-.485.747-.697.155-.228.012-.012.195-.155.155-.099.07-.194-.06-.527-.259-.443a.068.068 0 0 1-.008-.024l-.037-.31v-.01l.012-.328-.091-.568-.064-.11a.061.061 0 0 1-.008-.03v-.143a.061.061 0 0 1 .017-.04l.101-.107.011-.009.108-.07.122-.166-.039-.246-.093-.273v-.009l-.05-.293-.077-.252-.155-.204a.065.065 0 0 1 0-.078l.22-.29a.063.063 0 0 1 .038-.023l.906-.169.465-.197.172-.279v-.008l.211-.242.183-.299.125-.348-.015-.342-.037-.361-.001-.013.001-.014.107-.335.057-.133zm3.513 17.63l-.119-.064-.015-.012-.347-.359-.173-.042-.201.064-.033.011-.491.31c-.007.004-.014.008-.023.009l-.68.107-.012.001-.013-.001-.277-.07h-.015l-.448-.248-.426.053-.238.091h-.012l-.119.019-.01.001a.062.062 0 0 1-.038-.013l-.287-.225-.29-.166-.457-.194a.062.062 0 0 1-.037-.046l-.045-.237-.353-.211-1.14-.059v.954l.001.01-.001.01-.076.22-.008.016-.155.211-.05.093-.037.353a.062.062 0 0 1-.009.027l-.438.72-.155.373a.063.063 0 0 1-.023.028l-.558.366-.262.359-.575 1.047.929.392.098.022.263-.023.223-.102c.008-.004.018-.007.029-.007s.02.003.029.007l.088.051a.063.063 0 0 1 .031.055v.004l-.011.18.02.045.076.031.268.031h.014l.125.043a.064.064 0 0 1 .022.014l.364.339.074.033.056-.031.367-.319.285-.415a.054.054 0 0 1 .015-.015l.132-.095h.012l.378-.155c.007-.003.015-.004.023-.004s.016.002.024.005l.647.251.31-.093.127-.067h.02l.132-.019h.02l.132.025h.015l.11.053.273-.081h.166c.012 0 .022.004.031.009l.132.082h.009l.141.13.195.017.455-.025.013-.001a.07.07 0 0 1 .014.001l1.632.638.209-.011.17-.11.269-.417v-.009l.2-.206.087-.191.087-.502v-.016l.095-.208a.082.082 0 0 1 .02-.025l.164-.124-.076-.214-.271-.431-.201-.24-.243-.225a.057.057 0 0 1-.012-.015l-.088-.155v-.011l-.064-.183-.001-.013.001-.014.019-.232a.066.066 0 0 1 .009-.028l.098-.155.012-.406-.115-.341-.198-.015a.074.074 0 0 1-.033-.017z"/><path d="M23.77 22.516l.014-.002.014.002.203.074.181.033.121-.098.076-.211a.064.064 0 0 1 .025-.031l.208-.139a.068.068 0 0 1 .032-.011h.177l-.017-.567-.129-.506-.237-.068-.291.025c-.005.002-.011.002-.017.002s-.012-.001-.017-.003l-.183-.095-.186-.108-.256-.13h-.009l-.231-.17-.327-.112h-.014l-.271-.164a.067.067 0 0 1-.028-.034l-.118-.364-.166-.268-.283-.07-.268.169h-.014l-.155.05c-.006.002-.012.003-.019.003s-.013-.001-.019-.003l-.173-.049-.457-.082a.069.069 0 0 1-.042-.026l-.226-.335c-.007-.01-.01-.022-.01-.035s.004-.025.011-.035l.177-.274-.045-.022-.381-.187-.589-.081-.008-.005-.464-.31-.5-.127-1.146.194h-.008l-.601.025-.547.101-.118.31-.037.24a.068.068 0 0 1-.009.025l-.187.296.366.641.001.009-.001.009.037.17v.01l.019.29.113.788 1.163.06a.075.075 0 0 1 .03.009l.39.234a.061.061 0 0 1 .029.041l.043.232.429.183.296.17.268.211.087-.014.24-.091h.015l.454-.057a.064.064 0 0 1 .039 0l.458.254h.028l.228.057.655-.104.486-.31h.014l.259-.082.017-.002.017.002.208.051h.011a.067.067 0 0 1 .02.012l.352.364.099.053.22.017zm-7.026-1.258zm3.005 1.038zm3.347.252zm-3.686-.144z"/><path d="M22.625 22.119zm-2.154.254zm.807-3.608l.167-.352-.012-.647v-.012l.095-.53a.06.06 0 0 1 .014-.029l.169-.198.104-.31v-.014l.409-.674v-.008l.649-.754.118-.282v-.359l-.001-.013.001-.014.095-.195a.062.062 0 0 1 .015-.02l.132-.115.133-.424a.061.061 0 0 1 .015-.026l.316-.296a.068.068 0 0 1 .04-.019l.465-.031.163-.048h.101l-.668-1.343a.06.06 0 0 1-.006-.027.06.06 0 0 1 .006-.027l.228-.491-.386-.403-1.044-.595h-.011l-.511-.448a.063.063 0 0 1-.014-.076l.226-.441a.067.067 0 0 1 .024-.026l.296-.17a.079.079 0 0 1 .026-.008l.348-.025.095-.022.077-.062.079-.229.119-.214a.062.062 0 0 1 .055-.033h.237l.012-.001.013.001.228.105 1.318.325.527.019.231-.104.107-.088.012-.008.125-.063c.008-.004.017-.006.027-.006s.019.002.027.006l.997.452.663-.085h.031l.581.225.211.036.139-.215.025-.387a.064.064 0 0 1 .02-.042l.203-.191.317-.449a.064.064 0 0 1 .027-.022l.122-.048.056-.022-.065-.036-.012-.009-1.005-.954-.457-.325a.061.061 0 0 1-.015-.017l-.088-.132a.067.067 0 0 1-.01-.034l.001-.011.031-.208v-.009l.067-.204v-.116l-.759-.28h-.014l-.271-.183h-.008l-.262-.26-.251-.155-.342-.09-.353-.012-.424.135h-.302l-.142.065-.245.232a.057.057 0 0 1-.018.012l-.132.057c-.006.002-.012.003-.019.003s-.013-.001-.019-.003l-.183-.037h-.019l-.567-.321h-.008l-.271-.214-.242-.248-.517-.347-.619-.085-1.566.132-.257.095-.009.016-.11.251-.102.317.037.353v.364l.001.012-.001.012-.135.361v.011l-.189.31v.008l-.211.242-.18.291a.064.064 0 0 1-.029.025l-.485.208h-.014l-.906.17-.177.231.139.177a.053.053 0 0 1 .011.021l.076.271.05.291.093.273v.011l.056.283.001.009a.065.065 0 0 1-.013.039l-.146.195a.054.054 0 0 1-.015.015l-.107.071-.081.085v.098l.06.104.001.011-.001.011.095.585v.012l-.012.328.036.291.259.443a.068.068 0 0 1 .008.024l.064.554.002.014-.002.014-.085.226a.06.06 0 0 1-.025.031l-.164.107-.183.155-.155.226v.009l-.737.719-.012.009-.838.491h-.011l-.443.155-.336.403a.067.067 0 0 1-.015.014l-.353.22-.333.155.043.246.239.239.009.012.101.17v.008l-.001.008.497 1.739v.009l.084.572.019.435.04.215.181.175.011.014.232.407.144-.228.036-.232v-.012l.132-.353a.063.063 0 0 1 .048-.04l.585-.107h.009l.601-.025 1.155-.195.013-.001a.07.07 0 0 1 .014.001l.523.132.02.009.465.31.584.081h.019l.31.155.166.082zm-.993-14.119z"/><path d="M18.275 12.274zm.587-4.856zM17.09 18.244zm3.368.31h.019zm5.017 3.92l.963-.246.014-.002.014.002.801.169h.403l.39-.166h.019l.963-.082.013-.001.014.002.155.054.135.022 2.754-1.132.059-.449a.064.064 0 0 1 .02-.039l.327-.291.138-.431.037-.528a.058.058 0 0 1 .019-.04l.259-.259.291-.225.167-.31.124-.361a.07.07 0 0 1 .015-.025l.237-.225.051-.31-.056-.393-.001-.011.001-.011.076-.372a.064.064 0 0 1 .025-.039l.637-.448.02-.009.674-.183.011-.369v-.014l.099-.379-.166-.206-.256.037-.248.139h-.017l-.271.063-.012.001-.012-.001-.365-.057a.07.07 0 0 1-.023-.009l-.318-.191-.788-.29-.937.074h-.012l-.976-.105-.863.452-.327.327a.056.056 0 0 1-.02.014l-.39.164h-.019l-.674.063h-.036l-.438-.246-.192-.036a.065.065 0 0 1-.028-.012l-.232-.194a.067.067 0 0 1-.02-.031l-.115-.381-.457-.432-.493-.319-.189.011-.195.197a.06.06 0 0 1-.044.019h-.005l-.246-.019h-.02l-.217-.091-.979.333a.064.064 0 0 1-.02.003.063.063 0 0 1-.063-.062v-.262l-.073-.237-.001-.009.001-.01v-.31l-.067-.234h-.125l-.155.048h-.014l-.443.029-.262.262-.135.426a.06.06 0 0 1-.019.029l-.135.118-.082.172v.358l.001.012-.001.012-.125.31a.05.05 0 0 1-.011.017l-.652.759-.403.663-.105.321a.078.078 0 0 1-.012.022l-.166.195-.09.506.012.655.002.014-.002.014-.226.381a.066.066 0 0 1-.051.036l-.341.034-.175.273.189.277.434.077.155.045.125-.042.283-.178a.06.06 0 0 1 .048-.007l.335.082c.016.004.03.014.039.028l.183.296v.014l.113.35.245.155.327.099.019.009.235.173.254.13.186.108.164.085.285-.023h.046l.283.082a.062.062 0 0 1 .043.044l.139.548v.014l.019.602zm-4.49-3.553zm.341-.034zm26.508 3.502l.201.33.285.208.342.042a.06.06 0 0 1 .049.034l.164.335.001.009-.001.009.07.403.181.669c.002.006.004.013.004.021s-.001.015-.004.021l-.31.726.046.319.062.22.13.09.285.017h.012l.296.082a.06.06 0 0 1 .035.025l.17.252a.067.067 0 0 1 .009.021l.068.31.136.31.001.009-.001.01.022.181.417.214.127.028.173-.017.31-.093.015-.002.015.002.139.025c.014.003.027.01.036.02l.138.155.29.277 1.332.523.606.125h.011l.22.088c.02.008.035.026.039.048l.012.076.001.009a.064.064 0 0 1-.033.056l-.139.076h-.009l-.197.07-.169.209.198.31.373.324.646.39 1.38.505.434.05.212-.017.175-.064.48-.31.019-.008.208-.051h.72l.012-.001.012.001.164.064a.064.064 0 0 1 .022.014l.155.146.268.336.547.497.184.113.547.18a.067.067 0 0 1 .02.012l.155.132.011.011.251.348.142.085h.155l.059-.096.054-.187v-.012l.107-.201a.067.067 0 0 1 .021-.023l.195-.125a.065.065 0 0 1 .034-.01h.007l.183.019h.011l.163.046.155-.025.155-.22.079-.39.05-.423v-.009l.088-.335a.054.054 0 0 1 .016-.026l.175-.187.06-.138.031-.31a.058.058 0 0 1 .014-.034l.082-.101a.064.064 0 0 1 .049-.023h.023l-.029-.093-.29-.443-.18-.204v-.009l-.056-.095-.036-.025-.115.045a.062.062 0 0 1-.08-.034l-.142-.328-.438-.265-.903-.383-.019-.012-.44-.386-.173-.046h-.009l-.113-.051h-.011l-.491-.341-.014-.014-.155-.208a.061.061 0 0 1-.009-.02l-.082-.271v-.009l-.087-.568-.209-.393v-.033h-.04l-.096.177a.085.085 0 0 1-.014.019l-.082.07c-.011.009-.025.015-.041.015s-.03-.006-.041-.015l-.252-.214a.062.062 0 0 1-.02-.034l-.119-.561v-.663l.094-.435a.06.06 0 0 1 .016-.029l.177-.195a.064.064 0 0 1 .042-.02l.208-.019h.02l.424.099.173-.017.133-.067.129-.112.396-.491.198-.321.335-.7-.221-.263-.203-.119-.547-.043h-.022l-.265-.125a.062.062 0 0 1-.022-.017l-.406-.486-.231-.189-.063-.019-.231.023-.545.113h-.304l-.012.001-.013-.001-.226-.107a.064.064 0 0 1-.034-.043l-.057-.246-.054-.036-.273.04-.009.001a.065.065 0 0 1-.039-.013l-.218-.172-.099-.009-.177.115a.063.063 0 0 1-.033.009h-.006l-.176-.012-.013.001c-.005 0-.009 0-.014-.002l-.125-.07a.07.07 0 0 1-.022-.02l-.094-.138v-.012l-.266-.651-.105-.105-.638-.166-.02-.009-1.022-.722-.373-.173-.283-.183a.063.063 0 0 1-.026-.034l-.094-.296c-.002-.006-.004-.013-.004-.021s.001-.015.004-.021l1.061-2.857.028-.268-.352-.431-.709-.282-.774-.136-.53-.012-.746.225h-.009l-.403.057-.016.002-.017-.002-.31-.125a.064.064 0 0 1-.029-.025l-.094-.155-.06-.13-.087.13-.146.22-.127.559.031.373.002.015a.088.088 0 0 1-.002.016l-.155.321a.086.086 0 0 1-.015.022l-.195.17-.084.269.116.488.001.012-.001.013-.082.491a.065.065 0 0 1-.04.048l-.183.07h-.012l-.177.028-.228.206-.217.276-.192.632v.008l-.001.008-.17.274-.142.714v.012l-.118.277.102.465v.008l.031.35.155.389a.06.06 0 0 1 0 .048l-.138.328.076.338.173.062.212.019h.011l.465.119c.013.003.024.01.032.02l.341.409a.06.06 0 0 1 .014.039.064.064 0 0 1-.054.063l-.756.107-.009.001a.065.065 0 0 1-.034-.01l-.477-.31-.242.146-.189.214.226.138c.012.008.022.02.026.034l.122.359.237.268z"/><path d="M42.59 23.29l.441.31.409.369.435-.223.104-.184a.07.07 0 0 1 .031-.028l.155-.067.178-.406a.066.066 0 0 1 .059-.037h.251l.235-.155.138-.245a.062.062 0 0 1 .055-.033h.006l.24.019.012-.001.013.001.528.279.181-.221.11-.341.008-.016.155-.234a.067.067 0 0 1 .027-.023l.201-.082a.064.064 0 0 1 .039 0l.465.112.375-.02-.091-.271-.268-.142a.063.063 0 0 1-.014-.096l.246-.277.016-.012.283-.17c.009-.006.021-.009.033-.009s.024.003.034.01l.491.321.62-.088-.256-.31-.431-.104-.215-.019h-.016l-.214-.076a.063.063 0 0 1-.04-.044l-.088-.39a.064.064 0 0 1 0-.039l.135-.322-.155-.373-.001-.009.001-.01-.031-.355-.107-.482a.064.064 0 0 1 0-.039l.124-.29.144-.719a.058.058 0 0 1 .008-.022l.172-.277.194-.635a.049.049 0 0 1 .011-.02l.226-.29v-.008l.246-.22a.063.063 0 0 1 .032-.015l.189-.031.142-.054.074-.443-.116-.491-.002-.017.002-.017.094-.31a.063.063 0 0 1 .026-.025l.198-.173.133-.3-.022-.37-.001-.009.001-.01.132-.579a.085.085 0 0 1 .009-.022l.282-.423-.155-.296-.912-1.118-.259-.228-.277-.104-.155.022-.339.155h-.014l-.177.031-.012.001-.013-.001-.17-.037h-.014l-.164-.082h-.009l-1.016-.729-.352-.071-.215.287-.054.191v.009l-.268.585-.155.692a.057.057 0 0 1-.014.028l-.082.095a.065.065 0 0 1-.046.022.063.063 0 0 1-.046-.02l-.119-.125a.072.072 0 0 1-.014-.024l-.225-.734-.105-.155-.271-.29-.138-.115-.336-.195-.378-.122-.384-.05-.465.037-.259.073-.725.387h-.009l-.378.125h-.019l-.804.019-.198.218-.167.352a.052.052 0 0 1-.012.017l-.31.31a.06.06 0 0 1-.024.015l-.048.017.108.31.173.246.42.115c.017.004.03.015.039.029l.31.551.155.138.161.223a.062.062 0 0 1 0 .076l-.296.369-.125.395.063.037a.072.072 0 0 1 .025.027l.063.132.001.009-.001.01.025.201.034.172.113.113.132.177a.056.056 0 0 1 .012.034l.019.378v.008l-.031.387.155.319.001.008-.001.008.076.396.001.012a.065.065 0 0 1-.012.037l-.164.22-.012.012-.183.141-.138.31a.068.068 0 0 1-.018.023l-.203.17-.138.59-.017.649.001.009-.001.009-.077.237.029.163.232.13c.017.01.028.027.031.046l.028.203.189-.172.276-.211a.059.059 0 0 1 .036-.013h.004l.321.012h.011l.668.155h.017l.328.183a.06.06 0 0 1 .029.037l.113.39.073.437.297.352.252.396c.004.008.006.017.006.027s-.002.019-.006.027l-.125.359a.064.064 0 0 1-.057.042l-.322.012-.22.215.029.457v.003a.063.063 0 0 1-.016.042l-.167.197v.249l.465.062a.061.061 0 0 1 .034.025zm2.56-5.549c.035 0 .063.028.063.064a.063.063 0 1 1-.126 0v-.002c0-.035.028-.063.062-.063zm3.104-1.244v-.008z"/><path d="M47.824 17.443l.194-.635a.049.049 0 0 1 .011-.02.064.064 0 0 0-.011.02zm.35 3.973zm-1.117.189a.067.067 0 0 0 .029.045l.269.164-.274-.164a.063.063 0 0 1-.014-.096.06.06 0 0 0-.012.038l.002.014zm.321-2.861a.064.064 0 0 0 0 .039.064.064 0 0 1 0-.039l.124-.29zm.153 1.631l.088.39a.063.063 0 0 1 0 .001l-.088-.39a.064.064 0 0 1 0-.039.064.064 0 0 0 0 .039zm1.412-5.506zm.434-1.44l-.127.579.132-.579a.085.085 0 0 1 .009-.022.06.06 0 0 0-.014.021zm-.836 2.825zm-1.092 5.831zM24.7 13.722l.001.009-.001.009v.31l.073.237.001.009-.001.009v.186l.92-.31c.007-.003.014-.004.022-.004s.016.002.023.004l.229.098.206.015.198-.194a.063.063 0 0 1 .042-.019l.234-.012h.004c.012 0 .024.004.033.01l.517.335h.009l.471.462a.06.06 0 0 1 .017.027l.115.378.206.167.186.036h.019l.431.242.644-.06.373-.155.325-.325.015-.011.889-.465c.005-.002.011-.003.018-.003s.012.001.018.003l.99.107.945-.076.013-.001.014.001.774.283.734-.595a.058.058 0 0 1 .034-.014l1.293-.107.155-.068.198-.355a.07.07 0 0 1 .018-.02l.474-.342.051-.585-.177-.135-.369-.096-.454-.031h-.011l-.423-.113a.06.06 0 0 1-.032-.022l-.265-.335a.063.063 0 0 1-.014-.04v-.004l.025-.378a.058.058 0 0 1 .019-.04l.265-.259.319-.226.191-.276-.085-.31-.39-.198-.863-.212-.019-.008-.177-.113-.014-.012-.381-.457-.155-.13-.635-.31-.347-.087-2.661-.777h-.012l-.155-.082-.259.102-.31.438-.008.009-.189.178-.023.378a.075.075 0 0 1-.009.03l-.17.265a.065.065 0 0 1-.053.029l-.011-.001-.258-.043h-.012l-.572-.221-.664.087-.017.002a.088.088 0 0 1-.017-.002l-.987-.448-.093.046-.108.09-.014.009-.252.113-.014.002a.059.059 0 0 1-.014-.002l-.561-.019-1.334-.341h-.012l-.221-.102h-.183l-.099.178-.093.229a.076.076 0 0 1-.018.025l-.101.082a.057.057 0 0 1-.026.012l-.113.025h-.009l-.338.025-.268.155-.195.381.465.41 1.045.593.014.011.423.441a.063.063 0 0 1 .018.044.058.058 0 0 1-.006.026l-.232.502.698 1.403v.011zm3.234-4.284zm-1.902-.222l-.252.113zm-.278.12z"/><path d="M26.413 14.086l.234-.012h.004c.012 0 .024.004.033.01a.06.06 0 0 0-.033-.009h-.005zm5.511.725zm-2.56.83zm15.762 7.098l-.125.223a.07.07 0 0 1-.02.022l-.265.17a.064.064 0 0 1-.034.009h-.231l-.17.383a.063.063 0 0 1-.034.032l-.155.067-.063.113.094.028a.065.065 0 0 1 .045.051l.023.155.102.132.245-.011.016-.002.017.002.751.39.22.019h.011l.226.057h.012l.26.127.335.023.321-.108.242-.348-.059-.192-.071.056-.115.169a.067.067 0 0 1-.035.025h-.025l-.189.05-.016.002-.017-.002-.22-.057h-.012l-.164-.082-.014-.009-.146-.132a.072.072 0 0 1-.019-.034l-.043-.214-.057-.2-.17-.155a.063.063 0 0 1-.021-.047v-.008l.025-.214a.063.063 0 0 1 .019-.037l.056-.054.155-.155-.485-.256z"/><path d="M44.28 23.546zm.722-.584a.07.07 0 0 1-.02.022.08.08 0 0 0 .02-.021z"/><path d="M47.055 22.231l-.452-.108-.166.067-.142.209-.11.344a.049.049 0 0 1-.011.02l-.22.271-.172.167-.084.082-.019.155.155.155a.066.066 0 0 1 .017.029l.063.22.042.198.124.113.155.074.198.051.155-.04h.023l.107-.155.012-.014.155-.119a.065.065 0 0 1 .039-.013c.028 0 .052.018.06.044l.094.31a.06.06 0 0 1-.008.054l-.271.39a.06.06 0 0 1-.031.023l-.353.119h-.02l-.359-.025-.012.001-.012-.001-.265-.13-.215-.054-.228-.019-.012.001-.012-.001-.746-.389-.26.012h-.003a.064.064 0 0 1-.05-.025l-.132-.17a.058.058 0 0 1-.012-.029l-.02-.136-.107-.031-.465.24h-.046a.072.072 0 0 1-.019-.011l-.469-.41-.426-.31-.455-.06-.132.285a.065.065 0 0 1-.056.037l-.655.019-.013.001-.014-.001-.214-.088a.076.076 0 0 1-.025-.018l-.142-.172-.13-.064-.541.257h-.016l-.454.082-.013.001-.014-.001-.429-.104-.279.048-.285.093h-.02l-2.136-.211-.438.465a.062.062 0 0 1-.043.02l-.561.025h-.014l-.372-.062-.186.339-.056 1.239.001.009-.001.009-.101.31a.06.06 0 0 1-.02.029l-.118.095-.036.116.251.048.403-.019.441-.112h.019l.448.025a.062.062 0 0 1 .043.02l.246.265.011.015.164.347.077.067c.01.009.017.02.02.034l.037.17v.008l.025.271v.274l.062.252.173.113c.01.007.018.016.023.027l.101.24.001.008-.001.008.037.271.001.012-.001.013-.136.536.067.528.112.164.101.201.001.009-.001.01.09.579.141-.037.373-.167h.02l.183-.019h.023l.383.11.177-.033.166-.091.13-.13.043-.101.031-.194a.069.069 0 0 1 .026-.042l.107-.076a.068.068 0 0 1 .032-.011h.101l.014-.002.014.002.259.107h.012l.448.31.147.06.184-.031.22-.195a.072.072 0 0 1 .024-.014l.107-.031.012-.001.013.001.119.012c.01.001.019.004.027.009l.493.299.194.07.189.011.2-.056.24-.246a.063.063 0 0 1 .042-.019h.104c.026 0 .049.016.058.038l.121.288.133.039.104-.09.108-.192.119-.155a.058.058 0 0 1 .023-.018l.201-.095c.005-.002.011-.003.018-.003s.012.001.018.003l.189.025h.016l.379.155 1.357.025.214-.028.053-.073-.065-.09-.333-.163a.063.063 0 0 1-.029-.029l-.082-.177a.06.06 0 0 1-.006-.027c0-.017.007-.033.018-.045l.183-.183a.063.063 0 0 1 .054-.017l.901.138h.328l.094-.068.212-.194h.009l.11-.067 2.315-1.925.019-.011.31-.107.012-.001.013.001.31.019.012-.001.013.001.065.034-.011-.087-.135-.3v-.012l-.067-.31-.155-.223-.268-.074-.296-.019a.076.076 0 0 1-.033-.011l-.164-.113a.066.066 0 0 1-.025-.034l-.07-.246v-.008l-.051-.341-.002-.017.002-.017.31-.723-.177-.654-.07-.4-.144-.296-.325-.04a.079.079 0 0 1-.03-.012l-.31-.226a.058.058 0 0 1-.017-.018l-.184-.336-.221-.251-.435.023z"/><path d="M48.26 23.039l-.31-.226zm-4.798 1.07zm-.028.007zm-1.361-.776zm3.88-.305zm.483-.846l-.141.209.142-.209.164-.067-.166.067zm.636.043zm-1.296.974zm-.513 1.431l-.748-.389.746.389.012.001.012-.001-.011.001-.011-.001zm-1.331-.769zm2.776.212zm-.325.798h.02l-.012.001-.013-.001zm-2.179-.642a.062.062 0 0 0 .05.025h.003-.003a.064.064 0 0 1-.05-.025zm-7.999-1.025l-.155-.184h-.595l-.348.056-.012.001-.012-.001h-.019l-.31-.186-.297-.112a.059.059 0 0 1-.035-.034l-.125-.302-.256-.045a.068.068 0 0 1-.031-.014l-.321-.277-.011-.014-.09-.138-.119-.101a.057.057 0 0 1-.02-.032l-.048-.195-.076-.155-.31-.146-.596-.141-.239.012-2.788 1.149h-.034l-.155-.025h-.011l-.144-.053-.94.081-.393.166-.012.002a.059.059 0 0 1-.013-.002h-.435l-.791-.167-.974.248h-.048l-.381-.228-.183-.11h-.203l-.175.118-.074.208a.063.063 0 0 1-.02.028l-.155.125a.053.053 0 0 1-.021.011h-.029l-.214-.037h-.011l-.194-.071-.367.04.107.31.001.011-.001.011-.012.435a.063.063 0 0 1-.009.031l-.099.155-.017.204.057.166.081.144.238.22.22.259.277.441v.012l.073.206.155-.056h.015l.472-.037h.011l1.316.113.012-.001.012.001.177.088a.064.064 0 0 1 .035.057.068.068 0 0 1-.01.035l-.07.104-.085.355a.072.072 0 0 1-.014.026l-.076.088-.177.155-.042.064.184.112.014.011.172.183.121.039.2-.232.014-.012.125-.082a.065.065 0 0 1 .034-.01c.019 0 .037.009.048.022l.07.082c.005.006.01.013.012.021l.048.155.065.118.056.033.271.093a.06.06 0 0 1 .026.018l.135.155.155.116a.068.068 0 0 1 .017.021l.274.522.129.139.681.465.448.392.273.13.262.037a.065.065 0 0 1 .053.049l.012.064a.053.053 0 0 1 .001.013.06.06 0 0 1-.011.035l-.125.183-.009.011-.132.119-.014.009-.375.189.093.031.194-.023h.015l.189.025a.064.064 0 0 1 .039.02l.189.214a.054.054 0 0 1 .011.018l.214.537.099.073.833-.237h.012l.271-.019h.022l.296.082h.015l.252.155h.009l.259.234a.051.051 0 0 1 .015.021l.132.296c.003.007.004.014.004.022s-.002.016-.004.023l-.084.256.096.012.079-.02.5-.206h.022l.413-.012 1.518.214.217-.017.164-.068.427-.378.017-.011.403-.17.012-.001.012.001.863-.019.146-.036-.09-.582-.094-.189-.107-.142a.063.063 0 0 1-.011-.028l-.07-.554-.001-.012.001-.012.136-.536-.036-.251-.09-.214-.18-.116a.063.063 0 0 1-.026-.038l-.07-.283v-.291l-.025-.263-.033-.146-.073-.062a.051.051 0 0 1-.015-.021l-.166-.35-.226-.24-.412-.023-.438.112h-.012l-.415.019h-.016l-.328-.064a.064.064 0 0 1-.051-.062c0-.007.001-.013.003-.019l.063-.201a.072.072 0 0 1 .02-.031l.118-.096.093-.283.056-1.239-.002-.014.002-.014.214-.39a.064.064 0 0 1 .066-.032l.409.068.528-.023.404-.432zm-1.25-.04c-.031-.005-.054-.031-.054-.063s.023-.058.053-.063l.01-.001c.035 0 .063.028.063.064s-.028.064-.063.064l-.01-.001z"/><path d="M23.509 22.999l.001.011-.001.011.001-.011-.001-.011zm.75 2.095v.012l.074.206-.073-.206zm-.858-2.411zm1.265-.42l.203-.005v-.002l-.203.006zm-.271.353l-.155.125a.053.053 0 0 1-.021.011.057.057 0 0 0 .022-.011l.155-.125a.066.066 0 0 0 .02-.027.063.063 0 0 1-.02.028zm-.196.14h.009l-.01.001-.01-.001zm1.26-.154h.022l.974-.248-.976.248zm-.59-.343zm4.52.094l2.788-1.149zm-1.287.005zm7.359 1.538zm.528-.025zm-2.159-8.76l.201.124.341.053.251-.059.251-.141h.022l.31-.043.009-.001c.02 0 .038.009.05.024l.201.251a.063.063 0 0 1 .014.04l-.002.016-.105.403-.012.409a.064.064 0 0 1-.046.059l-.708.192-.601.432-.068.338.056.392.001.009-.001.01-.057.335a.063.063 0 0 1-.019.036l-.242.229-.121.352v.009l-.184.322a.055.055 0 0 1-.017.02l-.299.231-.239.238-.036.513v.008l-.001.008-.146.454a.061.061 0 0 1-.019.028l-.322.287-.05.387.167-.008h.034l.612.146h.012l.328.155a.06.06 0 0 1 .029.028l.088.177v.012l.045.181.11.095.012.014.09.138.302.26.273.048a.065.065 0 0 1 .048.037l.129.31.277.104h.009l.302.178.33-.053h.64c.02.001.037.01.05.023l.381.465 2.128.211.277-.09h.009l.296-.051.012-.001.013.001.427.104.432-.077.559-.268c.008-.004.017-.006.027-.006s.019.002.027.006l.17.082c.009.004.016.01.022.017l.141.17.187.077.602-.017.129-.279v-.31a.06.06 0 0 1 .016-.04l.166-.195-.029-.465v-.005a.06.06 0 0 1 .019-.045l.259-.252a.063.063 0 0 1 .042-.019l.31-.011.102-.29-.234-.367-.31-.362a.068.068 0 0 1-.014-.031l-.074-.451-.105-.362-.302-.166-.654-.155-.293-.011-.252.194-.273.249a.064.064 0 0 1-.105-.039l-.04-.29-.231-.13a.065.065 0 0 1-.031-.043l-.037-.208-.002-.015.002-.016.079-.243.019-.64v-.012l.146-.619a.062.062 0 0 1 .023-.035l.221-.173.138-.31a.068.068 0 0 1 .018-.023l.189-.146.142-.192-.068-.362-.155-.327-.002-.016.002-.017.031-.4-.017-.355-.118-.155-.122-.122a.067.067 0 0 1-.017-.032l-.037-.195-.029-.18-.05-.105-.09-.053a.064.064 0 0 1-.031-.054c0-.007.001-.013.003-.019l.146-.454a.064.064 0 0 1 .011-.02l.273-.341-.113-.163-.155-.139c-.005-.005-.01-.01-.014-.017l-.31-.537-.415-.113a.063.063 0 0 1-.034-.023l-.195-.265a.056.056 0 0 1-.009-.017l-.113-.322-.271.077h-.014l-.889.043-.387.184-.115.127-.231.319-.009.011-.138.119a.06.06 0 0 1-.029.014l-.17.031a.064.064 0 0 1-.039 0l-.183-.088-.012-.008-.02-.017-.046.528a.063.063 0 0 1-.026.045l-.486.352-.201.359a.059.059 0 0 1-.028.026l-.177.082h-.022l-1.285.105-.678.55zm-.04-.025zm-1.549 5.989z"/><path d="M33.37 18.899l.177-.328zm7.286-2.543l-.002-.016.002-.017-.002.016.002.017zm-.29-1.295zm.505 4.67zm-6.402-5.193zm5.205 9.015l-.427-.104-.012-.001-.013.001.012-.001.013.001zm2.298-.295zm-.731.297zm-5.8-.648zm-3.017-1.841z"/></svg>