<svg xmlns="http://www.w3.org/2000/svg" width="45" height="32" viewBox="0 0 45 32"><title>multi-languages</title><path d="M45.065 14.665a3 3 0 0 0-2.778-2.792l-.009-.001h-.398a3.005 3.005 0 0 0-2.792 2.783l-.001.009v.388a3 3 0 0 0 1.343 2.304l.011.007-.554 1.573 1.53-1.136c.132.03.288.053.448.063h.407a2.994 2.994 0 0 0 2.792-2.803v-.396zm-4.108-2.142c-.205.269-.37.582-.479.92l-.006.022h-.583a2.62 2.62 0 0 1 1.053-.94l.015-.007zm-1.277 1.345h.704a4.556 4.556 0 0 0-.082.792v.005h-.816c.024-.294.093-.566.201-.818l-.006.017zm-.195 1.185h.816c.011.29.046.565.103.832l-.006-.031h-.719a2.543 2.543 0 0 1-.194-.792l-.001-.009zm.399 1.2h.597c.115.36.281.673.491.95l-.006-.008a2.62 2.62 0 0 1-1.072-.923l-.006-.01zm1.991 1.17a1.688 1.688 0 0 1-.969-1.159l-.002-.011h.971zm0-1.574h-1.088a4.229 4.229 0 0 1-.106-.787v-.009h1.195zm0-1.199H40.68c.013-.286.052-.556.113-.817l-.006.03h1.093zm0-1.199h-.971c.123-.529.483-.955.96-1.166l.011-.004zm2.389 0h-.597a3.133 3.133 0 0 0-.491-.95l.006.008c.45.216.818.543 1.077.946l.006.01zm-1.991-1.171c.488.215.848.641.969 1.159l.002.011h-.971zm0 1.574h1.093c.054.236.09.511.102.792v.009h-1.195zm0 1.199h1.195c-.011.29-.047.565-.108.831l.006-.03h-1.093zm0 2.37v-1.161h.971a1.688 1.688 0 0 1-.96 1.166l-.011.004zm.922-.228c.203-.269.369-.582.479-.919l.006-.023h.597a2.619 2.619 0 0 1-1.048.945l-.015.007zm1.277-1.346h-.699c.052-.236.086-.511.097-.793v-.009h.801a2.6 2.6 0 0 1-.206.833l.007-.017zm-.602-1.184a4.84 4.84 0 0 0-.103-.832l.006.031h.704c.101.235.17.507.194.792l.001.009zm-41.648.631c.118-.007.228-.023.334-.046l-.014.003 1.068.772-.384-1.068c.535-.353.895-.934.942-1.601v-.284a2.09 2.09 0 0 0-1.936-1.942h-.293a2.09 2.09 0 0 0-1.942 1.936v.284a2.084 2.084 0 0 0 1.936 1.942h.283zm.641-.457c.14-.187.252-.405.326-.64l.004-.015h.418a1.821 1.821 0 0 1-.737.651l-.011.005zm.888-.937h-.486c.036-.164.06-.356.068-.552v-.006h.549a1.797 1.797 0 0 1-.131.575l.004-.012zm.131-.83h-.549a3.381 3.381 0 0 0-.072-.58l.004.022h.486c.069.164.116.354.131.553v.006zm-.271-.835h-.418a2.162 2.162 0 0 0-.33-.662l.004.006c.308.149.56.373.739.649l.004.007zm-1.389-.816c.345.147.601.444.688.808l.002.008h-.69zm0 1.097h.762c.039.164.065.356.073.552v.006h-.835zm0 .836h.835a3.085 3.085 0 0 1-.077.579l.004-.021h-.762zm0 .835h.69c-.086.37-.339.667-.672.813l-.008.003zm-.282-.282h-.753a2.961 2.961 0 0 1-.073-.552v-.006h.826zm0-.835h-.825a3.27 3.27 0 0 1 .077-.58l-.004.022h.753zm0-1.651v.816h-.675c.085-.369.336-.666.667-.813l.007-.003zm-.641.16c-.14.187-.252.405-.326.64l-.004.015H.561c.183-.284.434-.51.732-.656l.011-.005zm-.884.933h.486c-.036.164-.06.356-.068.552v.006H.279a1.82 1.82 0 0 1 .14-.57l-.005.012zm-.136.835h.554c.008.202.032.394.072.58l-.004-.022H.415a1.782 1.782 0 0 1-.136-.552v-.006zm.277.835h.413c.079.25.191.468.334.662l-.004-.006a1.832 1.832 0 0 1-.734-.648l-.004-.007zm.704 0h.68V15a1.173 1.173 0 0 1-.673-.808l-.002-.008zm24.289-5.487l-.869 2.428 2.428-1.792c.209.049.457.085.71.101l.014.001h.626a4.728 4.728 0 0 0 4.403-4.39l.001-.015v-.612A4.734 4.734 0 0 0 28.462 0l-.014-.001h-.631a4.742 4.742 0 0 0-4.403 4.404l-.001.014v.626a4.734 4.734 0 0 0 2.119 3.641l.018.011zm4.37-.262c.315-.427.57-.922.738-1.455l.01-.036h.942a4.132 4.132 0 0 1-1.684 1.475l-.025.011zm2.001-2.122h-1.107c.082-.371.138-.805.155-1.248v-.014h1.253a4.101 4.101 0 0 1-.311 1.289l.01-.027zm.301-1.889h-1.253a7.677 7.677 0 0 0-.164-1.312l.009.05h1.107c.157.369.265.796.3 1.243l.001.014zM31.59 2.53h-.942a4.945 4.945 0 0 0-.757-1.504l.009.013a4.132 4.132 0 0 1 1.68 1.47l.01.016zM28.448.67c.651.17 1.209.869 1.549 1.85h-1.549zm0 2.481h1.724c.086.37.145.804.165 1.247l.001.016h-1.889zm0 1.889h1.889a7.073 7.073 0 0 1-.174 1.31l.009-.047h-1.724zm0 1.894h1.549c-.34.971-.898 1.68-1.549 1.85zm-3.773 0h.942c.176.569.431 1.065.757 1.504l-.009-.013a4.132 4.132 0 0 1-1.68-1.47l-.01-.016zm3.142 1.85c-.651-.17-1.209-.869-1.549-1.85h1.549zm0-2.481h-1.724a6.803 6.803 0 0 1-.165-1.249V5.04h1.889zm0-1.889h-1.889c.018-.458.078-.891.174-1.31l-.009.047h1.724zm0-3.744v1.855h-1.544c.34-.986.918-1.68 1.544-1.855zm-1.457.359a4.88 4.88 0 0 0-.729 1.461l-.009.035h-.947a4.13 4.13 0 0 1 1.665-1.48l.024-.011zm-2.015 2.127h1.107a7.188 7.188 0 0 0-.155 1.248v.014h-1.253c.036-.463.143-.892.311-1.289l-.01.027zm.971 1.889c.018.458.073.891.164 1.312l-.009-.05h-1.127a4 4 0 0 1-.3-1.248l-.001-.014zM38.048 24.43l-.66-.35.486-.534a4.191 4.191 0 1 0-6.088.002l-.002-.002.486.529-.636.354a6.638 6.638 0 0 0-1.856 1.534l-.008.01-.578.694-.369-.826a7.887 7.887 0 0 0-3.45-3.704l-.042-.02-.738-.388.631-.539a5.38 5.38 0 1 0-6.989-.006l.007.006.694.549-.738.388a7.874 7.874 0 0 0-3.471 3.675l-.02.049-.369.826-.592-.699a6.647 6.647 0 0 0-1.832-1.527l-.033-.017-.636-.354.486-.529a4.191 4.191 0 1 0-6.088.002l-.002-.002.486.534-.641.35c-2.052 1.136-3.42 3.284-3.428 5.753v1.191a.627.627 0 0 0 .626.622H40.89c.346 0 .626-.28.626-.626V30.19a6.58 6.58 0 0 0-3.433-5.742l-.034-.017zM5.762 20.676a2.943 2.943 0 1 1 2.943 2.943 2.948 2.948 0 0 1-2.943-2.942zm8.255 10.076H3.305v-.563a5.36 5.36 0 1 1 10.722 0zm3.627-13.645a4.132 4.132 0 1 1 4.132 4.132 4.138 4.138 0 0 1-4.123-4.132zm10.639 13.645H15.274v-1.753a6.509 6.509 0 1 1 13.018 0zm3.627-10.076a2.943 2.943 0 1 1 2.943 2.943 2.948 2.948 0 0 1-2.933-2.942zm8.352 10.076H29.54v-.563a5.36 5.36 0 1 1 10.722 0z"/></svg>