<svg xmlns="http://www.w3.org/2000/svg" width="32" height="32" viewBox="0 0 32 32"><title>odniklassniki</title><path d="M16 32C7.163 32 0 24.837 0 16S7.163 0 16 0s16 7.163 16 16-7.163 16-16 16zM16 .78C7.595.78.78 7.594.78 16S7.594 31.22 16 31.22c8.405 0 15.22-6.814 15.22-15.22C31.22 7.595 24.406.78 16 .78z"/><path d="M15.22 19.188l-.761-.121a5.412 5.412 0 0 1-2.757-1.3l.005.005a.878.878 0 0 1-.334-.998l-.002.006a.955.955 0 0 1 .807-.729h.005a1.082 1.082 0 0 1 .664.159l-.005-.003c.39.211.753.449 1.171.62a5.054 5.054 0 0 0 2.007.408c.32 0 .632-.029.936-.085l-.032.005a5.483 5.483 0 0 0 2.214-.921l-.017.012c.159-.117.358-.187.574-.187s.415.07.576.189l-.003-.002a.96.96 0 0 1 .279 1.262l.002-.005a2.965 2.965 0 0 1-.547.533l-.008.005a5.707 5.707 0 0 1-2.87 1.079l-.022.002-.265.039-.027.027c.074.078.144.16.222.238l2.587 2.595c.164.144.284.334.338.551l.002.007a1.046 1.046 0 0 1-.808 1.169l-.007.001a.839.839 0 0 1-.781-.227c-.636-.624-1.261-1.257-1.889-1.885-.098-.098-.199-.199-.3-.293s-.199-.109-.308 0c-.308.304-.613.613-.921.921l-1.171 1.171a.87.87 0 0 1-.985.268l.006.002a1.049 1.049 0 0 1-.714-.893v-.004a.809.809 0 0 1 .238-.675 95.725 95.725 0 0 1 1.561-1.561l1.276-1.288z"/><path d="M15.969 16.094a3.941 3.941 0 1 1 3.964-3.941v.041-.002a3.949 3.949 0 0 1-3.949 3.902h-.017.001zm-1.893-3.926A1.924 1.924 0 1 0 16 10.217h-.008a1.92 1.92 0 0 0-1.916 1.92v.033-.002z"/></svg>