<svg xmlns="http://www.w3.org/2000/svg" width="32" height="32" viewBox="0 0 32 32"><title>phone-call</title><path d="M31.978 26.338a2.457 2.457 0 0 0-1.218-1.819l-7.895-4.545a2.476 2.476 0 0 0-2.983.395l-1.555 1.555a1.14 1.14 0 0 1-1.522.085c-1.226-.986-2.433-2.072-3.587-3.227s-2.24-2.361-3.227-3.587a1.14 1.14 0 0 1 .085-1.522l1.555-1.555a2.479 2.479 0 0 0 .395-2.983L7.481 1.24C7.094.568 6.431.124 5.662.022S4.137.177 3.589.725L1.246 3.068c-1.635 1.635-1.662 4.627-.074 8.423 1.527 3.65 4.375 7.669 8.022 11.315s7.665 6.495 11.315 8.022c1.869.781 3.542 1.172 4.955 1.172 1.457 0 2.638-.416 3.468-1.246l2.343-2.343a2.455 2.455 0 0 0 .703-2.073zm-9.629-5.466l7.895 4.545c.39.225.648.61.707 1.056.05.375-.048.744-.268 1.041l-10.492-5.988.426-.426a1.44 1.44 0 0 1 1.732-.229zM5.526 1.05c.447.059.832.317 1.056.707l4.545 7.895a1.439 1.439 0 0 1-.229 1.732l-.391.391L4.486 1.318a1.419 1.419 0 0 1 1.039-.268zm22.673 28.971c-1.299 1.299-3.956 1.245-7.29-.149-3.529-1.476-7.429-4.245-10.982-7.798s-6.323-7.453-7.798-10.982C.735 7.758.68 5.101 1.98 3.802l1.739-1.739 6.03 10.473-.404.404a2.175 2.175 0 0 0-.16 2.906c1.01 1.255 2.12 2.49 3.301 3.67s2.416 2.291 3.671 3.301a2.175 2.175 0 0 0 2.906-.16l.369-.369 10.506 5.996-1.738 1.738z"/></svg>