<svg xmlns="http://www.w3.org/2000/svg" width="32" height="32" viewBox="0 0 32 32"><title>piggy-bank</title><path d="M31.771 18.718v-3.657a2.246 2.246 0 0 0-2.246-2.246h-.549a13.133 13.133 0 0 0-3.814-5.297l-.021-.017c0-.009 0-.009-.008-.017-.262-.922-.068-1.91.574-2.931a1.626 1.626 0 0 0-.013-1.772l.004.006a1.646 1.646 0 0 0-1.604-.757l.008-.001c-2.44.303-3.894 1.419-4.739 2.449a15.446 15.446 0 0 0-2.42-.49l-.081-.008-.04-.001a.765.765 0 0 0-.151 1.515l.005.001a15.01 15.01 0 0 1 2.851.621l-.106-.03a.768.768 0 0 0 .868-.3l.002-.003c.584-.87 1.757-1.97 3.995-2.239l.018-.001c.041 0 .078.02.1.051a.109.109 0 0 1-.001.128c-.87 1.385-1.123 2.83-.744 4.165 0 .009.009.017.009.033a.775.775 0 0 0 .285.573l.001.001a11.463 11.463 0 0 1 3.726 5.234l.024.08a.76.76 0 0 0 .721.524h1.098c.396 0 .717.321.717.717v3.67a.717.717 0 0 1-.717.717h-1.03a.771.771 0 0 0-.734.536l-.002.005c-.482 1.563-2.568 4.189-3.378 5.137l-.186.161a5.62 5.62 0 0 0-1.907 3.895l-.001.015v1.225a.035.035 0 0 1-.033.033h-4.885a.035.035 0 0 1-.033-.033v-1.158a.76.76 0 0 0-.252-.565l-.001-.001a.793.793 0 0 0-.594-.194h.003a16.033 16.033 0 0 1-3.774-.06l.082.009a.759.759 0 0 0-.607.185l.001-.001a.757.757 0 0 0-.262.573v1.214a.035.035 0 0 1-.033.033H7.004a.035.035 0 0 1-.033-.033v-.403c-.042-.878-.321-3.109-2.052-4.891a12.045 12.045 0 0 1-2.191-3.295l-.031-.076c-.008-.008-.008-.017-.017-.026a10.136 10.136 0 0 1-.845-2.23l-.015-.072c0-.008 0-.017-.008-.017l-.009-.026c0-.009-.008-.017-.008-.026-.303-1.022-.271-2.307-.271-2.323v-.026c.001-.594.054-1.175.153-1.74l-.009.061a.762.762 0 0 0-1.502-.258l-.001.005a10.955 10.955 0 0 0-.164 1.913v.012-.001c0 .161-.026 1.572.338 2.787l.009.017c.246.996.582 1.868 1.01 2.684l-.031-.065c.709 1.529 1.555 2.805 2.508 3.789 1.364 1.402 1.588 3.168 1.622 3.877v.455a1.575 1.575 0 0 0 1.562 1.461h4.898c.869 0 1.573-.704 1.573-1.573v-.355c.423.038.914.06 1.411.06.33 0 .657-.01.982-.028l-.045.002v.321a1.574 1.574 0 0 0 1.572 1.572h4.891a1.574 1.574 0 0 0 1.572-1.572v-1.199c.008-.286.118-1.638 1.394-2.796l.22-.185.076-.076c.118-.135 2.602-3 3.522-5.187h.49a2.274 2.274 0 0 0 2.205-2.264z"/><path d="M.044 6.808A6.808 6.808 0 1 0 6.852 0 6.82 6.82 0 0 0 .044 6.808v.001zm12.087 0a5.28 5.28 0 1 1-5.279-5.28 5.28 5.28 0 0 1 5.274 5.281z"/></svg>