<svg xmlns="http://www.w3.org/2000/svg" width="32" height="32" viewBox="0 0 32 32"><title>post-it</title><path d="M24.236 27.488a.667.667 0 0 0-.727.601L23.4 29.26l-7.324-.836a.67.67 0 0 0-.739.587.665.665 0 0 0 .587.737l8 .915a.665.665 0 0 0 .74-.6l.173-1.848a.668.668 0 0 0-.601-.727zm-8.157-20.66L3.413 5.337a.659.659 0 0 0-.741.58L.005 27.25a.67.67 0 0 0 .587.746l7.16.819a.667.667 0 0 0 .151-1.324l-6.49-.743L3.914 6.739l12.009 1.413a.653.653 0 0 0 .74-.584.667.667 0 0 0-.584-.74zm7.059-.632a.668.668 0 0 0-.943 0l-3.333 3.333a.668.668 0 0 0 .943.943l3.333-3.333a.668.668 0 0 0 0-.943z"/><path d="M31.995 27.252L29.328 5.919a.67.67 0 0 0-.74-.58l-1.837.216a.667.667 0 1 0 .156 1.324l1.18-.139 2.501 20.006-21.987 2.513L6.725 9.251l16.284-1.915a.665.665 0 0 0 .584-.74.664.664 0 0 0-.74-.584L5.923 8.004a.665.665 0 0 0-.585.724l2 21.333a.669.669 0 0 0 .739.601l23.333-2.667a.667.667 0 0 0 .587-.746z"/><path d="M24.667 1.334c-1.839 0-3.333 1.496-3.333 3.333S22.829 8 24.667 8 28 6.504 28 4.667s-1.495-3.333-3.333-3.333zm0 5.333c-1.103 0-2-.897-2-2s.897-2 2-2 2 .897 2 2-.897 2-2 2z"/></svg>