<svg xmlns="http://www.w3.org/2000/svg" width="41" height="32" viewBox="0 0 41 32"><title>registration</title><path d="M4.466 16.869h5.289a.478.478 0 1 0 0-.956H4.466a.48.48 0 0 0 0 .96zm23.551-.956H12.403a.48.48 0 0 0 0 .96h15.614a.478.478 0 1 0 0-.956zm-14.958 2.644H4.466a.48.48 0 0 0 0 .96h8.593a.478.478 0 1 0 0-.956zm13.123 0H15.685a.48.48 0 0 0 0 .96h10.497a.478.478 0 1 0 0-.956zM4.711 11.46h.762l.777-2.294c.073-.223.146-.46.219-.711s.157-.576.223-.901v-.029h.08v.029c.066.317.142.609.223.901.066.23.135.456.208.7l.729 2.301h.751l1.546-4.803h-.777l-.511 1.802-.186.624a12.98 12.98 0 0 0-.351 1.49l-.013.089v.033H8.3v-.029a19.497 19.497 0 0 0-.434-1.59l-.204-.613-.558-1.802h-.689l-.576 1.802-.212.66c-.157.514-.321 1.043-.434 1.539v.029h-.084v-.033c-.091-.5-.223-1.007-.365-1.543l-.171-.66-.467-1.802h-.843l.543 1.802zm7.542 0h.751l.777-2.294c.073-.223.146-.46.219-.711s.157-.576.223-.901v-.029h.08v.029c.066.317.142.609.223.901.066.23.135.456.208.7l.729 2.301h.751l1.546-4.803h-.766l-.511 1.802-.175.62a13.18 13.18 0 0 0-.352 1.49l-.013.089v.033h-.091v-.029a19.068 19.068 0 0 0-.434-1.59l-.19-.613-.558-1.802h-.715l-.576 1.802-.212.664c-.157.514-.321 1.043-.434 1.539v.029h-.091v-.033c-.091-.5-.223-1.007-.365-1.543l-.171-.66-.467-1.802h-.835l.543 1.802zm7.543 0h.751l.777-2.294c.073-.223.146-.46.219-.711s.157-.576.223-.901v-.029h.08v.029c.066.317.142.609.223.901.066.23.135.456.208.7l.729 2.301h.777l1.546-4.803h-.791l-.511 1.802-.175.62a13.18 13.18 0 0 0-.352 1.49l-.013.089v.033h-.091v-.029a19.068 19.068 0 0 0-.434-1.59l-.19-.613-.558-1.802h-.715l-.576 1.802-.212.664c-.157.514-.321 1.043-.434 1.539v.029h-.091v-.033c-.091-.5-.223-1.007-.365-1.543l-.171-.66-.467-1.802h-.835l.543 1.802zm5.806-.496h.58v.58h-.58v-.58z"/><path d="M35.541 18.058l-.117-.018V2.51A2.508 2.508 0 0 0 32.919.001H2.512A2.509 2.509 0 0 0 .003 2.51v21.154a2.509 2.509 0 0 0 2.509 2.509h25.027l.022.113C28.195 29.561 31.039 32 34.453 32a7.014 7.014 0 0 0 1.129-13.937l-.04-.005zM1.053 2.509c0-.806.653-1.459 1.459-1.459h30.407c.806 0 1.459.653 1.459 1.459v.795H1.053zm26.38 22.467v.139H2.497a1.459 1.459 0 0 1-1.459-1.459V4.355h33.34V17.97h-.131a7.064 7.064 0 0 0-6.813 7.004v.003zm7.014 6.201a6.2 6.2 0 0 1-6.2-6.2v-.036a6.167 6.167 0 0 1 5.972-6.164h.09a5.129 5.129 0 0 1 1.302.108l-.033-.006c2.863.587 4.987 3.086 4.987 6.08a6.2 6.2 0 0 1-6.124 6.2h-.004z"/><path d="M38.528 22.515a.546.546 0 0 0-.774 0l-4.446 4.446-2.342-2.342a.543.543 0 0 0-.93.364v.001l-.001.027c0 .149.06.283.158.381l3.104 3.104 5.219-5.219a.546.546 0 0 0 .011-.763z"/></svg>