<svg xmlns="http://www.w3.org/2000/svg" width="28" height="32" viewBox="0 0 28 32"><title>shield</title><path d="M27.927 6.819c0-1.25-.754-2.096-2.016-2.262-.24-.033-.486-.06-.725-.086-.712-.086-1.384-.16-2.03-.302-2.52-.55-4.961-1.681-7.664-3.566C15.04.291 14.554 0 13.975 0s-1.065.286-1.508.593C8.848 3.075 5.601 4.339 2.235 4.552.777 4.644.008 5.47.008 6.938v2.65c0 2.441 0 4.963.024 7.454.014 1.019.139 2.002.364 2.946l-.018-.091c.519 2.276 1.703 4.325 3.619 6.26 2.389 2.413 5.382 4.278 9.148 5.694.241.094.519.149.81.151h.001c.361 0 .704-.076 1.014-.213l-.016.006c.207-.093.419-.179.626-.265h.02c.905-.392 1.849-.799 2.767-1.277 3.06-1.617 5.376-3.526 7.079-5.842 1.531-2.077 2.322-4.165 2.413-6.386.02-.425.033-.878.039-1.39l.033-4.112v-5.7zm-1.597 5.609v.047l-.033 4.124c0 .492-.02.924-.033 1.338-.08 1.896-.772 3.699-2.111 5.509-1.556 2.111-3.699 3.873-6.54 5.375-.858.452-1.769.845-2.654 1.225h-.02l-.632.273a.896.896 0 0 1-.357.072h-.012a.75.75 0 0 1-.248-.042l.005.002c-3.544-1.329-6.352-3.072-8.573-5.316-1.691-1.724-2.734-3.52-3.186-5.495a11.222 11.222 0 0 1-.302-2.51v-.006c-.027-2.475-.02-4.996-.02-7.431V6.948c0-.302.047-.532.14-.626s.293-.151.591-.173c3.66-.238 7.163-1.583 11.025-4.244.302-.207.499-.302.603-.302s.302.107.603.312c2.885 2.007 5.507 3.223 8.241 3.817.597.13 1.343.245 2.102.319l.086.007c.24.027.472.053.712.087.466.06.618.226.618.671v4.011z"/><path d="M15.088 15.181h-2.236l-.05.001a1.644 1.644 0 1 1 .052-3.287h-.003 3.921a.799.799 0 1 0 0-1.598h-2.004V8.768a.798.798 0 1 0-1.598 0v1.529h-.314a3.242 3.242 0 0 0 0 6.484h2.23l.05-.001a1.644 1.644 0 1 1 0 3.288l-.052-.001h.003-3.999a.8.8 0 0 0 0 1.598h2.083v1.558a.799.799 0 1 0 1.598 0v-1.561h.359a3.242 3.242 0 0 0-.023-6.484h-.025.001z"/></svg>