<svg xmlns="http://www.w3.org/2000/svg" width="31" height="32" viewBox="0 0 31 32"><title>support</title><path d="M24.745 5.344l-.025-.001a.598.598 0 0 0-.598.588v1.377a.753.753 0 1 1-1.506 0V5.932a.615.615 0 1 0-1.23 0v1.361c0 1.09.884 1.974 1.974 1.974h.02c.197 0 .387-.031.566-.089l-.013.004.171-.06v1.507a.615.615 0 1 0 1.23 0V5.933a.588.588 0 0 0-.588-.588zM19.23 8.83l.065-.075c.412-.334.674-.841.674-1.408l-.001-.061v.003a1.974 1.974 0 0 0-3.942-.004v.005a.615.615 0 1 0 1.23 0 .753.753 0 1 1 1.506 0c0 .281-.03.311-.321.608l-.136.141-2.135 2.23a.602.602 0 0 0-.126.368v.004c0 .087.018.17.052.245l-.002-.004c.022.054.047.1.077.143l-.002-.003.085.075a.603.603 0 0 0 .177.109l.004.001a.568.568 0 0 0 .19.04h2.673a.615.615 0 1 0 0-1.23h-1.205l1.085-1.14zm-9.171-1.798c-4.127 2.039-6.916 6.219-6.916 11.05v2.406h-.964a.96.96 0 0 1-.934-.959v-3.375a.94.94 0 0 1 .646-.882l.007-.002a.618.618 0 1 0-.381-1.174l.004-.001a2.16 2.16 0 0 0-1.507 2.054v3.375a2.206 2.206 0 0 0 2.163 2.19h1.549a.673.673 0 0 0 .648-.615v-3.077c0-4.337 2.508-8.088 6.154-9.881l.065-.029a.613.613 0 0 0 .275-.827l.002.003a.624.624 0 0 0-.812-.254l.004-.002z"/><path d="M29.301 14.094a.618.618 0 0 0-.386 1.169l.004.002a.926.926 0 0 1 .633.877v3.382l.001.035a.93.93 0 0 1-.909.929h-1.156l.025-.146c.127-.673.2-1.448.201-2.239v-.018a12.25 12.25 0 0 0-.797-4.361l.028.084-.025-.07.05-.055a8.242 8.242 0 0 0 1.996-5.394c0-4.577-3.71-8.288-8.288-8.288s-8.288 3.71-8.288 8.288a8.288 8.288 0 0 0 8.288 8.288h.014-.001.031a8.157 8.157 0 0 0 5.119-1.796l-.016.013.146-.116.055.176c.299.957.472 2.058.472 3.199 0 4.943-3.237 9.13-7.706 10.557l-.078.022-.116.05-.05-.085a2.293 2.293 0 0 0-1.937-1.115h-2.397a2.26 2.26 0 0 0 0 4.52h2.435c1.169 0 2.13-.894 2.235-2.035l.001-.009v-.085h.08c3.904-1.193 6.932-4.166 8.177-7.949l.025-.087.03-.085h1.447a2.16 2.16 0 0 0 2.125-2.16v-.032.002-3.43c0-.942-.607-1.742-1.452-2.03l-.015-.004zm-12.672 16.68h-2.416a1.03 1.03 0 1 1 0-2.06h2.416c.49.009.897.353 1.003.812l.001.007v.04a.885.885 0 0 1 0 .19v-.004.01c0 .555-.45 1.005-1.005 1.005zm4.063-15.434c-3.884 0-7.032-3.148-7.032-7.032s3.148-7.032 7.032-7.032a7.032 7.032 0 0 1 7.032 7.032 7.062 7.062 0 0 1-7.03 7.032h-.002z"/></svg>