<svg xmlns="http://www.w3.org/2000/svg" viewBox="0 0 1990.33 403.27"><defs><style>.cls-1{fill:#fff;}</style></defs><title>logo tbc bank</title><g id="Layer_2" data-name="Layer 2"><g id="Layer_1-2" data-name="Layer 1"><path class="cls-1" d="M9.54,389.29c-7.24.12-10.69-4-9.2-11.21,1.17-5.61,3.83-10.64,6.66-15.54q33.91-58.83,67.88-117.61,46.18-80,92.38-160,21.62-37.39,43.46-74.64C212.24,7.72,214,3,216.84,4.11c3.26,1.25.89,5.71.32,8.6-3.45,17.45-6.27,35-8.19,52.69-2.86,26.38-3.19,52.81-2.91,79.28a558.39,558.39,0,0,0,7,84.93c3.45,20.95-5.31,36.22-20,49.76C143.51,325.26,85.85,358.3,24.38,385.3,19.68,387.37,14.86,389.33,9.54,389.29Z"/><path class="cls-1" d="M227.35,400.94q-94.2,0-188.41,0c-5.14,0-10.29-.46-15.43-.8-2-.13-4.54-.16-5.09-2.34-.66-2.61,2-3.58,3.83-4.55,7.06-3.82,14.84-5.87,22.31-8.66,30.82-11.53,59.93-26.48,88.13-43.33a697.44,697.44,0,0,0,76.72-53.11c13.9-11.07,28.82-13.27,45.48-8.65,27.52,7.63,53.79,18.38,79.36,31a666,666,0,0,1,97.48,59.46,76.44,76.44,0,0,1,13.45,11.87c6.63,7.79,4.31,15-5.59,17.37-7,1.65-14.21,1.68-21.33,1.69Q322.8,401,227.35,400.94Z"/><path class="cls-1" d="M232.39,0c3.62.33,5.88,2.3,7.94,4.52,7.12,7.67,11.36,17.19,16.53,26.09q48,82.73,95.68,165.61Q401.49,281,450.43,365.77c1.24,2.16,2.21,4.47,3.24,6.75.48,1.05,1,2.33,0,3.23s-2.23.13-3.21-.46c-6.47-3.85-12.16-8.76-17.9-13.56C399.78,334.34,363.79,312,326,292.35a675.14,675.14,0,0,0-65.39-29.82c-16.11-6.3-25.71-17.44-29.83-34.09a485.12,485.12,0,0,1-11.58-66.76,530,530,0,0,1-2.73-60.3c.31-28.1,1.59-56.19,5.61-84.07A35.42,35.42,0,0,1,226,4.5,8.28,8.28,0,0,1,232.39,0Z"/><path class="cls-1" d="M679.8,128.71c-.29,12.54.55,27.71-.55,42.85A48.5,48.5,0,0,1,673,192.41c-4.14,7.22-11.61,10.3-19.64,8.35-4.12-1-6.07-4.67-3.42-8.5,7.55-10.89,7.55-23.07,7.45-35.48-.18-23.66,0-47.32-.1-71a16.92,16.92,0,0,0-18.74-16.85c-7.18.71-13.23,8.07-14.27,17.65a104,104,0,0,0-.43,11c0,18.33-.3,36.66.08,55,.39,18.69-7.8,32.17-23.47,41.65-22.79,13.79-55.69,4.24-67.48-19.64a37.28,37.28,0,0,1-3.76-16.89c.05-20,.67-40-.15-60-.91-22.33,14.91-38.51,32-44.64s32.48-2.23,46.18,9c3.05,2.5,4.59,2.51,7.23-.33,19.83-21.27,53.86-11.28,63.69,15.1,1.65,4.44,1.58,9.18,1.63,13.82C679.89,102.44,679.8,114.27,679.8,128.71Zm-78.5-3.34h0c0-10.66.17-21.33,0-32C601,79.49,590.39,69,576.85,68.83c-12.83-.16-25.32,11.51-25.49,24.58-.29,21.49-.32,43,0,64.49.22,14,11.83,24.51,25.83,24.29,13.31-.21,23.92-11.07,24.07-24.83C601.4,146.7,601.3,136,601.3,125.36Z"/><path class="cls-1" d="M1694.15,284c-1.35,2.28-.85,4-.85,5.55q-.05,50.75,0,101.49c0,7.67-2.35,9.94-10.22,9.93-8.28,0-10.71-2.27-10.71-10.08q0-65.25,0-130.49c0-7.84,2.25-10.09,10.1-10.15,2.5,0,5,.07,7.5,0,4.09-.12,6.86,1.75,8.93,5.23q30.89,51.95,61.88,103.84a15.1,15.1,0,0,0,4.32,5q0-2.62,0-5.24,0-49.5,0-99c0-8,2.11-9.89,10.72-9.87,7.85,0,10.23,2.32,10.24,10q0,65.5,0,131c0,6.93-2.4,9.06-9.12,9.76-8.6.89-14-2-18.55-9.87-20-34.39-40.73-68.38-61.2-102.51C1696.32,287.23,1695.39,285.87,1694.15,284Z"/><path class="cls-1" d="M1254.17,326.08q0-32.24,0-64.49c0-7.07,1.34-9,8.32-10,17.51-2.4,35.07-3.87,52.53.51,16.48,4.13,27.74,16,29.38,31.95,1.47,14.28-4,25.77-16.3,33.5-3.14,2-3.52,2.64,0,4.61,15.16,8.47,23.38,21.3,21.77,38.92s-11.46,29.5-28,35.49c-16.95,6.15-34.6,6-52.29,4.92-.5,0-1-.19-1.48-.24-14-1.42-14-1.42-14-15.2Q1254.18,356.07,1254.17,326.08Zm22.12,31c0,7.48.07,15,0,22.44,0,2.59.72,4.2,3.52,4.29,9.3.29,18.6.76,27.71-1.86,11.69-3.36,18.89-11.81,19.49-23.05.64-11.94-5.28-20.81-16.81-25.48-10.2-4.13-20.88-3.21-31.48-3.24-2.93,0-2.35,2.24-2.36,4C1276.28,341.81,1276.3,349.45,1276.29,357.1Zm0-66.52h0q0,9.25,0,18.5c0,1.92,0,3.81,2.67,3.86,9.83.17,19.73.56,29.1-3.14s14.38-11.58,14-21.46c-.38-9.33-5.7-15.79-15.6-19.05-8.43-2.77-17.09-2.27-25.73-1.91-3.23.14-4.61,1.82-4.49,5.21C1276.44,278.57,1276.29,284.58,1276.29,290.58Z"/><path class="cls-1" d="M742.17,326.36q0-32.24,0-64.49c0-7.2,1.59-9.43,8.64-10.35,17.35-2.25,34.75-3.81,52,.53,16.77,4.21,27.75,15.69,29.54,31.79,1.61,14.54-4.07,26-16.51,33.87-3,1.88-3.19,2.6,0,4.36,15.3,8.34,23.51,21.14,22,38.76-1.48,17.86-11.53,29.79-28.22,35.85s-34.31,5.83-51.83,4.89c-2-.11-4-.38-6-.5-7.44-.47-9.78-2.83-9.79-10.23Q742.14,358.6,742.17,326.36Zm22.12,30.3c0,7.48.13,15-.06,22.44-.09,3.47,1.26,4.83,4.63,4.79,5.15-.06,10.33.43,15.45,0,9.58-.78,18.92-2.8,25.39-10.77,11.77-14.49,4.46-35.08-14.22-40.75-9.26-2.81-18.74-2.13-28.19-2.21-3,0-3,1.93-3,4Q764.33,345.44,764.29,356.66Zm13.4-89.48c-2.91.2-6.57-.17-10.2.6-2.14.46-3.21,1.37-3.2,3.62q.06,19.2,0,38.4c0,2,.74,3.15,2.9,3.16,9.46,0,19,.56,28.07-2.89,9.78-3.7,15-11.17,14.86-21.28-.16-9.51-5.5-16.3-15.51-19.61A46.05,46.05,0,0,0,777.69,267.18Z"/><path class="cls-1" d="M1909.21,315.75q11.06-13.45,22.11-26.89c9-10.95,17.87-21.94,26.87-32.86a16,16,0,0,1,12.28-5.77c3-.11,6-.05,9,0,2.34,0,4.94-.06,6.12,2.42,1.1,2.31-.61,4.14-2,5.78q-9.45,11.3-19,22.49c-8.77,10.24-17.47,20.53-26.47,30.57-2.47,2.76-1.47,4.54.13,6.91q24.17,35.79,48.25,71.64a42.44,42.44,0,0,1,2.46,3.76c2.09,4,.86,6.54-3.59,7-10.25,1.1-18.73-.18-25-10.64-11.68-19.36-24.92-37.78-37.37-56.69-2.09-3.17-2.84-3.27-6-.53-7.62,6.7-9.81,14.57-9.17,24.39.72,11.12.21,22.31.15,33.48,0,8-2.64,10.17-11.81,10.13-8.24,0-10.68-2.32-10.68-10.18q0-65.22,0-130.45c0-7.83,2.46-10.08,10.75-10.1,9.17,0,11.7,2.09,11.73,10.2.07,16.66,0,33.32,0,50q0,2.45,0,4.91Z"/><path class="cls-1" d="M1684.3,119c16.33-6,31.71-6.69,46.72,1.07,17,8.8,24.93,27.18,21,48.08-3.29,17.35-17.32,29.72-35.69,32-14.51,1.83-27.78-.9-39.83-9.28-8.95-6.23-14-14.93-14.07-25.69q-.48-44.47-.06-89c.13-14.12,12.3-25.2,27.14-26.24,9.47-.66,18.56,1.4,27.67,3.19a41,41,0,0,0,21.11-1.66c7.42-2.43,10-.7,10,6.91.05,10.25-4.65,15.24-15.15,16.6-8.7,1.13-16.83-1-24.95-3.59-3-1-6-2.13-9-3-9.54-2.72-14.74.9-14.86,10.61C1684.18,92.24,1684.3,105.37,1684.3,119Zm22.94,13.9c-15.42.23-20.73,5.13-22.71,21-1.37,11,3,21.34,10.71,25.61,8.11,4.47,21.54,3.49,28.36-2,6-4.79,6.31-11.66,7.06-18.45C1732.57,141.78,1724.46,132.67,1707.24,132.93Z"/><path class="cls-1" d="M1048.19,126.34c-.34,16-2.08,37.48-9,58.23a69.59,69.59,0,0,1-2.77,6.95c-4.39,9.54-9,10.21-19.18,9.13-4.3-.46-6-4.19-4.15-8.23,9.31-19.87,11.86-41,12.51-62.64.4-13.33.26-26.6-2.43-39.71-3.09-15-11.73-21.81-26.68-21.14-8,.36-13.87,4.21-17.77,11.08-4.93,8.68-5.76,18.43-6.24,28-1.08,21.48-.43,42.92,4.73,64a87.48,87.48,0,0,0,7.06,18.62c3.35,6.64,1.09,10.19-6.31,10.32-9.82.17-13.06-1.95-16.8-10.85-6.67-15.85-9.12-32.62-10.6-49.54-1.62-18.61-1.62-37.22,2.57-55.6,4.92-21.61,17.75-32.83,40-34.54,12-.92,23.63.38,34.22,6.74,8.28,5,13.27,12.47,16.06,21.49C1047.54,92.32,1048.22,106.44,1048.19,126.34Z"/><path class="cls-1" d="M1210.2,123.59c-.13,18.7,1.06,37.25,6.93,55.2a73.51,73.51,0,0,0,5,11.94c3.1,5.78.75,9.87-5.72,10.21-10.05.53-13.58-1.74-17.53-11.22-6.21-14.92-8.77-30.65-10.23-46.6-1.78-19.45-2.07-38.89,2.34-58.09,5.14-22.41,18.91-33.81,41.89-34.78,10.61-.45,21,.74,30.51,5.88,13.19,7.1,18.41,19.39,20.36,33.15,4.61,32.53,2.9,64.71-7,96.24a46.65,46.65,0,0,1-2.23,5.56c-5,10.87-10,10.28-19,9.67-4.56-.31-6.62-4-4.56-8.35,7-14.64,10.29-30.25,11.55-46.2,1.5-18.92,2.31-37.94-1.59-56.72-3-14.5-12.05-21.34-26.72-20.54-7.9.43-13.95,4-17.73,11.12-4.93,9.23-5.56,19.43-6.29,29.54C1209.92,114.24,1210.2,118.93,1210.2,123.59Z"/><path class="cls-1" d="M802.37,121.15c0,21.9-2,43.54-9.21,64.42a52.08,52.08,0,0,1-3.08,7.36c-3.92,7.43-11.58,10.26-19.54,7.44-4.2-1.49-4.76-4.75-3.13-8,6.45-13,9.63-27,11.15-41.24,2.22-20.89,3.29-41.88-1.5-62.61C774,75,765.5,68.62,752.07,68.89c-11.1.22-18.32,6.15-21.88,17.72-2.73,8.85-3.51,18-3.75,27.11-.53,20.33.31,40.61,5.68,60.43a89.74,89.74,0,0,0,6.71,17.17c2.77,5.46.61,9.15-5.4,9.62-9.92.77-14.42-1.95-18.16-11.13-5.38-13.21-8.08-27.06-9.56-41.17C703.56,128,702.91,107.47,707,87c4.62-23.31,18.15-35.47,41.88-36.64,14.63-.72,28.68,1.28,39.68,12.49,8.69,8.86,10.93,20.28,12.59,31.91C802.37,103.49,802.34,112.33,802.37,121.15Z"/><path class="cls-1" d="M1990.32,120.57c-.2,21.87-1.86,43.54-9.07,64.42a56.21,56.21,0,0,1-3,7.38c-4,7.73-10.87,10.63-19.23,8.28-3.94-1.11-5.59-4.28-3.88-8.12,14.13-31.8,14.93-65.08,11-98.88a36.48,36.48,0,0,0-2.75-10.07c-4.56-10.73-11.6-15-24.06-14.68-9.93.29-17.09,5.71-20.64,15.92-3.83,11-4.32,22.51-4.4,34-.14,20,.83,39.92,6.89,59.23a87.36,87.36,0,0,0,5.35,12.88c3.15,6.31.91,9.84-6.24,10-9.77.26-13.11-1.68-16.92-10.71-5.67-13.45-8.44-27.67-9.9-42.09-2-19.24-2.64-38.54.71-57.73,2.22-12.71,6.19-24.6,17.59-32.35,18.18-12.36,50.44-10,64.65,4.7,8.74,9,11,20.61,12.66,32.39A173.5,173.5,0,0,1,1990.32,120.57Z"/><path class="cls-1" d="M1487.27,89.94c0,6.83.23,13.67-.09,20.48-.17,3.66.9,5.49,4.35,7.09,12.13,5.6,21.25,14.51,25.5,27.32,5.69,17.15,1,31.61-12.56,43.54-21.49,18.93-58.55,15.32-75.76-7.58-12.82-17.05-9.67-39.52,7.64-54.45a45.74,45.74,0,0,1,25.16-11.14c2.68-.3,3.76-1,3.72-3.86-.15-9.16-.18-18.32,0-27.48.07-3.23-1.24-3.91-4.13-3.84-7.16.15-14.32.08-21.49,0-9.73,0-14.26-4.65-14.33-14.48,0-.67,0-1.34,0-2-1-14.14,4.47-13.77,14.26-13.44,4.77.16,7.62,2.57,7.65,7.33,0,3.92,1.61,4.66,5.11,4.59,9.82-.2,19.66.07,29.48-.14,4.14-.09,5.64,1.42,5.52,5.54C1487.12,74.94,1487.27,82.44,1487.27,89.94Zm-17.82,92.25c14.6.09,27.5-11.09,27.62-23.94.13-13.23-12.29-25.17-26.32-25.33-14.34-.16-27.42,11.25-27.58,24C1443,170.27,1455.34,182.11,1469.46,182.19Z"/><path class="cls-1" d="M893.27,90c0,6.83.22,13.67-.09,20.48-.17,3.66.92,5.48,4.36,7.09,12.25,5.72,21.53,14.66,25.59,27.79,5.85,18.93-.07,34.34-17.05,46.34-21.57,15.23-54.33,10.58-70.77-10.06-14.12-17.72-10-42.49,9.38-57.16a46.15,46.15,0,0,1,22.84-9.24c2.7-.31,3.76-1,3.71-3.87-.14-9.16-.17-18.32,0-27.48.07-3.24-1.27-3.9-4.14-3.84-7.33.14-14.66.11-22,0-9.15-.11-13.69-4.76-13.82-14,0-.83,0-1.67,0-2.5,0-12.34,1.89-14.11,14.28-13.44,4.78.26,7.57,2.59,7.62,7.37,0,3.94,1.68,4.63,5.15,4.56,9.82-.2,19.65.07,29.48-.13,4.16-.09,5.62,1.45,5.5,5.55C893.12,75,893.28,82.46,893.27,90ZM875.6,182.19c14.08.24,27.32-11.1,27.48-23.52.17-13.42-12-25.5-25.92-25.74-14.64-.25-27.75,11.06-28,24.17S861.24,182,875.6,182.19Z"/><path class="cls-1" d="M1510.58,274.38c-4.78,15.14-9.12,28.92-13.46,42.69q-12.14,38.54-24.26,77.09c-1.44,4.57-4.55,6.6-9.3,6.8-13.56.58-15.37-2-11-14.77Q1474,323.67,1495.15,261c3.37-9.93,4.56-10.81,15-10.82h4c8,0,10.35,1.59,12.87,9q9.57,28.1,19.07,56.22,12.72,37.57,25.4,75.14c2.34,6.94.24,9.88-7.15,10.36-11.11.71-12.87-.51-16.22-10.94q-17.62-54.85-35.28-109.69C1512.31,278.74,1511.66,277.23,1510.58,274.38Z"/><path class="cls-1" d="M961.14,326.13c.1,14.79,2.82,28.78,12.8,40.45,8.55,10,19.69,14.93,32.54,16.52,11.59,1.44,22.85-.46,34-3.27,5-1.26,7.95.54,9.44,5.43,2.18,7.15,1.29,11.2-3.71,12.62-25.57,7.26-51,8.71-74.93-5.25-21.51-12.54-31-32.75-33.09-56.71-1.63-18.41,1-36.18,10.7-52.37,11.92-19.91,30-30.61,52.44-34.37,14.52-2.42,28.84-.91,43,2.9,5.84,1.57,7.88,4.76,6.52,10.24-1.89,7.61-5,10-11.4,8.33-13.39-3.54-26.82-5.07-40.38-1.17-21.34,6.13-32.71,21-36.83,42.25A59.33,59.33,0,0,0,961.14,326.13Z"/><path class="cls-1" d="M1095,110.91q0,24,0,48c0,8.28.89,16.52,9.45,20.43,9.86,4.51,20.41,5,29.58-1.26,8-5.47,7.48-14.61,6.56-23.21-.77-7.21-5.15-12.48-9.91-17.48a20.41,20.41,0,0,1-3.85-5.19c-2.74-5.73-2.24-11.1,1.46-14.84,3.08-3.11,12.45-4.4,16.51-2.23,2.49,1.33,4,3.73,3.12,6.18-1.69,4.5,1,6.76,3.51,9.46,14.26,15.05,16.06,36.68,4.06,53.54-10.1,14.2-25.16,17-41.23,16.37a46.08,46.08,0,0,1-24.88-7.93c-11.33-7.81-16.77-18.81-16.84-32.3-.19-33.33-.08-66.66,0-100,0-3.85-.06-8.28,4.55-9.56,4.94-1.38,10.25-2,15,1,2.82,1.79,3,5,3,8.07Q1095,85.41,1095,110.91Z"/><path class="cls-1" d="M1586.3,64.34c-1.06,9.78,3.69,17.63,12.55,23.73s18,12.06,25.3,20.21c12.14,13.48,15.27,29.55,13.54,46.94-1.21,12.25-5.6,23.23-14.22,32.29-17.24,18.11-48.17,17.6-66.5-.71-14-14-15.68-30.55-11-48.5,2-7.59,13.43-11.15,19.88-6.74,3.07,2.09,2.81,5.1,2.14,8.09a82.57,82.57,0,0,0-1.91,12.8c-.64,9.54,3.12,17.22,9.67,23.71a21.86,21.86,0,0,0,34-4.22c12.29-20.08,6.38-47.2-13.08-60.36-6.48-4.38-13.16-8.43-19.3-13.34a33.58,33.58,0,0,1-13-24.36,146.58,146.58,0,0,1-.23-16c.12-4.9,2.93-7.49,7.92-7.77,1.49-.08,3,0,4.5,0,7.1.06,9.63,2.54,9.74,9.57C1586.31,60.84,1586.3,62,1586.3,64.34Z"/><path class="cls-1" d="M1845.3,152c0-3.66.1-7.33,0-11a17,17,0,0,0-13.2-16c-5.51-1.32-7.14-3.71-7-10.24.12-5.4,2-7.56,7.7-8.51a11.84,11.84,0,0,0,5.38-2.4c7.85-6,11.47-25.09-.57-32.2-4.81-2.84-6.19-13.28-3-18,2.59-3.77,6.24-4.28,10.16-2.5,12.61,5.72,20.24,15.48,22.41,29.12,2,12.75-2,23.7-11.44,32.46-2.52,2.35-1.87,3.33.33,5.17,8.46,7.1,12.24,16.34,12,27.34-.11,4.66-.1,9.33,0,14,.43,25-19.7,38-37.09,40.82-11.5,1.87-22.66.6-32.95-5-15.87-8.63-23.61-26-20.38-45.15.77-4.57,1.33-9.22,3.3-13.53,2.66-5.81,15.21-8.83,20.08-4.68,2,1.67,2.31,3.86,1.61,6.37a90.12,90.12,0,0,0-3.17,17.66c-.69,9.63,2.23,18.05,10.74,23.2s17.55,4.51,26.13-.29c6-3.36,8.9-8.78,9-15.67,0-3.66,0-7.33,0-11Z"/><path class="cls-1" d="M575.31,333.29c0-19.15-.17-38.31.11-57.46.07-4.93-1.48-6.16-6.19-6-9.81.35-19.65.15-29.47.08-6.78,0-9.16-2.57-9.22-9.51-.06-7.41,2.27-10.16,9.09-10.17q47-.08,93.93,0c6.9,0,9.29,2.7,9.27,10,0,7.05-2.34,9.62-9.05,9.67-10,.08-20,.24-30-.07-4.52-.14-5.92,1.08-5.89,5.78.19,37.64.11,75.28.11,112.92,0,11.06-9,16.45-18.9,11.28-3.21-1.68-3.83-4.7-3.82-8.08C575.34,372.26,575.31,352.77,575.31,333.29Z"/><path class="cls-1" d="M1510.44,372c-5.32,0-10.65.12-16,0-4.81-.13-6.5-2.72-4.21-6.83q8-14.38,16.46-28.49c2.31-3.84,5.42-3.85,7.76,0q8.64,14.29,16.73,28.9c2,3.66.41,6.21-3.81,6.36C1521.76,372.2,1516.09,372,1510.44,372Z"/></g></g></svg>