<svg xmlns="http://www.w3.org/2000/svg" width="37" height="32" viewBox="0 0 37 32"><title>telegram</title><path d="M35.381.079L.644 13.48a1 1 0 0 0-.006 1.866l.007.002 8.464 3.158 3.278 10.535a1.001 1.001 0 0 0 1.563.477l-.002.002 4.719-3.845a1.404 1.404 0 0 1 1.721-.045l-.004-.003 8.542 6.175a1 1 0 0 0 1.56-.597l.001-.007L36.73 1.211A.999.999 0 0 0 35.376.079l.007-.002zm-6.623 7.013L15.091 19.781a2.818 2.818 0 0 0-.877 1.681l-.002.015-.463 3.449a.427.427 0 0 1-.837.065l-.001-.003-1.774-6.29a1.664 1.664 0 0 1 .722-1.868l.007-.004L28.41 6.64a.286.286 0 0 1 .349.452z"/></svg>