<svg xmlns="http://www.w3.org/2000/svg" width="32" height="32" viewBox="0 0 32 32"><title>telephone</title><path d="M27.35 4.932A15.813 15.813 0 0 0 15.858 0C7.102 0 .004 7.098.004 15.854c0 4.52 1.891 8.598 4.926 11.486l.007.006a15.703 15.703 0 0 0 11.178 4.653h.034-.002c2.46 0 4.705-.458 6.487-1.312 1.691-.816 2.916-1.984 3.459-3.282.645-1.56.281-3.185-.999-4.463l-.045-.047a.644.644 0 0 1 .064-.064l.001-.001c.914-.959.914-2.218-.012-3.146l-2.258-2.258a2.141 2.141 0 0 0-1.549-.704h-.002a2.198 2.198 0 0 0-1.566.697l-.001.001-1.177 1.162a2.228 2.228 0 0 0-.169-.085 4.089 4.089 0 0 1-.402-.219l.017.01a13.961 13.961 0 0 1-3.293-2.985l-.021-.028a8.24 8.24 0 0 1-.983-1.504l-.022-.047c.293-.275.568-.555.835-.828.112-.118.228-.228.346-.346.959-.959.959-2.2 0-3.158l-1.115-1.117c-.13-.13-.254-.254-.378-.385a31.536 31.536 0 0 0-.776-.776 2.155 2.155 0 0 0-1.533-.665h-.001a2.221 2.221 0 0 0-1.551.665L8.095 8.522a3.19 3.19 0 0 0-.952 2.038l-.001.011c-.098 1.241.261 2.389.541 3.14.669 1.83 1.666 3.515 3.161 5.316a19.608 19.608 0 0 0 6.39 5.038l.114.051c.959.458 2.244.991 3.693 1.086h.275l.08.001c.971 0 1.844-.418 2.449-1.084l.002-.003.026-.026a.78.78 0 0 1 .071-.079l.039.039c.835.836 1.064 1.788.659 2.759-.751 1.781-3.667 3.61-8.496 3.61-7.888 0-14.283-6.395-14.283-14.283S8.258 1.853 16.146 1.853s14.283 6.395 14.283 14.283c0 1.356-.189 2.669-.542 3.912l.024-.101a.785.785 0 0 0 1.513.423l.001-.006c.364-1.266.574-2.721.574-4.225a15.79 15.79 0 0 0-4.647-11.208zm-4.672 18.127a1.724 1.724 0 0 1-1.287.576l-.087-.002h.004a1.19 1.19 0 0 1-.181 0h.004c-1.174-.078-2.283-.541-3.113-.94a18.074 18.074 0 0 1-5.949-4.65l-.023-.029c-1.371-1.663-2.302-3.197-2.908-4.841-.366-.991-.503-1.748-.45-2.466.03-.423.217-.797.502-1.07l.001-.001 1.396-1.396a.735.735 0 0 1 .462-.228h.003c.176.013.33.096.437.221l.001.001.02.02c.248.228.482.465.731.724.13.13.261.268.391.399l1.115 1.115c.346.346.346.6 0 .946l-.352.352c-.346.346-.665.679-1.018.991-.012 0-.02.02-.033.033a1.066 1.066 0 0 0-.265 1.175l-.003-.007c0 .02.012.033.02.053a9.21 9.21 0 0 0 1.369 2.227l-.012-.015a15.399 15.399 0 0 0 3.635 3.326l.058.036c.177.11.352.202.523.287.154.074.28.143.402.219l-.017-.01c.02.012.043.025.067.037l.004.002c.148.077.323.123.509.124.308-.006.583-.14.775-.351l.001-.001 1.396-1.396a.7.7 0 0 1 .453-.242h.003a.64.64 0 0 1 .423.227l.001.001 2.271 2.271c.32.32.32.62-.012.959-.155.163-.31.32-.49.49a12.44 12.44 0 0 0-.796.828z"/></svg>