<svg xmlns="http://www.w3.org/2000/svg" width="32" height="32" viewBox="0 0 32 32"><title>time7</title><path d="M0 15.249c.072-.616.119-1.232.222-1.849a15.602 15.602 0 0 1 3.123-7.172l-.026.034c.126-.151.237-.323.324-.507l.006-.015c-.263.099-.526.205-.791.292a.49.49 0 0 1-.615-.181l-.001-.002a.456.456 0 0 1 0-.578l-.001.001a.734.734 0 0 1 .289-.216l.005-.002c.935-.376 1.871-.748 2.814-1.107.464-.177.822.123.75.616a324.88 324.88 0 0 1-.483 2.956c-.06.355-.296.565-.579.528-.314-.041-.491-.3-.44-.672s.123-.801.205-1.3c-.316.388-.592.694-.832 1.027a14.725 14.725 0 0 0-2.787 6.873l-.008.076c-.396 3.095.055 6.053 1.53 8.802 2.325 4.352 5.932 7.043 10.812 7.881 3.816.655 7.382-.113 10.646-2.218.113-.074.226-.15.343-.205a.518.518 0 0 1 .738.134l.001.002a.529.529 0 0 1-.202.748l-.003.001c-.31.205-.616.411-.947.606a15.76 15.76 0 0 1-6.242 2.084l-.074.007c-3.451.376-6.704-.249-9.701-1.992-4.057-2.372-6.641-5.864-7.694-10.447-.166-.727-.222-1.479-.329-2.218-.014-.101-.037-.205-.055-.3V15.25zM16.931.004c.616.08 1.218.142 1.82.247a15.678 15.678 0 0 1 9.259 5.202l.017.02a15.374 15.374 0 0 1 3.802 8.255l.008.078c.103.673.163 1.449.163 2.24 0 2.621-.65 5.089-1.797 7.254l.041-.084c-.544 1.046-1.232 2.019-1.849 3.019.166-.064.384-.16.616-.232.433-.14.822.146.721.546a.715.715 0 0 1-.359.409l-.004.002c-.9.378-1.812.731-2.726 1.074-.456.173-.822-.113-.758-.575q.224-1.465.479-2.925c.068-.392.374-.583.692-.458a.496.496 0 0 1 .322.578l.001-.003c-.049.39-.115.776-.189 1.261.323-.396.606-.715.855-1.056a14.585 14.585 0 0 0 2.657-6.099l.014-.09c.156-.809.245-1.741.245-2.692 0-6.979-4.794-12.839-11.269-14.466l-.103-.022c-4.145-.996-8.052-.343-11.671 1.935-.142.088-.277.185-.421.267-.31.179-.604.123-.762-.138a.521.521 0 0 1 .202-.726l.003-.001c.355-.236.711-.472 1.082-.682A15.679 15.679 0 0 1 14.95.045l.046-.002a1.22 1.22 0 0 0 .195-.041l-.008.002z"/><path d="M12.232 17.669h2.136v-4.858c0-.396.181-.616.495-.629a.469.469 0 0 1 .507.366l.001.003c.023.101.036.218.036.337l-.001.058v-.003 4.716c.438.08 1.08-.15 1.07.559-.002.682-.624.46-1.07.54v.965c0 .411-.193.647-.514.651s-.514-.242-.514-.653v-.875a.64.64 0 0 0-.032-.107l.001.004h-2.609c-.542 0-.746-.265-.639-.799l1.027-5.168c0-.051.023-.101.037-.152.097-.331.325-.489.616-.431a.52.52 0 0 1 .394.648l.001-.004c-.076.45-.175.898-.265 1.345l-.653 3.239c-.012.07-.014.152-.025.244zm-5.546 1.682h2.927a3.695 3.695 0 0 1 .424.011l-.014-.001a.507.507 0 0 1-.012 1.015h-.012H10c-.146.012-.292 0-.438 0H6.218c-.538 0-.696-.185-.67-.725.051-1.041.629-1.73 1.487-2.227.45-.261.916-.491 1.364-.754 1.004-.585 1.345-1.656.844-2.644a1.349 1.349 0 0 0-1.195-.822h-.002l-.055-.001c-.524 0-.974.314-1.174.763l-.003.008a3.169 3.169 0 0 0-.241.882l-.002.016c-.066.376-.257.589-.573.563s-.483-.269-.454-.655c.072-1.078.54-1.925 1.528-2.399 1.121-.538 2.465-.031 3.056 1.101.811 1.557.302 3.247-1.232 4.12-.542.308-1.091.604-1.623.926a1.115 1.115 0 0 0-.589.815l-.001.006zm18.989-6.154h-2.828a1.39 1.39 0 0 1-.35-.022l.009.001a.509.509 0 0 1 .011-.987l.003-.001a1.216 1.216 0 0 1 .282-.02H22.8h3.529c.616 0 .822.331.563.893l-3.159 6.867c-.04.095-.085.176-.137.251l.003-.005a.484.484 0 0 1-.619.178l.003.001a.466.466 0 0 1-.309-.551l-.001.003c.035-.155.086-.293.152-.42l-.004.009q1.343-2.917 2.691-5.833c.058-.111.101-.205.164-.364zm-4.151-2.257c-.06.205-.088.329-.127.448l-3.169 9.516c-.034.114-.072.21-.116.302l.005-.012a.498.498 0 0 1-.629.264l.003.001a.495.495 0 0 1-.332-.597l-.001.003c.092-.351.205-.694.329-1.039l2.876-8.656c.047-.163.109-.305.186-.436l-.005.009a.426.426 0 0 1 .566-.204l-.003-.001c.162.114.3.247.416.398l.003.005z"/></svg>