<svg xmlns="http://www.w3.org/2000/svg" width="32" height="32" viewBox="0 0 32 32"><title>time</title><path d="M16 0C7.163 0 0 7.163 0 16s7.163 16 16 16 16-7.163 16-16C31.989 7.168 24.832.011 16.001 0H16zm0 29.613C8.505 29.6 2.434 23.521 2.434 16.024c0-7.505 6.084-13.589 13.589-13.589 7.497 0 13.576 6.071 13.589 13.565v.01c0 7.513-6.09 13.603-13.603 13.603h-.01H16z"/><path d="M16.972 13.64V8.791a.974.974 0 1 0-1.948 0v4.849a2.518 2.518 0 0 0-1.317 1.307l-.006.016h-3.313a.974.974 0 1 0 0 1.948h3.313a2.5 2.5 0 1 0 3.288-3.265l-.016-.006zM16 16.495a.555.555 0 1 1 .559-.56.56.56 0 0 1-.56.56zm0-10.068c.663-.003 1.2-.54 1.203-1.203v-.509a1.205 1.205 0 0 0-2.41 0v.509a1.208 1.208 0 0 0 1.208 1.203zm0 19.021a1.209 1.209 0 0 0-1.194 1.203v.509a1.205 1.205 0 0 0 2.41 0v-.509a1.208 1.208 0 0 0-1.208-1.203h-.01zm11.225-10.716h-.509a1.205 1.205 0 0 0 0 2.41h.509a1.205 1.205 0 0 0 0-2.41zm-21.941 0h-.509a1.205 1.205 0 0 0 0 2.41h.509a1.205 1.205 0 0 0 0-2.41z"/></svg>