<svg xmlns="http://www.w3.org/2000/svg" width="64" height="32" viewBox="0 0 64 32"><title>type-car</title><path d="M53.318 10.663h-2.112L42.113 1.57a5.357 5.357 0 0 0-3.79-1.567H7.019a4.01 4.01 0 0 0-3.637 2.319l-.01.025-.707 1.529C1.508 6.377 1.198 7.05.04 11.671a1.224 1.224 0 0 0-.041.318v10.668a3.997 3.997 0 0 0 3.997 3.997h1.467c.637 3.069 3.318 5.342 6.531 5.342s5.894-2.273 6.523-5.299l.008-.043h24.254c.637 3.069 3.318 5.342 6.531 5.342s5.894-2.273 6.523-5.299l.008-.043h2.798a5.332 5.332 0 0 0 5.332-5.332v-3.997c-.004-6.663-4.038-6.663-10.651-6.663zM40.207 3.451l7.217 7.217H31.982V2.67h6.34c.736.002 1.402.3 1.885.781zm-24.216 7.212V2.669h13.326v7.994zM5.083 5.001c.207-.451.442-.951.703-1.546a1.345 1.345 0 0 1 1.222-.785h6.317v7.994H3.046a25.44 25.44 0 0 1 2.105-5.808l-.067.145zm6.903 24.32a3.997 3.997 0 1 1 3.997-3.997 3.997 3.997 0 0 1-3.997 3.997zm37.31 0a3.997 3.997 0 1 1 4.022-3.997 3.997 3.997 0 0 1-3.997 3.997zm9.337-5.345h-2.798c-.637-3.069-3.318-5.342-6.531-5.342s-5.894 2.273-6.523 5.299l-.008.043H18.519c-.637-3.069-3.318-5.342-6.531-5.342s-5.894 2.273-6.523 5.299l-.008.043H3.994a1.331 1.331 0 0 1-1.331-1.331v-9.316h50.653c7.089 0 7.994.149 7.994 3.997h-2.666a1.333 1.333 0 0 0 0 2.666h2.666v1.331a2.667 2.667 0 0 1-2.666 2.654h-.013.001z"/><path d="M37.31 14.664h-1.331a1.333 1.333 0 0 0 0 2.666h1.331a1.333 1.333 0 0 0 0-2.666zm-17.322 0h-1.331a1.333 1.333 0 0 0 0 2.666h1.331a1.333 1.333 0 0 0 0-2.666z"/></svg>