<svg xmlns="http://www.w3.org/2000/svg" width="32" height="32" viewBox="0 0 32 32"><title>user</title><path d="M25.607 22.874l-5.095-2.547a1.403 1.403 0 0 1-.779-1.261v-1.803c.122-.149.251-.319.383-.507a12.184 12.184 0 0 0 1.575-3.093 2.115 2.115 0 0 0 1.241-1.929V9.601c0-.514-.192-1.011-.533-1.4V5.364c.03-.293.147-2.039-1.116-3.48C20.188.634 18.41.001 15.999.001s-4.189.634-5.284 1.883C9.452 3.325 9.569 5.071 9.599 5.365v2.837a2.128 2.128 0 0 0-.533 1.4v2.133c0 .649.295 1.254.798 1.658.489 1.934 1.511 3.392 1.868 3.86v1.765c0 .516-.282.99-.734 1.237L6.24 22.85a4.81 4.81 0 0 0-2.508 4.225v1.727c0 2.531 8.024 3.2 12.267 3.2s12.267-.669 12.267-3.2v-1.623a4.785 4.785 0 0 0-2.659-4.303z"/></svg>