<svg xmlns="http://www.w3.org/2000/svg" width="31" height="32" viewBox="0 0 31 32"><title>viber</title><path d="M30.278 7.689v-.037C29.522 4.63 26.15 1.373 23.059.714h-.037c-2.268-.455-4.874-.716-7.542-.716s-5.274.261-7.796.758l.254-.042h-.037C4.81 1.373 1.442 4.63.691 7.652v.037C.25 9.6-.002 11.795-.002 14.049s.253 4.449.731 6.558l-.038-.198v.037c.714 2.893 3.833 5.989 6.814 6.837v3.372a1.354 1.354 0 0 0 2.335.922l.001-.001 3.418-3.552c.737.069 1.474.069 2.221.069h.05c2.651 0 5.243-.257 7.751-.746l-.254.041h.037c3.087-.677 6.459-3.902 7.206-6.943v-.037c.444-1.918.698-4.12.698-6.381 0-2.246-.251-4.434-.726-6.537l.038.198zm-2.705 12.112c-.498 1.972-3.059 4.423-5.068 4.874-2.113.425-4.543.668-7.029.668-.357 0-.713-.005-1.067-.015l.052.001h-.005a.19.19 0 0 0-.138.06l-5.151 5.284a.31.31 0 0 1-.535-.211v-5.594a.195.195 0 0 0-.155-.189h-.001c-2.032-.461-4.607-2.902-5.068-4.874-.406-1.747-.638-3.753-.638-5.814 0-2.023.224-3.993.649-5.888l-.034.179c.498-1.972 3.059-4.423 5.068-4.874 2.105-.422 4.526-.663 7.003-.663s4.897.241 7.239.702l-.236-.039c2.032.461 4.607 2.903 5.068 4.874.413 1.762.65 3.785.65 5.863 0 2.003-.22 3.955-.638 5.832l.033-.178z"/><path d="M22.248 18.806a15.498 15.498 0 0 0-1.246-.951l-.053-.035a26.31 26.31 0 0 0-1.382-.921 1.21 1.21 0 0 0-1.467.066l.002-.002c-.461.364-.654 1.064-1.29 1.138l-.047.001c-.365 0-.707-.094-1.005-.259l.011.005c-2.064-.857-3.322-2.451-4.068-4.501a.915.915 0 0 1 .062-.806l-.002.004a1.37 1.37 0 0 1 .31-.329l.003-.002c.138-.111.272-.23.419-.332a1.295 1.295 0 0 0 .365-1.761l.003.005a16.23 16.23 0 0 0-1.959-2.735l.014.017a1.004 1.004 0 0 0-1.259-.315l.006-.003a4.726 4.726 0 0 0-1.557 1.187l-.005.006c-.461.539-.885 1.276-.59 1.986s.636 1.571 1.009 2.327a19.84 19.84 0 0 0 2.918 4.466l-.021-.024c2.092 2.35 4.727 3.884 7.593 5.068.276.115.576.18.885.272.316-.072.591-.165.853-.283l-.028.011a4.336 4.336 0 0 0 1.832-2.013l.011-.027a1.027 1.027 0 0 0-.315-1.256l-.003-.002zM15.494 6.104c.161 0 3.626.101 0 0h-.22a.461.461 0 0 0-.457.519v-.002c.06.332.41.35.677.378.424.046.852.064 1.272.138 2.803.538 4.961 2.764 5.39 5.56l.005.037c.074.53.101 1.064.138 1.599 0 .272.157.521.461.516a.46.46 0 0 0 .423-.533v.003c-.051-.64-.092-1.285-.203-1.917-.663-3.704-3.741-6.192-7.487-6.298z"/><path d="M20.303 13.434l-.001.041c0 .115.017.226.049.331l-.002-.008a.424.424 0 0 0 .801-.039l.001-.003c.016-.078.028-.17.032-.264v-.004c0-.258-.023-.461-.037-.645 0-.078-.023-.157-.037-.235a4.979 4.979 0 0 0-2.663-3.852l-.028-.013a5.807 5.807 0 0 0-2.444-.64h-.011a.401.401 0 0 0-.461.396.41.41 0 0 0 .386.461h.001c.217.032.428.051.645.088.53.082 1.008.234 1.45.446l-.031-.013c.75.379 1.356.949 1.768 1.648l.011.02c.36.636.572 1.396.572 2.205l-.001.084v-.004z"/><path d="M19.188 13.093a1.15 1.15 0 0 0-.001-.371l.001.007c-.147-1.709-1.189-2.465-2.64-2.566h-.01a.462.462 0 0 0-.45.361l-.001.003a.429.429 0 0 0 .347.497h.003c.23.055.461.037.7.106.193.056.362.139.512.247l-.005-.003c.309.238.532.576.62.965l.002.011c.038.169.069.373.086.582l.001.017v.001c0 .254.206.461.461.461l.034-.001h-.002c-.069 0-.175 0 0 0 .037 0 .032 0 0 0a.374.374 0 0 0 .341-.316v-.002z"/></svg>