<svg xmlns="http://www.w3.org/2000/svg" width="32" height="32" viewBox="0 0 32 32"><title>vk</title><path d="M16 32C7.163 32 0 24.837 0 16S7.163 0 16 0s16 7.163 16 16-7.163 16-16 16zM16 .78C7.595.78.78 7.594.78 16S7.594 31.22 16 31.22c8.405 0 15.22-6.814 15.22-15.22C31.22 7.595 24.406.78 16 .78z"/><path d="M16.726 14.759v1.612c.014.147.063.28.139.393l-.002-.003a.323.323 0 0 0 .538.071 4 4 0 0 0 .748-.855l.009-.015c.522-.757.99-1.621 1.361-2.536l.032-.091.039-.066a.527.527 0 0 1 .612-.389l-.003-.001c.87 0 1.741 0 2.611-.023.139 0 .274.021.4.061l-.009-.003a.34.34 0 0 1 .257.443l.001-.002a2.621 2.621 0 0 1-.439 1.019l.005-.008c-.468.679-.956 1.342-1.436 2.014-.215.3-.441.593-.632.905a.648.648 0 0 0 .105.881l.001.001 1.171 1.171a6.54 6.54 0 0 1 1.026 1.249l.016.027c.076.133.134.287.166.451l.002.01a.39.39 0 0 1-.322.511h-.002c-.144.043-.31.07-.482.074h-.002c-.644 0-1.288 0-1.932.039a1.946 1.946 0 0 1-1.579-.623l-.001-.001c-.343-.347-.66-.722-.995-1.073a2.64 2.64 0 0 0-.409-.345l-.009-.006a.422.422 0 0 0-.616.066l-.001.001c-.17.185-.283.424-.312.689v.005c-.035.242-.047.484-.066.73v.002a.503.503 0 0 1-.459.501h-.002l-.053.002-.055-.002h.002-1.331a4.284 4.284 0 0 1-1.972-.573l.021.011a6.53 6.53 0 0 1-1.944-1.552l-.008-.009a26.29 26.29 0 0 1-1.362-1.842 25.376 25.376 0 0 1-2.115-3.853l-.066-.167a2.654 2.654 0 0 1-.126-.31l-.006-.022a.321.321 0 0 1 .269-.449h.001c.095-.019.204-.031.316-.031h2.12c.018-.002.039-.002.06-.002.312 0 .577.201.673.481l.001.005a23.573 23.573 0 0 0 1.369 2.716l-.062-.114c.188.351.431.648.721.89l.005.004a.547.547 0 0 0 .444.144h-.003a.267.267 0 0 0 .206-.143l.001-.002c.103-.195.172-.423.195-.664l.001-.007c.05-.316.078-.682.078-1.053 0-.275-.015-.547-.046-.814l.003.033a5.433 5.433 0 0 0-.109-.6l.008.038a.827.827 0 0 0-.674-.632l-.005-.001a1.424 1.424 0 0 1-.203-.086l.008.004c.039-.074.08-.138.127-.198l-.002.003c.169-.174.397-.291.651-.32h.005a9.868 9.868 0 0 1 2.527-.035l-.045-.004c.113.012.215.031.314.058l-.014-.003c.39.105.488.25.546.656a6.118 6.118 0 0 1-.001.882l.001-.02v.691z"/></svg>