<svg xmlns="http://www.w3.org/2000/svg" width="26" height="32" viewBox="0 0 26 32"><title>website</title><path d="M20.775 20.894H13.83a.321.321 0 0 0-.357.359v-.002 3.893a.321.321 0 0 0 .359.357h-.002 6.945a.321.321 0 0 0 .357-.359v.002-3.908l.001-.023a.321.321 0 0 0-.359-.319h.002zm-.357 3.908h-6.242V21.59h6.256zM2.111 19.845h3.472a.358.358 0 0 0 .002-.688l-.003-.001H2.11a.358.358 0 0 0-.002.688l.002.001zm8.683-.689H7.322a.358.358 0 0 0-.002.688l.003.001h3.472a.357.357 0 1 0-.002-.689l.002-.001zm-3.041 1.738H2.111a.358.358 0 0 0-.002.688l.002.001h5.642a.358.358 0 0 0 .002-.688l-.003-.001zm3.041 0H9.491a.358.358 0 0 0-.002.688l.002.001h1.303a.357.357 0 1 0-.002-.689l.002-.001z"/><path d="M25.525 15.477a1.54 1.54 0 0 0-1.104-.617h-.006l-1.124-.136v-2.166c0-.911-.738-1.649-1.649-1.649H1.658a1.65 1.65 0 0 0-1.627 1.649v13.889c.007.742.5 1.367 1.177 1.571l.012.003.064.018v.068l-.001.045a1.6 1.6 0 0 0 1.421 1.589l.007.001 20.22 2.259h.017c.822 0 1.504-.6 1.631-1.386l.001-.009 1.303-13.918a1.585 1.585 0 0 0-.359-1.195l.002.003zM.719 12.558c0-.53.43-.96.96-.96h19.984a.96.96 0 0 1 .956.956v.525H.718zm0 1.213h21.883v2.784H.719zm.96 13.633a.96.96 0 0 1-.96-.956v-9.204h21.883v9.203a.96.96 0 0 1-.956.956zm23.528-10.885l-1.292 13.928a.933.933 0 0 1-.355.644l-.002.002a.96.96 0 0 1-.611.218h-.103L2.838 29.052a.962.962 0 0 1-.86-.856v-.104h19.667c.911 0 1.649-.738 1.649-1.649V15.38l1.096.096a.826.826 0 0 1 .626.337l.002.002a.978.978 0 0 1 .189.707v-.005zM2.589 5.642l.914-2.691c.177-.494.357-1.124.5-1.767l.021-.113v-.036h.096v.036c.174.766.355 1.391.565 2.001l-.04-.135.867 2.705h.881L8.213 0h-.939l-.806 2.855a15.448 15.448 0 0 0-.419 1.75l-.016.106v.036h-.111v-.036a24.643 24.643 0 0 0-.507-1.866L4.519.001h-.81l-.928 2.894c-.186.603-.378 1.228-.507 1.809v.036h-.128v-.036a24.771 24.771 0 0 0-.425-1.813L.975 0H.004l1.702 5.642zm8.861 0l.914-2.694c.177-.493.357-1.121.5-1.764l.021-.113v-.036h.096v.036c.166.77.341 1.4.546 2.016l-.039-.135.867 2.705h.881L17.07.001h-.935l-.806 2.855a15.448 15.448 0 0 0-.419 1.75l-.016.106v.036h-.111v-.036a24.268 24.268 0 0 0-.507-1.866L13.38.002h-.81l-.928 2.894c-.186.603-.378 1.228-.507 1.809v.036h-.107v-.036c-.107-.589-.261-1.181-.425-1.813L9.836.001h-.971l1.702 5.642zm8.861 0l.914-2.694c.177-.493.357-1.121.5-1.764l.021-.113v-.036h.096v.036c.166.769.341 1.399.546 2.016l-.039-.135.867 2.705h.881L25.931.001h-.946l-.799 2.855a15.448 15.448 0 0 0-.419 1.75l-.016.106v.036h-.111v-.036a24.268 24.268 0 0 0-.507-1.866L22.241.002h-.824l-.914 2.894c-.186.603-.378 1.228-.507 1.809v.036h-.107v-.036c-.107-.589-.261-1.181-.425-1.813L18.697.001h-.971l1.702 5.642z"/></svg>