<svg xmlns="http://www.w3.org/2000/svg" width="32" height="32" viewBox="0 0 32 32"><title>whatsapp</title><path d="M32 15.587c-.081 8.627-7.094 15.589-15.733 15.589-2.777 0-5.385-.719-7.65-1.982l.08.041-8.698 2.764 2.836-8.364C1.42 21.349.582 18.577.582 15.608v-.024.001C.731 7.022 7.707.138 16.291.138S31.851 7.022 32 15.571v.014zM16.293 2.484h-.04c-7.25 0-13.131 5.858-13.169 13.099v.012c0 2.888.944 5.556 2.54 7.711l-.025-.035-1.649 4.867 5.071-1.613a13.104 13.104 0 0 0 7.254 2.167c7.261 0 13.155-5.853 13.222-13.099v-.006c-.04-7.245-5.923-13.102-13.173-13.102h-.033.002zm7.929 16.694c-.098-.16-.356-.253-.738-.444s-2.28-1.116-2.631-1.244-.609-.191-.867.191-.996 1.244-1.222 1.498-.444.284-.831.093a10.592 10.592 0 0 1-3.123-1.903l.012.01a11.682 11.682 0 0 1-2.113-2.613l-.03-.054c-.222-.382 0-.587.169-.778s.387-.444.578-.667c.152-.184.282-.395.38-.623l.007-.017a.688.688 0 0 0-.033-.67l.002.003c-.098-.191-.867-2.071-1.187-2.836s-.64-.636-.867-.636-.48-.031-.738-.031a1.413 1.413 0 0 0-1.025.479l-.001.002a4.262 4.262 0 0 0-1.333 3.191v-.004c0 1.88 1.378 3.698 1.573 3.951s2.667 4.24 6.578 5.778 3.916 1.018 4.622.956 2.276-.924 2.6-1.818a3.12 3.12 0 0 0 .272-1.285 3.14 3.14 0 0 0-.048-.552l.003.019z"/></svg>