<svg xmlns="http://www.w3.org/2000/svg" width="88" height="32" viewBox="0 0 88 32"><title>yes-no</title><path d="M73.66 16.401L87.677 2.384a.906.906 0 0 0-1.294-1.268l-13.99 14.017L58.376 1.116a.899.899 0 0 0-1.267 1.269l-.001-.001 13.99 14.017-13.99 14.017a.899.899 0 1 0 1.267 1.269l.001-.001 14.017-14.008 13.99 14.017a.899.899 0 0 0 1.267-1.269l.001.001zM43.935.261L15.019 29.177 1.604 15.762a.903.903 0 0 0-1.277 1.277l14.692 14.683L45.203 1.538A.898.898 0 0 0 44.569 0a.9.9 0 0 0-.634.261z"/></svg>