<svg xmlns="http://www.w3.org/2000/svg" xmlns:xlink="http://www.w3.org/1999/xlink" viewBox="0 0 6367.01 1125.4"><defs><style>.cls-1{isolation:isolate;}.cls-2{fill:#f2d57c;}.cls-3{fill:url(#Безымянный_градиент_218);}.cls-4{fill:url(#Безымянный_градиент_218-2);}.cls-5{fill:#fff;}</style><linearGradient id="Безымянный_градиент_218" x1="95.86" y1="5252.15" x2="968.2" y2="4379.81" gradientTransform="matrix(1, 0, 0, -1, 0, 5348.05)" gradientUnits="userSpaceOnUse"><stop offset="0" stop-color="#ad832d"/><stop offset="0.6" stop-color="#dbae27"/><stop offset="1" stop-color="#835723"/></linearGradient><linearGradient id="Безымянный_градиент_218-2" x1="79.58" y1="4777.8" x2="1057.13" y2="4777.8" xlink:href="#Безымянный_градиент_218"/></defs><title>logo big travel</title><g id="Слой_2" data-name="Слой 2"><g id="Layer_1" data-name="Layer 1"><g class="cls-1"><path d="M1241.31,500H1261c2.8,15,7.5,29.1,14.1,41.2s15.9,22.5,26.2,30.9a114.69,114.69,0,0,0,36.6,19.7c14.1,4.7,28.1,6.5,45,6.5,26.2,0,46.8-5.6,62.8-17.8q22.5-18.3,22.5-47.8c0-8.4-1.9-15.9-4.7-23.4s-8.4-14.1-15-20.6-16.9-13.1-28.1-19.7c-12.2-6.5-27.2-13.1-45-20.6-22.5-9.4-40.3-17.8-55.3-26.2s-27.2-16.9-35.6-26.2-15-18.7-18.7-29.1-5.6-21.6-5.6-35.6c0-15.9,2.8-30,8.4-43.1a96.73,96.73,0,0,1,24.4-33.7c10.3-9.4,23.4-16.9,37.5-22.5,15-5.6,30.9-7.5,47.8-7.5a135,135,0,0,1,44,7.5,164.18,164.18,0,0,1,41.2,22.5l14.1-22.5h12.2l5.6,100.3h-19.7c-8.4-28.1-20.6-47.8-37.5-61.8a89.73,89.73,0,0,0-58.1-20.6c-21.6,0-39.3,4.7-51.5,15-13.1,10.3-18.7,23.4-18.7,41.2a52.73,52.73,0,0,0,4.7,21.6,51.67,51.67,0,0,0,14.1,18.7,149.42,149.42,0,0,0,25.3,17.8c10.3,5.6,23.4,12.2,38.4,18.7,26.2,11.2,47.8,21.6,65.6,30.9a195.2,195.2,0,0,1,41.2,29.1c10.3,9.4,17.8,19.7,21.6,30,4.7,10.3,6.5,22.5,6.5,35.6a109.55,109.55,0,0,1-10.3,46.8c-7.5,14.1-16.9,26.2-30,36.6s-28.1,17.8-45.9,23.4-37.5,8.4-59,8.4c-20.6,0-38.4-2.8-54.3-8.4a176,176,0,0,1-49.7-27.2l-15,24.4h-12.2Z"/><path d="M1939.41,462.52c0,26.2-2.8,49.7-8.4,70.3s-14.1,37.5-26.2,50.6-28.1,23.4-47.8,30.9c-19.7,6.5-43.1,10.3-71.2,10.3-26.2,0-49.7-2.8-68.4-7.5s-35.6-13.1-48.7-24.4-22.5-26.2-29.1-44.1-9.4-40.3-9.4-67.5v-134c0-25.3-1-44.1-1.9-58.1-1-13.1-4.7-23.4-11.2-30a28.72,28.72,0,0,0-17.8-8.4,214.55,214.55,0,0,0-29.1-1.9V229H1752v19.7a232.28,232.28,0,0,0-29.1,1.9c-7.5,1-13.1,4.7-17.8,10.3s-8.4,15.9-9.4,29.1c-1.9,13.1-1.9,32.8-1.9,57.2v137.7c0,16.9,1.9,32.8,5.6,45.9a84.25,84.25,0,0,0,18.7,33.7c8.4,9.4,19.7,15.9,33.7,20.6s30.9,7.5,50.6,7.5c35.6,0,61.8-9.4,79.7-28.1s26.2-45.9,26.2-82.4V360.32c0-30-1-52.5-3.7-68.4s-7.5-26.2-14.1-32.8c-4.7-4.7-11.2-7.5-18.7-8.4a210.24,210.24,0,0,0-28.1-1.9v-19.7h154.6v19.7c-11.2,0-20.6,1-28.1,2.8s-13.1,5.6-16.9,11.2c-5.6,7.5-8.4,17.8-10.3,32.8s-2.8,36.6-2.8,64.7v102.1l-.8.1Z"/><path d="M2384.41,623.72l-253-316.7h-1.9v216.5c0,16.9,1,30,1.9,40.3,1,9.4,3.7,17.8,7.5,22.5a22.91,22.91,0,0,0,15.9,10.3c6.5,1.9,15.9,2.8,27.2,2.8v19.7h-143.4v-19.7a127.84,127.84,0,0,0,30-3.7c7.5-1.9,14.1-5.6,17.8-10.3,4.7-4.7,7.5-12.2,8.4-21.6,1.9-9.4,1.9-21.6,1.9-37.5V321.12c0-14.1-1-26.2-1.9-35.6s-3.7-16.9-7.5-21.6-9.4-9.4-15.9-11.2a160.75,160.75,0,0,0-28.1-4.7v-19.7h105.9l233.3,295.2h1.9V323.92c0-16.9-1-30-1.9-39.3-1-10.3-3.7-17.8-7.5-23.4a22.91,22.91,0,0,0-15.9-10.3c-6.5-1.9-15.9-2.8-27.2-2.8v-19.7h143.4v19.7a127.84,127.84,0,0,0-30,3.7c-7.5,1.9-14.1,5.6-17.8,10.3-4.7,4.7-7.5,12.2-8.4,21.6-1.9,9.4-1.9,21.6-1.9,37.5v302.7l-32.8-.2Z"/><path d="M2865.11,623.72l-253-316.7h-1.9v216.5c0,16.9,1,30,1.9,40.3,1,9.4,3.7,17.8,7.5,22.5a22.91,22.91,0,0,0,15.9,10.3c6.5,1.9,15.9,2.8,27.2,2.8v19.7h-143.3v-19.7a127.84,127.84,0,0,0,30-3.7c7.5-1.9,14.1-5.6,17.8-10.3,4.7-4.7,7.5-12.2,8.4-21.6,1.9-9.4,1.9-21.6,1.9-37.5V321.12c0-14.1-1-26.2-1.9-35.6s-3.7-16.9-7.5-21.6-9.4-9.4-15.9-11.2a160.75,160.75,0,0,0-28.1-4.7v-19.7H2630l233.3,295.2h1.9V323.92c0-16.9-1-30-1.9-39.3-1-10.3-3.7-17.8-7.5-23.4a22.91,22.91,0,0,0-15.9-10.3c-6.5-1.9-15.9-2.8-27.2-2.8v-19.7h143.4v19.7a127.84,127.84,0,0,0-30,3.7c-7.5,1.9-14.1,5.6-17.8,10.3-4.7,4.7-7.5,12.2-8.4,21.6-1.9,9.4-1.9,21.6-1.9,37.5v302.7l-32.9-.2Z"/><path d="M3036.61,292c-5.6-8.4-10.3-15.9-15-21.6s-9.4-10.3-14.1-13.1a35.07,35.07,0,0,0-15-6.5,99.84,99.84,0,0,0-18.7-1.9v-19.7h167.7v19.7c-17.8,0-30,1-37.5,3.7s-11.2,6.5-11.2,13.1c0,7.5,3.7,16.9,12.2,30l82.4,134h1.9l60-96.5c11.2-17.8,19.7-32.8,24.4-43.1s7.5-18.7,7.5-25.3-2.8-11.2-7.5-13.1c-5.6-2.8-14.1-3.7-27.2-3.7v-19.7h121.8V248a64.54,64.54,0,0,0-19.7,2.8,48.3,48.3,0,0,0-18.7,12.2c-6.5,5.6-13.1,14.1-20.6,25.3s-16.9,25.3-28.1,42.2l-82.4,131.2v60c0,16.9,1,30,1.9,39.3,1,10.3,3.7,17.8,8.4,23.4,3.7,5.6,10.3,9.4,17.8,11.2s17.8,2.8,30.9,2.8v19.7h-172.4v-19.7c13.1,0,23.4-1,30.9-2.8a36.72,36.72,0,0,0,17.8-10.3c3.7-5.6,6.5-12.2,8.4-21.6s1.9-21.6,1.9-37.5v-61.8Z"/><path d="M3728.21,623.72q-45,0-81.5-14.1c-24.4-9.4-45-21.6-61.8-38.4s-30-37.5-39.3-60.9c-9.4-24.4-14.1-50.6-14.1-79.7,0-30.9,4.7-59,15-84.4a208.24,208.24,0,0,1,42.2-65.6c17.8-17.8,39.3-31.9,64.7-42.2s52.5-15,83.4-15a207.17,207.17,0,0,1,60,8.4c18.7,5.6,39.3,15,60.9,28.1l11.2-30.9h18.7l-6.5,116.2h-25.3c0-16.9-3.7-30.9-10.3-43.1s-15-21.6-26.2-30c-10.3-7.5-22.5-13.1-36.6-16.9a165.37,165.37,0,0,0-42.2-5.6c-21.6,0-41.2,3.7-58.1,12.2s-31.9,19.7-43.1,34.7c-12.2,15-20.6,33.7-27.2,55.3s-9.4,46.8-9.4,74c0,54.3,12.2,96.5,35.6,125.6s58.1,44.1,103.1,44.1c16.9,0,32.8-1.9,45.9-5.6A119.38,119.38,0,0,0,3822,574c9.4-6.5,16.9-14.1,21.6-22.5a56.22,56.22,0,0,0,7.5-27.2c0-19.7-3.7-32.8-12.2-39.3s-21.6-10.3-41.2-10.3V455h151.8v19.7a137.4,137.4,0,0,0-21.6,1.9,26.25,26.25,0,0,0-14.1,7.5c-3.7,3.7-5.6,8.4-6.5,14.1a124.41,124.41,0,0,0-1.9,21.6V576c-6.5,0-13.1,0-18.7,1s-11.2,1.9-17.8,3.7c-5.6,1.9-13.1,4.7-19.7,7.5-7.5,2.8-15.9,7.5-26.2,13.1a180.46,180.46,0,0,1-43.1,15.9C3764.71,621.82,3746.91,623.72,3728.21,623.72Z"/><path d="M4102.11,405.42c18.7,0,35.6-1,48.7-3.7,13.1-1.9,23.4-5.6,30.9-10.3a51,51,0,0,0,16.9-17.8c3.7-7.5,4.7-15.9,4.7-26.2H4222v137.7h-18.7a73,73,0,0,0-4.7-26.2c-2.8-7.5-8.4-13.1-15.9-18.7-7.5-4.7-17.8-8.4-30.9-11.2s-29.1-3.7-49.7-3.7v114.3c0,11.2,1.9,20.6,4.7,27.2,2.8,7.5,7.5,13.1,15,17.8,6.5,4.7,15.9,7.5,27.2,9.4s25.3,2.8,42.2,2.8c18.7,0,34.7-1,47.8-3.7s24.4-6.5,32.8-13.1c8.4-5.6,15.9-14.1,21.6-24.4s9.4-22.5,13.1-37.5h20.6l-8.4,99.3H3987v-19.7c12.2,0,22.5-1,30-2.8s14.1-4.7,17.8-8.4c4.7-3.7,7.5-9.4,8.4-16.9,1.9-7.5,1.9-16.9,1.9-29.1V304.42a232.28,232.28,0,0,0-1.9-29.1c-1-7.5-3.7-13.1-7.5-16.9s-9.4-7.5-15.9-8.4-15.9-2.8-28.1-3.7v-19.7H4300l4.7,89H4286c-1.9-13.1-5.6-24.4-10.3-32.8s-11.2-15-19.7-20.6-18.7-8.4-31.9-10.3-28.1-2.8-46.8-2.8h-67.5c-5.6,0-9.4,2.8-9.4,8.4v148.1l1.7-.2Z"/><path d="M4603.41,224.52c30.9,0,60.9,5.6,87.1,15.9,27.2,10.3,50.6,24.4,70.3,43.1a189.51,189.51,0,0,1,46.8,64.7c11.2,24.4,16.9,51.5,16.9,79.7,0,27.2-5.6,53.4-17.8,76.8-11.2,24.4-27.2,45-46.8,62.8s-43.1,31.9-70.3,42.2-56.2,15-87.1,15-60-4.7-87.1-15-50.6-24.4-70.3-42.2-35.6-38.4-46.8-62.8a181.11,181.11,0,0,1-16.9-76.8c0-29.1,5.6-55.3,16.9-79.7s27.2-45.9,46.8-64.7a221.58,221.58,0,0,1,70.3-43.1C4542.51,229.22,4571.51,224.52,4603.41,224.52Zm0,372c23.4,0,45-3.7,62.8-11.2a123.61,123.61,0,0,0,47.8-33.7c13.1-14.1,23.4-31.9,30.9-52.5s10.3-44.1,10.3-69.3c0-27.2-3.7-51.5-10.3-73.1-7.5-21.6-16.9-40.3-30-55.3a138.69,138.69,0,0,0-47.8-35.6c-18.7-8.4-40.3-12.2-63.7-12.2s-45,3.7-63.7,12.2-34.7,19.7-47.8,35.6c-13.1,15-23.4,33.7-30,55.3-7.5,21.6-10.3,45.9-10.3,73.1,0,25.3,3.7,48.7,10.3,69.3,7.5,20.6,16.9,38.4,30,52.5s29.1,25.3,47.8,33.7C4558.41,592.72,4579.91,596.52,4603.41,596.52Z"/><path d="M5199.31,326.62q0,40.8-25.3,67.5c-16.9,17.8-44,30-81.5,35.6l118.1,134.9c9.4,11.2,20.6,18.7,31.9,24.4,11.2,4.7,25.3,8.4,41.2,11.2v19.7h-103.1l-130.2-159.3c-4.7-5.6-9.4-10.3-13.1-14.1s-8.4-5.6-13.1-7.5-9.4-2.8-15.9-3.7-13.1-1-20.6-1v105a149.51,149.51,0,0,0,2.8,30.9c1.9,7.5,4.7,14.1,10.3,18.7q7.05,7.05,22.5,8.4a382,382,0,0,0,38.4,1.9v19.7h-188.3v-19.7c12.2,0,22.5-1,30-2.8s14.1-4.7,17.8-8.4c4.7-3.7,7.5-9.4,8.4-16.9,1.9-7.5,1.9-16.9,1.9-29.1V305.92a232.28,232.28,0,0,0-1.9-29.1c-1-7.5-3.7-13.1-7.5-16.9s-9.4-7.5-15.9-8.4-15.9-2.8-28.1-3.7v-19.7h167.6c48.7,0,87.1,8.4,114.3,26.2C5186.21,272.32,5199.31,296.72,5199.31,326.62Zm-211.7,82.5h37.5c35.6,0,61.8-6.5,79.7-18.7,16.9-12.2,26.2-32.8,26.2-60.9,0-27.2-6.5-46.8-20.6-59s-34.7-17.8-64.7-17.8H4997c-5.6,0-9.4,2.8-9.4,8.4v148Z"/><path d="M5490.81,623.72q-45,0-81.5-14.1c-24.4-9.4-45-21.6-61.8-38.4s-30-37.5-39.3-60.9c-9.4-24.4-14.1-50.6-14.1-79.7,0-30.9,4.7-59,15-84.4a208.24,208.24,0,0,1,42.2-65.6c17.8-17.8,39.3-31.9,64.7-42.2s52.5-15,83.4-15a207.17,207.17,0,0,1,60,8.4c18.7,5.6,39.3,15,60.9,28.1l11.2-30.9h18.7l-6.5,116.2h-25.3c0-16.9-3.7-30.9-10.3-43.1s-15-21.6-26.2-30c-10.3-7.5-22.5-13.1-36.6-16.9a165.37,165.37,0,0,0-42.2-5.6c-21.6,0-41.2,3.7-58.1,12.2s-31.9,19.7-43.1,34.7c-12.2,15-20.6,33.7-27.2,55.3s-9.4,46.8-9.4,74c0,54.3,12.2,96.5,35.6,125.6s58.1,44.1,103.1,44.1c16.9,0,32.8-1.9,45.9-5.6a119.38,119.38,0,0,0,34.7-15.9c9.4-6.5,16.9-14.1,21.6-22.5a56.52,56.52,0,0,0,7.5-27.2c0-19.7-3.7-32.8-12.2-39.3s-21.6-10.3-41.2-10.3V455h151.8v19.7a137.4,137.4,0,0,0-21.6,1.9,26.25,26.25,0,0,0-14.1,7.5c-3.7,3.7-5.6,8.4-6.5,14.1a124.41,124.41,0,0,0-1.9,21.6V576c-6.5,0-13.1,0-18.7,1s-11.2,1.9-17.8,3.7c-5.6,1.9-13.1,4.7-19.7,7.5-7.5,2.8-15.9,7.5-26.2,13.1a180.46,180.46,0,0,1-43.1,15.9C5527.31,621.82,5509.51,623.72,5490.81,623.72Z"/><path d="M5865.61,523.42c0,16.9,1,30,1.9,40.3,1.9,9.4,3.7,17.8,8.4,22.5,3.7,5.6,10.3,9.4,17.8,10.3,7.5,1.9,17.8,2.8,30,2.8V619h-172.4v-19.7a127.84,127.84,0,0,0,30-3.7c7.5-1.8,14.1-5.6,17.8-10.3,4.7-4.7,7.5-12.2,8.4-21.6,1.9-9.4,1.9-21.6,1.9-37.5V321c0-14.1-1-26.2-1.9-35.6s-3.7-16.9-7.5-21.6-9.4-9.4-15.9-11.2a160.75,160.75,0,0,0-28.1-4.7v-19.7h162.1v19.7a103.51,103.51,0,0,0-27.2,3.7c-6.6,1.8-12.2,6.5-15.9,12.2s-6.5,13.1-7.5,23.4a362.31,362.31,0,0,0-1.9,37.5v198.7Z"/><path d="M6208.51,477.52h-142.4c-5.6,14.1-11.2,26.2-15.9,36.6s-7.5,19.7-10.3,27.2a106.35,106.35,0,0,0-5.6,19.7c-1,5.6-1.9,9.4-1.9,13.1,0,9.4,2.8,15.9,9.4,19.7s16.9,5.6,31.9,5.6v19.7h-129.3v-19.7c8.4-1,15-2.8,20.6-3.7,5.6-1.9,11.2-3.7,15.9-7.5s8.4-6.5,12.2-12.2c3.7-4.7,6.5-11.2,10.3-17.8l138.7-329.9h22.5l120.9,285.8c8.4,18.7,15,33.7,21.6,45a98.39,98.39,0,0,0,17.8,25.3,43.18,43.18,0,0,0,18.7,11.2c6.5,1.9,14.1,2.8,23.4,2.8v19.7h-174.3v-19.7c18.7,0,31.9-1.9,39.3-4.7,7.5-3.7,10.3-9.4,10.3-16.9,0-3.7,0-6.5-1-9.4s-1-5.6-1.9-9.4a61.18,61.18,0,0,0-3.7-11.2c-1.9-4.7-3.7-9.4-6.5-15Zm-132.1-25.3h121.8l-59-149Z"/></g><path class="cls-2" d="M1387.27,821.72h-41.93V960c0,10.87-7.19,18.25-18.25,18.25h-1.95c-10.87,0-18.24-7.18-18.24-18.25V821.72H1265c-9.12,0-18.25-9.13-18.25-18.25,0-10.87,7.18-18.25,18.25-20h123.67c10.87,0,18.25,9.13,18.25,20C1401.64,814.34,1394.45,821.72,1387.27,821.72Z"/><path class="cls-2" d="M1689.16,900l25.44,49.12c1.94,1.94,1.94,5.43,1.94,9.12,0,10.87-9.13,18.25-20,18.25a20.39,20.39,0,0,1-18.25-10.87c-10.87-23.69-20-40-30.87-61.93h-54.55v56.49c0,10.88-7.19,18.25-18.25,18.25h-1.94c-10.87,0-18.25-7.18-18.25-18.25V803.66c0-10.87,9.12-18.25,20-20h89.12c30.87-1.94,58.24,21.74,60,52.8v5.44C1727.41,868.9,1712.85,892.58,1689.16,900Zm-21.93-78.24h-72.81V865.4h72.81c12.61,1.94,23.68-7.18,25.43-20v-3.68c0-12.62-9.13-23.69-21.75-23.69Z"/><path class="cls-2" d="M2018.43,976.26h0c-12.62,0-20-7.19-20-18.25v-56.5h-87.36V958c0,10.87-7.18,18.25-18.25,18.25h-1.94c-10.87,0-18.25-7.19-18.25-18.25V856.08c0-34.56,10.87-76.3,81.93-76.3s81.93,40,81.93,76.3V958A23,23,0,0,1,2018.43,976.26Zm-18.25-120c0-23.69-10.87-38.25-43.68-38.25s-43.68,16.31-43.68,38.25v9.12h87.36v-9.12Z"/><path class="cls-2" d="M2362.26,810.65l-67.37,152.79c-3.69,7.19-9.12,10.88-16.31,10.88H2264a20.38,20.38,0,0,1-18.25-10.88l-65.42-152.79c-1.95-1.94-1.95-5.43-1.95-7.18-1.94-10.87,3.69-20,14.57-21.74,10.87-2,20,3.68,21.74,14.56l56.5,131c20-41.93,38.24-85.61,56.49-131A20.16,20.16,0,0,1,2346,785.41c10.87,0,18.25,7.19,20,18.25C2364,805.22,2362.26,808.91,2362.26,810.65Z"/><path class="cls-2" d="M2649.59,974.51h-80c-29.12,1.94-54.55-21.74-56.49-50.87v-5.43c0-14.56,7.18-27.38,18.25-38.25-10.87-10.87-18.25-25.43-18.25-38.24-1.94-29.13,23.68-54.56,52.81-56.5h85.42c9.12,0,18.25,9.12,18.25,18.25,0,10.87-7.19,18.25-18.25,20h-80a20.22,20.22,0,0,0-20,20h0a20.22,20.22,0,0,0,20,20h65.43c10.87,0,20,7.18,20,18.25v1.94c0,10.87-7.18,18.25-18.25,18.25h-67.36a20,20,0,1,0,0,40h80c10.88,0,18.25,9.13,18.25,20C2667.84,963.64,2660.66,972.57,2649.59,974.51Z"/><path class="cls-2" d="M2951.68,974.51H2846.26c-9.13,0-18.25-9.12-18.25-18.25V801.53c0-10.87,7.18-18.25,18.25-18.25h1.94c10.87,0,18.25,7.18,18.25,18.25V938h87.36c10.88,0,18.25,7.18,20,18.25-.39,9.13-9.51,18.25-22.13,18.25Z"/><path class="cls-3" d="M1069.81,395.12c-8.4-83.4-56.2-177.1-127.5-245.5-65.6-63.7-139.6-96.5-206.1-91.8-72.2-48.7-184.6-69.3-288.6-51.5-85.3,14.1-151.8,51.5-188.3,103.1-78.7,30-156.5,100.3-204.3,186.5-42.2,75.9-56.2,150.9-38.4,211.8-27.2,79.7-20.6,184.6,16.9,275.5,31.9,80.6,81.5,137.7,140.6,163.1,45.9,70.3,130.2,132.1,224.9,161.2,35.6,11.2,71.2,17.8,108.7,17.8,37.5,1,73.1-7.5,106.8-23.4,10.3,1,21.6,1.9,31.9,1.9a439.9,439.9,0,0,0,235.2-75c71.2-48.7,118.1-109.6,130.2-170.5,59-59,102.1-155.6,110.6-253.9C1128.81,517.82,1110.11,443.82,1069.81,395.12Z"/><path class="cls-4" d="M1006.11,434.42c1.9-69.3-39.3-159.3-106.8-224.9-60.9-60-128.4-82.4-175.2-66.5-51.5-49.7-156.5-75-257.7-57.2-78.7,13.1-134.9,49.7-152.7,92.8-67.5,15.9-143.4,78.7-189.3,160.2-39.3,70.3-45.9,136.8-23.4,177.1-30,61.8-29.1,161.2,6.5,248.3,30,75,76.8,121.8,121.8,130.2,30,61.8,106.8,124.6,196.8,151.8,76.8,23.4,142.4,16.9,178-13.1,67.5,16.9,163.1-5.6,241.8-57.2,66.5-44.1,102.1-100.3,101.2-147.1,55.3-42.2,99.3-130.2,107.8-224.9C1064.21,525.32,1043.51,462.62,1006.11,434.42Zm6.5,149c-1.9,22.5-6.5,44.1-11.2,66.5-30-57.2-70.3-89-110.6-103.1l-37.5-33.7,110.6-62.8a149.61,149.61,0,0,1-11.2,63.7l-1,1.9a8.73,8.73,0,0,0,1.9,8.4,5.6,5.6,0,0,0,5.6,0,77,77,0,0,0,36.6-36.6c2.8-5.6,5.6-11.2,6.5-17.8,11.3,35.8,14.1,75.1,10.3,113.5Zm-316.7,93.7c0,19.7,5.6,39.3,14.1,58.1-57.2-13.1-95.6,16.9-106.8,49.7-12.2,36.6,6.5,76.8,42.2,89.9l17.8-41.2c-13.1-3.7-21.6-18.7-17.8-31.9v-1c7.5-21.6,33.7-26.2,56.2-19.7,19.7,5.6,29.1,30.9,29.1,52.5-1,36.6-28.1,66.5-63.7,70.3-44,7.5-95.6-10.3-148.1-30-70.3-26.2-149.9-53.4-225.8-20.6a139,139,0,0,1,55.3-45.9c42.2-22.5,101.2-40.3,158.3-57.2C575,730.52,645.31,709.92,695.91,677.12Zm35.6-99.3h0c-107.8,93.7-254.9,41.2-373.9-1.9-47.8-17.8-89.9-32.8-122.7-35.6l141.5-131.2,176.2,167.7,140.6-149,120,108.7C782.11,541.32,753.11,555.32,731.51,577.82Zm-183.7-193c32.8,0,63.7,15.9,83.4,43.1l-80.6,86.2-88.1-83.4C482.31,401.62,514.11,384.82,547.81,384.82Zm13.2-45,5.6-209.9c45.9,3.7,89.9,17.8,130.2,41.2l-92.8,178a263.77,263.77,0,0,0-43-9.3Zm193.9,83.4,149-136.8c25.3,33.7,42.2,73.1,53.4,115.3l-140.6,78.7Zm100.3-194c7.5,7.5,13.1,13.1,19.7,20.6l-154.6,141.5-30.9-28.1-27.2,30a200.31,200.31,0,0,0-20.6-20.6l89-171.5a87.75,87.75,0,0,1,13.1,19.7l1,1.9c1.9,2.8,5.6,2.8,8.4,1,1-1,1.9-1.9,1.9-2.8,2.8-17.8,0-35.6-8.4-50.6-1.9-3.7-3.7-7.5-7.5-11.2,44.9,13.9,85.2,37.3,116.1,70.1ZM519.71,128l-5.6,215.5c-12.2,2.8-23.4,7.5-33.7,12.2l-110.6-146.2a152,152,0,0,1,36.6,1h1.9c2.8,1,6.5-1,7.5-3.7a11.14,11.14,0,0,0-1-5.6c-11.2-13.1-27.2-21.6-44-25.3-6.5-1-12.2-1.9-18.7-1.9,32.8-20.6,69.3-33.7,107.8-40.3a303.4,303.4,0,0,1,59.8-5.7ZM323,222.62l120.9,160.2a121.5,121.5,0,0,0-14.1,16.9l-52.5-50.6-46.8,42.2-121.8-83.4A283.28,283.28,0,0,1,323,222.62Zm-165.9,154.7c7.5-12.2,14.1-23.4,22.5-35.6l117.1,79.7-163.1,151.8c7.5-46.8,23.4-85.3,50.6-107.8l1.9-1a7,7,0,0,0,1-8.4,7.71,7.71,0,0,0-5.6-1.9c-17.8,1-33.7,7.5-47.8,18.7a39.54,39.54,0,0,0-12.2,13.1c3.7-38.3,15.9-74.9,35.6-108.6Zm0,387c-5.6-13.1-10.3-28.1-14.1-42.2,15.9,13.1,33.7,21.6,53.4,23.4a85,85,0,0,0,15.9,1c43.1,0,81.5-29.1,92.8-70.3L262,663.12c-6.5,26.2-31.9,42.2-59,38.4-27.2-2.8-48.7-25.3-50.6-52.5-1-16.9,5.6-31.9,16.9-44.1,15.9-14.1,36.6-20.6,58.1-18.7,27.2,1,67.5,16.9,113.4,32.8,73.1,27.2,159.3,58.1,244.6,58.1h7.5c-30.9,11.2-63.7,20.6-97.4,30.9-102.1,30-207.1,61.8-244.6,130.2a172,172,0,0,1-7.5-37.5v-1.9a6.32,6.32,0,0,0-6.5-6.5,4.79,4.79,0,0,0-3.7,1.9,82,82,0,0,0-15.9,48.7c0,6.5,1,12.2,1.9,18.7-27.4-28-49-60.8-62.1-97.3Zm697.2,72.1h-1.9c-2.8,1-5.6,2.8-3.7,7.5,0,1.9,1.9,2.8,2.8,3.7a78.3,78.3,0,0,0,50.6,5.6c6.5-1,11.2-2.8,17.8-5.6-21.6,31.9-49.7,60-81.5,80.6-102.1,68.4-235.2,85.3-297,36.6l-1.9-1.9c-1.9-1.9-6.5-1.9-8.4,0-1,1-1.9,2.8-1,5.6,3.7,16.9,14.1,31.9,28.1,42.2,5.6,3.7,10.3,7.5,15.9,10.3-38.4,3.7-77.8-1-115.3-13.1A393.08,393.08,0,0,1,293,904.82c65.6-42.2,136.8-16.9,211.8,11.2,46.8,16.9,95.6,33.7,142.4,33.7,9.4,0,19.7-1,29.1-1.9a118.72,118.72,0,0,0,101.2-134.9,87.43,87.43,0,0,0-6.5-25.3c12.2,5.6,25.3,7.5,37.5,7.5,27.2,0,52.5-10.3,70.3-30A81.15,81.15,0,0,0,889.11,662c-16.9-23.4-52.5-41.2-101.2-19.7l18.7,41.2c20.6-9.4,38.4-7.5,46.8,3.7,9.4,15.9,6.5,33.7-6.5,46.8-16.9,16.9-41.2,20.6-60.9,10.3-10.3-3.7-45.9-22.5-43.1-76.8,0-44.1,33.7-82.4,78.7-88.1,78.7-11.2,133.1,60,159.3,129.3-32,67.8-77.9,116.5-126.6,127.7Z"/><path class="cls-5" d="M998.61,426c1.9-69.3-39.3-159.3-106.8-224.9-60.9-60-128.4-82.4-175.2-66.5-51.5-49.7-157.4-75-257.7-57.2-78.7,13.1-134.9,49.7-152.7,92.8-67.5,15.9-143.4,78.7-189.3,160.2-37.5,69.3-44,135.9-22.5,177.1-30,61.8-29.1,161.2,6.5,248.3,29.1,75,76.8,120.9,121.8,130.2,30,61.8,106.8,124.6,196.8,151.8,76.8,23.4,142.4,16.9,178-13.1,67.5,16.9,163.1-5.6,241.8-57.2,66.5-44.1,102.1-100.3,101.2-147.1,55.3-42.2,99.3-130.2,107.8-224.9C1055.71,517.82,1035.11,455.12,998.61,426Zm5.6,149.9a414.26,414.26,0,0,1-11.2,66.5c-30-57.2-70.3-89-110.6-103.1l-37.5-33.7,111.5-62.8a149.61,149.61,0,0,1-11.2,63.7l-1,1.9a8.73,8.73,0,0,0,1.9,8.4,5.6,5.6,0,0,0,5.6,0,77,77,0,0,0,36.6-36.6c2.8-6.5,5.6-11.2,7.5-17.8A304.58,304.58,0,0,1,1004.21,575.92Zm-316.7,94.7c0,19.7,5.6,40.3,14.1,58.1-57.2-13.1-95.6,16.9-106.8,49.7-12.2,36.6,6.5,76.8,42.2,89.9l17.8-41.2c-13.1-3.7-21.6-18.7-17.8-31.9v-1c7.5-21.6,33.7-26.2,56.2-19.7,19.7,5.6,29.1,30.9,29.1,52.5-1,36.6-28.1,66.5-63.7,70.3-44,7.5-95.6-10.3-148.1-30-70.3-26.2-149.9-53.4-225.8-20.6a144.38,144.38,0,0,1,55.3-44.1c42.2-22.5,101.2-40.3,158.3-57.2C567.51,723,636.91,702.42,687.51,670.62Zm35.6-99.4h0c-107.8,95.6-255.8,40.3-373.9-1.9-47.8-17.8-89.9-32.8-122.7-35.6L368,402.52l176.2,167.7,140.6-149.9,120,108.7a133.26,133.26,0,0,0-81.7,42.2Zm-183.7-193.9c32.8,0,63.7,15.9,83.4,43.1l-80.6,86.2-88.1-83.4C473.81,394.12,505.71,377.32,539.41,377.32Zm13.1-45,5.6-209.9c45.9,3.7,89.9,17.8,130.2,41.2l-92.8,178C581.61,337,566.61,334.22,552.51,332.32Zm194,82.5,149-136.8c25.3,33.7,42.2,73.1,53.4,115.3L809.31,472Zm100.3-192.2c7.5,7.5,13.1,13.1,19.7,20.6l-154.6,141.5L681,356.62l-28.1,30a200.31,200.31,0,0,0-20.6-20.6l89-171.5a87.75,87.75,0,0,1,13.1,19.7l1,1.9c1,2.8,5.6,3.7,7.5,2.8s2.8-1.9,2.8-3.7c2.8-17.8,0-35.6-8.4-50.6-1.9-3.7-3.7-7.5-7.5-11.2,45.8,12.1,86,35.5,117,69.2Zm-334.6-102.1-5.6,214.6c-12.2,2.8-23.4,7.5-33.7,12.2l-110.6-146.2a152,152,0,0,1,36.6,1h1.9c2.8,1,6.5-1,7.5-3.7a11.14,11.14,0,0,0-1-5.6c-11.2-13.1-27.2-21.6-44-25.3-6.5-1-12.2-1.9-18.7-1.9,32.8-20.6,69.3-33.7,107.8-40.3C470.11,121.52,491.61,120.52,512.21,120.52Zm-197.7,93.7,120.9,160.2a121.5,121.5,0,0,0-14.1,16.9l-52.5-50.6-45.9,42.2-122.7-83.4C231.11,262.92,270.51,233.92,314.51,214.22Zm-165.8,154.6c7.5-12.2,14.1-23.4,21.6-35.6l117.1,79.7-162.1,152.7c7.5-46.8,23.4-85.3,50.6-107.8l1.9-1a7,7,0,0,0,1-8.4,7.71,7.71,0,0,0-5.6-1.9c-17.8,1-33.7,7.5-47.8,18.7-5.6,3.7-9.4,8.4-13.1,13.1a330.39,330.39,0,0,1,36.4-109.5Zm0,388a219.64,219.64,0,0,1-13.1-42.2c15.9,13.1,33.7,21.6,53.4,23.4a85,85,0,0,0,15.9,1c43.1,0,81.5-29.1,92.8-70.3l-42.2-13.1a51.1,51.1,0,0,1-59,38.4c-27.2-2.8-48.7-25.3-49.7-52.5-1-16.9,5.6-31.9,16.9-44.1,15.9-14.1,37.5-20.6,58.1-18.7,27.2,1,67.5,16.9,113.4,32.8,71.2,26.2,157.4,57.2,241.8,57.2h7.5c-30.9,11.2-63.7,20.6-97.4,30.9-102.1,30-207.1,61.8-244.6,130.2a172,172,0,0,1-7.5-37.5v-1.9a6.32,6.32,0,0,0-6.5-6.5,4.79,4.79,0,0,0-3.7,1.9,82,82,0,0,0-15.9,48.7c0,6.5,1,12.2,1.9,18.7-26.5-27.1-47.1-59.9-62.1-96.4Zm697.1,73.1h-1.9c-2.8,1-5.6,2.8-3.7,7.5,0,1.9,1.9,2.8,2.8,3.7a78.3,78.3,0,0,0,50.6,5.6,58.77,58.77,0,0,0,17.8-5.6c-21.6,31.9-49.7,60-82.4,80.6-102.1,68.4-235.2,85.3-297,36.6l-1.9-1.9c-1.9-1.9-6.5-1.9-8.4,0-1,1-1.9,2.8-1,5.6,3.7,17.8,14.1,31.9,29.1,42.2,5.6,3.7,10.3,7.5,15.9,10.3-38.4,2.8-77.8-1-115.3-13.1a393.08,393.08,0,0,1-165.8-103.1c65.6-42.2,136.8-16.9,211.8,11.2,46.8,16.9,95.6,33.7,142.4,33.7,9.4,0,19.7-1,29.1-1.9a118.72,118.72,0,0,0,101.2-134.9,87.43,87.43,0,0,0-6.5-25.3c12.2,5.6,25.3,7.5,37.5,7.5a94.18,94.18,0,0,0,70.3-30.9,81.15,81.15,0,0,0,10.3-103.1c-16.9-23.4-52.5-41.2-101.2-19.7l18.7,41.2c20.6-9.4,38.4-7.5,46.8,3.7,9.4,15.9,6.5,33.7-6.5,46.8-15.9,16.9-39.3,20.6-60,11.2-10.3-3.7-45.9-22.5-43.1-76.8,0-44.1,33.7-82.4,78.7-88.1,76.8-10.3,131.2,60.9,157.4,130.2-31,65.9-76.9,115.5-125.7,126.8Z"/></g></g></svg>