<svg xmlns="http://www.w3.org/2000/svg" xmlns:xlink="http://www.w3.org/1999/xlink" viewBox="0 0 500.21 108.73"><defs><linearGradient id="a" x1="9.17" y1="9.25" x2="93.48" y2="93.56" gradientUnits="userSpaceOnUse"><stop offset="0" stop-color="#ad832d"/><stop offset=".6" stop-color="#dbae27"/><stop offset="1" stop-color="#835723"/></linearGradient><linearGradient id="b" x1="7.73" y1="55.09" x2="102.2" y2="55.09" xlink:href="#a"/></defs><g data-name="Layer 2"><g data-name="Layer 1"><path d="M140.87 82.36h-2.45v7.76a1 1 0 0 1-1 1h-.14a1 1 0 0 1-1-1v-7.76h-2.44a1.06 1.06 0 0 1-1-1 1.09 1.09 0 0 1 1-1.06h7a1.09 1.09 0 0 1 1 1.06 1.06 1.06 0 0 1-.97 1zm17.18 4.45l1.43 2.78a1 1 0 0 1 .11.47 1.07 1.07 0 0 1-1.06 1 1.05 1.05 0 0 1-1-.6c-.6-1.27-1.15-2.25-1.77-3.54h-3.11v3.17a1 1 0 0 1-1 1h-.12a1 1 0 0 1-1-1v-8.76a1.1 1.1 0 0 1 1.06-1.06h5.09a3.23 3.23 0 0 1 3.44 3.34 3 3 0 0 1-2.07 3.2zm-1.3-4.45h-4.06v2.52h4.06a1.22 1.22 0 0 0 1.36-1.26 1.24 1.24 0 0 0-1.36-1.26zm20.09 8.73h-.12a1 1 0 0 1-1-1v-3.17h-5v3.19a1 1 0 0 1-1 1h-.12a1 1 0 0 1-1-1v-5.8c0-2 .63-4.29 4.56-4.29s4.56 2.25 4.56 4.29v5.8a1 1 0 0 1-.88.98zm-1.1-6.77c0-1.29-.55-2.22-2.49-2.22s-2.49.93-2.49 2.22v.53h5zm20.51-2.54l-3.82 8.66a1.09 1.09 0 0 1-.95.62h-.78a1.13 1.13 0 0 1-1-.63l-3.7-8.65a1.1 1.1 0 0 1-.08-.41 1 1 0 0 1 2-.42l3.21 7.36c1.08-2.44 2.17-4.92 3.24-7.36a1.28 1.28 0 0 1 1-.63 1.08 1.08 0 0 1 1.06 1 1.42 1.42 0 0 1-.18.46zM212.59 91h-4.52a3.06 3.06 0 0 1-3.22-3.17 3.25 3.25 0 0 1 1-2.18 3.32 3.32 0 0 1-1-2.19 3.07 3.07 0 0 1 3.22-3.18h4.52a1.09 1.09 0 0 1 1 1 1.07 1.07 0 0 1-1 1.07h-4.52a1.11 1.11 0 0 0-1.15 1.08 1.15 1.15 0 0 0 1.15 1.12h3.73a1.07 1.07 0 0 1 1.12 1.07 1 1 0 0 1-1.12 1h-3.73a1.15 1.15 0 0 0-1.15 1.14 1.12 1.12 0 0 0 1.15 1.08h4.52a1.06 1.06 0 0 1 1 1.06 1.08 1.08 0 0 1-1 1.1zm17.16 0h-6a1.08 1.08 0 0 1-1-1v-8.75a1 1 0 0 1 1-1h.12a1 1 0 0 1 1 1v7.65h5a1.09 1.09 0 0 1 1.06 1 1.08 1.08 0 0 1-1.18 1.1zm28.12.09h-.12a1 1 0 0 1-1-1v-3.17h-5v3.19a1 1 0 0 1-1 1h-.12a1 1 0 0 1-1-1v-5.8c0-2 .63-4.29 4.56-4.29s4.56 2.25 4.56 4.29v5.8a1 1 0 0 1-.88.98zm-1.1-6.77c0-1.29-.55-2.22-2.49-2.22s-2.49.93-2.49 2.22v.53h5zm16.74 6.85a5.56 5.56 0 1 1 0-11.1c2.51 0 4.21 1.47 4.21 2.17a1.07 1.07 0 0 1-1 1A1 1 0 0 1 276 83a3.14 3.14 0 0 0-2.3-.82 3.53 3.53 0 0 0-3.85 3.52 3.49 3.49 0 0 0 3.74 3.43c1.54 0 2.65-.64 2.65-1.33V87h-2.1a1.08 1.08 0 0 1-1-1 1.07 1.07 0 0 1 1-1h3.13a1.06 1.06 0 0 1 1.06 1v1.95c-.03 1.91-2.14 3.22-4.82 3.22zm21.38-.17h-4.52a3.06 3.06 0 0 1-3.22-3.17 3.25 3.25 0 0 1 1-2.18 3.32 3.32 0 0 1-1-2.19 3.07 3.07 0 0 1 3.22-3.18h4.52a1.09 1.09 0 0 1 1 1 1.07 1.07 0 0 1-1 1.07h-4.52a1.11 1.11 0 0 0-1.15 1.08 1.15 1.15 0 0 0 1.15 1.12h3.73a1.07 1.07 0 0 1 1.12 1.07 1 1 0 0 1-1.12 1h-3.73a1.15 1.15 0 0 0-1.15 1.14 1.12 1.12 0 0 0 1.15 1.08h4.52a1.06 1.06 0 0 1 1 1.06 1.08 1.08 0 0 1-1 1.1zm18.57.09h-.25a1 1 0 0 1-.82-.4L307.11 84v6.13a1 1 0 0 1-1 1H306a1 1 0 0 1-1-1v-8.78a1.05 1.05 0 0 1 1-1.06h.36a1.1 1.1 0 0 1 .82.41c1.77 2.23 3.36 4.3 5.17 6.62v-6.07a1 1 0 0 1 1-1h.12a1 1 0 0 1 1 1v8.81a1 1 0 0 1-1.01 1.03zm20.45-1.53a6.5 6.5 0 0 1-4.66 1.62 5.52 5.52 0 1 1 0-11 7 7 0 0 1 4.45 1.66.88.88 0 0 1 .25.66 1 1 0 0 1-1 1 1.13 1.13 0 0 1-.77-.34 5 5 0 0 0-2.89-.92 3.41 3.41 0 0 0-3.48 3.51 3.52 3.52 0 0 0 3.84 3.37 4.38 4.38 0 0 0 2.92-1 .9.9 0 0 1 .7-.29 1 1 0 0 1 1 1 1 1 0 0 1-.36.73zm17.16-7.63l-3.28 4.51v3.67a1 1 0 0 1-1 1h-.12a1 1 0 0 1-1-1v-3.7l-3.21-4.5a1 1 0 0 1 .81-1.64 1.07 1.07 0 0 1 .84.42l2.62 3.66 2.59-3.65a1.05 1.05 0 0 1 .85-.44 1.09 1.09 0 0 1 1.06 1 1.14 1.14 0 0 1-.16.67z" fill="#f2d57c"/><path d="M103.28 38.16c-.84-8.07-5.45-17.09-12.26-23.71-6.34-6.16-13.52-9.3-19.87-8.85-7-4.74-17.76-6.73-27.9-5-8.23 1.43-14.7 5-18.24 10-7.57 2.89-15.1 9.69-19.73 18C1.2 35.9-.09 43.17 1.56 49.06-1 56.77-.42 66.9 3.12 75.71c3.1 7.76 7.94 13.29 13.56 15.77 4.41 6.81 12.62 12.76 21.69 15.56a35.73 35.73 0 0 0 10.48 1.69 22.16 22.16 0 0 0 10.3-2.31 29.19 29.19 0 0 0 3.09.16 42.18 42.18 0 0 0 22.66-7.22c6.94-4.65 11.39-10.55 12.6-16.54 5.74-5.73 9.86-15 10.71-24.45.79-8.37-1.03-15.5-4.93-20.21z" fill="url(#a)"/><path d="M97.24 41.89c.17-6.68-3.76-15.38-10.28-21.72-5.94-5.77-12.43-8-16.86-6.41C65.14 9 55 6.54 45.22 8.22c-7.61 1.32-13 4.82-14.77 9-6.45 1.51-13.88 7.56-18.31 15.5C8.38 39.47 7.7 45.87 9.8 49.83c-2.87 6-2.82 15.58.56 24 2.88 7.17 7.43 11.75 11.83 12.61 2.88 6 10.33 12 19 14.68 7.38 2.28 13.78 1.61 17.22-1.27 6.49 1.56 15.83-.48 23.38-5.54 6.41-4.3 9.92-9.7 9.85-14.18 5.3-4.07 9.59-12.6 10.41-21.66.71-7.69-1.27-13.82-4.81-16.58zm.58 14.43a37.68 37.68 0 0 1-1.14 6.38c-2.95-5.47-6.85-8.59-10.72-10l-3.61-3.28 10.79-6.12A12.93 12.93 0 0 1 92 49.46l-.09.18a.56.56 0 0 0 .74.77 7.41 7.41 0 0 0 3.47-3.52 10.07 10.07 0 0 0 .63-1.65 27 27 0 0 1 1.08 11.08zm-30.67 9.11A12.7 12.7 0 0 0 68.57 71c-5.5-1.25-9.17 1.59-10.27 4.84a6.93 6.93 0 0 0 4.11 8.7l1.7-4a2.52 2.52 0 0 1-1.67-3.26c.72-2.12 3.25-2.49 5.44-1.92 1.93.5 2.84 3 2.75 5.14a7 7 0 0 1-6.21 6.76c-4.29.72-9.15-1-14.3-2.9-6.85-2.48-14.45-5.24-21.75-2A14.48 14.48 0 0 1 33.68 78c4.14-2.21 9.8-3.9 15.28-5.53 6.57-1.94 13.3-3.95 18.19-7.04zm3.47-9.56l-.06-.06C60.22 65 46 59.85 34.5 55.67c-4.63-1.69-8.66-3.16-11.86-3.42l13.68-12.67 17 16.21 13.58-14.5L78.5 51.8a13.24 13.24 0 0 0-7.88 4.07zM52.86 37.13a9.86 9.86 0 0 1 8.06 4.16l-7.76 8.29-8.49-8.09a9.89 9.89 0 0 1 8.19-4.36zm1.22-4.32l.51-20.28a29.39 29.39 0 0 1 12.57 4l-9 17.23a14.23 14.23 0 0 0-4.08-.96zm18.8 8L87.27 27.6a34.35 34.35 0 0 1 5.19 11.07l-13.53 7.62zm9.74-18.68c.67.65 1.32 1.33 1.93 2L69.63 37.84l-3-2.69-2.63 2.9a14.22 14.22 0 0 0-2-2l8.62-16.57a10.54 10.54 0 0 1 1.3 1.9l.09.18a.56.56 0 0 0 .99-.17 7.41 7.41 0 0 0-.81-4.88 9.82 9.82 0 0 0-.67-1.09 25.17 25.17 0 0 1 11.1 6.69zm-32.4-9.78l-.52 20.76a14.25 14.25 0 0 0-3.32 1.2l-10.7-14.14a11.18 11.18 0 0 1 3.45.11h.2a.56.56 0 0 0 .55-.92A7.41 7.41 0 0 0 35.57 17a10 10 0 0 0-1.75-.18 27.05 27.05 0 0 1 10.43-3.91 37.62 37.62 0 0 1 5.97-.58zm-19.1 9.05l11.71 15.48a14.26 14.26 0 0 0-1.36 1.56l-5.1-4.86-4.47 4.13L20 29.59a31.74 31.74 0 0 1 11.12-8.19zm-16 15a37.24 37.24 0 0 1 2.17-3.4l11.32 7.74-15.86 14.7c.66-4.47 2.33-8.23 4.92-10.39l.16-.13a.56.56 0 0 0-.37-1 7.41 7.41 0 0 0-4.6 1.81A10 10 0 0 0 11.61 47a27.05 27.05 0 0 1 3.53-10.59zm0 37.43a37.3 37.3 0 0 1-1.36-4.08A10.4 10.4 0 0 0 19 72.1a10.6 10.6 0 0 0 1.48.11 9.29 9.29 0 0 0 9-6.8l-4.16-1.35a5 5 0 0 1-5.67 3.71 5.43 5.43 0 0 1-4.85-5.1 5.61 5.61 0 0 1 1.63-4.26A7.33 7.33 0 0 1 22 56.58c2.61.13 6.51 1.55 11 3.2 6.87 2.51 15.21 5.55 23.4 5.55h.67c-3 1.07-6.18 2-9.36 3-9.87 2.94-20 6-23.61 12.6a11.29 11.29 0 0 1-.68-3.58v-.2a.56.56 0 0 0-1-.35 7.41 7.41 0 0 0-1.49 4.71 10 10 0 0 0 .18 1.75 27.05 27.05 0 0 1-5.99-9.42zm67.36 7h-.2a.56.56 0 0 0-.13 1.06 7.41 7.41 0 0 0 4.92.48 10 10 0 0 0 1.68-.54 27.05 27.05 0 0 1-7.94 7.81c-9.88 6.62-22.72 8.18-28.69 3.49L52 93a.56.56 0 0 0-.91.57 7.41 7.41 0 0 0 2.72 4.12 10.06 10.06 0 0 0 1.49 1 27 27 0 0 1-11.07-1.25 36.44 36.44 0 0 1-16-10c6.28-4.08 13.19-1.58 20.48 1.06 4.53 1.64 9.19 3.33 13.75 3.33a16.64 16.64 0 0 0 2.77-.22 11.51 11.51 0 0 0 9.15-15.4 10.07 10.07 0 0 0 3.63.69 9.32 9.32 0 0 0 6.83-2.93 8 8 0 0 0 1-10.05c-1.63-2.3-5.07-4-9.83-1.9l1.77 4c2-.9 3.66-.74 4.49.43a3.67 3.67 0 0 1-.59 4.53A5.12 5.12 0 0 1 75.73 72c-1-.43-4.36-2.22-4.2-7.44a8.62 8.62 0 0 1 7.63-8.47c7.58-1.07 12.9 5.82 15.39 12.51-2.93 6.4-7.39 11.15-12.07 12.21z" style="mix-blend-mode:multiply" fill="url(#b)"/><path d="M96.45 41.15c.17-6.68-3.76-15.38-10.28-21.72-5.94-5.77-12.43-8-16.86-6.41-5-4.8-15.15-7.22-24.88-5.54-7.61 1.32-13 4.82-14.77 9C23.18 18 15.78 24.05 11.35 32 7.59 38.73 6.91 45.14 9 49.1c-2.87 6-2.82 15.58.56 24C12.45 80.29 17 84.85 21.4 85.71c2.88 6 10.33 12 19 14.68 7.38 2.28 13.78 1.61 17.22-1.27 6.49 1.56 15.83-.48 23.38-5.54 6.41-4.3 9.92-9.7 9.85-14.18 5.3-4.07 9.59-12.6 10.41-21.66C102 50 100 43.92 96.45 41.15zM97 55.59A37.69 37.69 0 0 1 95.9 62c-2.95-5.47-6.85-8.59-10.72-10l-3.61-3.28 10.79-6.09a12.93 12.93 0 0 1-1.14 6.16l-.09.18a.56.56 0 0 0 .74.77 7.41 7.41 0 0 0 3.47-3.52 10.07 10.07 0 0 0 .66-1.73 27 27 0 0 1 1 11.1zM66.37 64.7a12.7 12.7 0 0 0 1.41 5.59c-5.5-1.25-9.17 1.59-10.27 4.84a6.93 6.93 0 0 0 4.11 8.7l1.7-4a2.52 2.52 0 0 1-1.67-3.26c.72-2.12 3.25-2.49 5.44-1.92 1.93.5 2.84 3 2.75 5.14a7 7 0 0 1-6.21 6.76c-4.29.72-9.15-1-14.3-2.9-6.85-2.48-14.45-5.24-21.75-2a14.48 14.48 0 0 1 5.31-4.29c4.14-2.21 9.8-3.9 15.28-5.53 6.58-2.03 13.3-4.04 18.2-7.13zm3.47-9.56l-.06-.06c-10.35 9.24-24.61 4-36.06-.14-4.63-1.69-8.66-3.16-11.86-3.42l13.67-12.68 17 16.21 13.58-14.5 11.6 10.52a13.24 13.24 0 0 0-7.88 4.07zM52.07 36.39a9.86 9.86 0 0 1 8.06 4.16l-7.76 8.29-8.49-8.09a9.89 9.89 0 0 1 8.19-4.36zm1.22-4.32l.51-20.28a29.39 29.39 0 0 1 12.57 4l-9 17.23a14.23 14.23 0 0 0-4.08-.95zm18.8 8l14.39-13.2a34.35 34.35 0 0 1 5.19 11.07l-13.52 7.61zm9.74-18.68c.67.65 1.32 1.33 1.93 2L68.84 37.11l-3-2.69-2.71 2.9a14.23 14.23 0 0 0-2-2l8.62-16.57a10.53 10.53 0 0 1 1.3 1.9l.09.18a.56.56 0 0 0 1.06-.15 7.41 7.41 0 0 0-.81-4.88 9.81 9.81 0 0 0-.67-1.09 25.17 25.17 0 0 1 11.12 6.67zm-32.4-9.79l-.52 20.78a14.25 14.25 0 0 0-3.32 1.2l-10.7-14.14a11.18 11.18 0 0 1 3.45.11h.2a.56.56 0 0 0 .55-.92 7.41 7.41 0 0 0-4.3-2.44A10 10 0 0 0 33 16a27.05 27.05 0 0 1 10.43-3.91 37.63 37.63 0 0 1 6-.49zm-19.1 9.07L42 36.15a14.26 14.26 0 0 0-1.36 1.56l-5.1-4.86L31.11 37l-11.87-8.14a31.74 31.74 0 0 1 11.09-8.19zm-16 15a37.26 37.26 0 0 1 2.15-3.39L27.82 40 12 54.71c.66-4.47 2.33-8.23 4.92-10.39l.16-.13a.56.56 0 0 0-.37-1A7.42 7.42 0 0 0 12.07 45a10 10 0 0 0-1.25 1.25 27.05 27.05 0 0 1 3.53-10.57zm0 37.43A37.33 37.33 0 0 1 13 69a10.4 10.4 0 0 0 5.24 2.34 10.6 10.6 0 0 0 1.48.11 9.29 9.29 0 0 0 9-6.8l-4.16-1.35a5 5 0 0 1-5.74 3.7A5.43 5.43 0 0 1 14 61.93a5.61 5.61 0 0 1 1.63-4.26 7.33 7.33 0 0 1 5.6-1.83c2.61.13 6.51 1.55 11 3.2 6.87 2.51 15.21 5.55 23.4 5.55h.67c-3 1.07-6.18 2-9.36 3-9.87 2.94-20 6-23.61 12.6a11.29 11.29 0 0 1-.68-3.58v-.2a.56.56 0 0 0-1-.35 7.41 7.41 0 0 0-1.49 4.71 10 10 0 0 0 .18 1.75 27.05 27.05 0 0 1-6.01-9.41zm67.36 7h-.2a.56.56 0 0 0-.13 1.06 7.41 7.41 0 0 0 4.92.48 10 10 0 0 0 1.72-.52 27.05 27.05 0 0 1-8 7.81c-9.88 6.62-22.72 8.18-28.69 3.49l-.16-.13a.56.56 0 0 0-.91.57A7.41 7.41 0 0 0 53 97a10.05 10.05 0 0 0 1.49 1 27 27 0 0 1-11.09-1.31 36.44 36.44 0 0 1-16-10c6.28-4.08 13.19-1.58 20.48 1.06 4.53 1.64 9.19 3.33 13.75 3.33a16.65 16.65 0 0 0 2.77-.22 11.51 11.51 0 0 0 9.15-15.4 10.07 10.07 0 0 0 3.63.69A9.32 9.32 0 0 0 84 73.19a8 8 0 0 0 1-10.05c-1.63-2.3-5.07-4-9.83-1.9l1.77 4c2-.9 3.66-.74 4.49.43a3.67 3.67 0 0 1-.59 4.53 5.12 5.12 0 0 1-5.83 1.11c-1-.43-4.36-2.22-4.2-7.44a8.62 8.62 0 0 1 7.63-8.47c7.58-1.07 12.9 5.82 15.39 12.51-3 6.34-7.46 11.09-12.14 12.17zm96.08-52.98c-1.6-.74-3.1.72-2 2.08a4 4 0 0 1 .82 2.48v33.24a4.69 4.69 0 0 1-4.6 4.7 4.69 4.69 0 0 1-4.6-4.7v-29.3c0-3.27 4.14-.8 4.14-4.67 0-1.89-.68-3.94-4.42-3.94-4.08 0-8.2 3.84-8.2 12v20.18c0 6 4.16 13.07 13.1 13.07 9.22 0 13.09-7.31 13.09-13.07V39a13 13 0 0 0-7.33-11.88zm197.6-.43c-8.95 0-12.86 6.88-13.08 12.55V60c.23 5.89 4.4 12.55 13.08 12.55 8.95 0 12.86-6.88 13.08-12.55V39.23c-.22-5.88-4.39-12.54-13.08-12.54zM380 65.18a4.69 4.69 0 0 1-4.6 4.7 4.69 4.69 0 0 1-4.6-4.7V34a4.69 4.69 0 0 1 4.6-4.7A4.69 4.69 0 0 1 380 34zM204.89 26.94A12.75 12.75 0 0 0 196 30.2c-.75-2.2-2.09-3.2-4-3.2-2.35 0-3.39 1.41-3.39 2.6 0 3 3.17 1.88 3.17 4.38v26.25c0 8.12 4.12 12 8.2 12 3.74 0 4.42-2 4.42-3.94 0-3.87-4.14-1.4-4.14-4.67V34.29a4.69 4.69 0 0 1 4.6-4.7 4.69 4.69 0 0 1 4.6 4.7v33.23a4 4 0 0 1-.82 2.48c-1.06 1.36.45 2.82 2 2.08A13 13 0 0 0 218 60.23V40c0-5.75-3.89-13.06-13.11-13.06zm72.48.06c-1.81 0-4.25.4-4.25 3.4v11.23c0 2.48-1.6 4.7-4.14 4.7s-4-2.16-4-4.7v-9.88a5.94 5.94 0 0 1 .76-3.08c1.06-1.36-.39-2.74-2-2a12 12 0 0 0-7.24 10.41c0 6.5 4 11.89 12.5 11.89a8.74 8.74 0 0 0 4.14-1v17.47c0 2.48-1.48 4.7-4.09 4.7s-4.09-2.22-4.09-4.7c0-4.18-.07-6.95 0-8.4a7.59 7.59 0 0 1 .93-3.65c.78-1.27-.46-2.75-2.07-2.13a11.32 11.32 0 0 0-7.46 10.53c0 5.37 3.5 11 12.67 11s12.57-7.31 12.57-13.07V30.44c.01-2.87-2.42-3.44-4.23-3.44zm44.77 20.48a1.44 1.44 0 0 0-2.24-1.61c-3.25 2-4.44 4.41-4.44 7.66 0 3.45 6 6.81 6 11.37a4.69 4.69 0 0 1-4.6 4.7 4.69 4.69 0 0 1-4.6-4.7V34.39c0-2.48 1.48-4.7 4.09-4.7s4.09 2.22 4.09 4.7v2.7a6.51 6.51 0 0 1-.93 3.65c-.78 1.27.41 2.59 2.07 2.13 3.87-1.08 6.55-3.61 6.55-7.28 0-3.92-4-8.55-11.76-8.55-9.22 0-12.57 7.31-12.57 13.07v19.06c0 5.76 3.88 13.07 13.09 13.07 8.47 0 13-6.53 12.41-12.27-.42-3.9-7.84-9.72-7.16-12.49zm122.62 0a1.44 1.44 0 0 0-2.24-1.61c-3.25 2-4.44 4.41-4.44 7.66 0 3.45 6 6.81 6 11.37a4.69 4.69 0 0 1-4.6 4.7 4.69 4.69 0 0 1-4.6-4.7V34.39c0-2.48 1.48-4.7 4.09-4.7s4.03 2.21 4.03 4.7v2.7a6.51 6.51 0 0 1-.93 3.65c-.78 1.27.41 2.59 2.07 2.13 3.87-1.08 6.55-3.61 6.55-7.28 0-3.92-4-8.55-11.76-8.55-9.22 0-12.57 7.31-12.57 13.07v19.06c0 5.76 3.88 13.07 13.09 13.07 8.47 0 13-6.53 12.41-12.27-.36-3.9-7.78-9.72-7.1-12.49zM237.84 26.94a12.75 12.75 0 0 0-8.89 3.25c-.75-2.19-2.08-3.15-4-3.15-2.35 0-3.39 1.41-3.39 2.6 0 3 3.17 1.88 3.17 4.38v26.21c0 8.12 4.12 12 8.2 12 3.74 0 4.42-2 4.42-3.94 0-3.87-4.14-1.4-4.14-4.67V34.29a4.69 4.69 0 0 1 4.6-4.7 4.69 4.69 0 0 1 4.6 4.7v33.23a4 4 0 0 1-.82 2.48c-1.06 1.36.45 2.81 2 2.08a13 13 0 0 0 7.26-11.85V40c.09-5.75-3.79-13.06-13.01-13.06zm220.69-.28c-1.59-.73-3.1.72-2 2.08a4 4 0 0 1 .82 2.48v38.16c0 2.88 2.43 3.4 4.24 3.4s4.25-.4 4.25-3.4V38.51a13 13 0 0 0-7.31-11.85zM497 65.71V37.43c0-5.54-5.05-10.74-12.46-10.74-7 0-11.81 4.27-11.81 8.45 0 3.2 2.58 4.65 5.11 4.65s4.84-1.35 4.84-3.77-2.9-2.46-3.23-3.63c-.48-1.72 2.49-3 4.57-3 3.11 0 4.47 3.33 4.47 8.07V47a8.73 8.73 0 0 0-4.11-1c-8.5 0-12.5 5.65-12.5 12.15v3.66c0 5.37 3.38 11 12.54 11a12.1 12.1 0 0 0 8.44-3 3.92 3.92 0 0 0 3.91 2.9c2.35 0 3.39-1.41 3.39-2.6.05-2.99-3.16-1.9-3.16-4.4zm-12.57 4.43c-2.61 0-4.09-2.22-4.09-4.7V53.31c0-2.54 1.51-4.7 4-4.7s4 2.06 4.11 4.43v12.4c.11 2.48-1.36 4.7-3.98 4.7zm-338.87-38c-.33 1.17-3.23 1.17-3.23 3.63s2.4 3.77 4.84 3.77 5.11-1.45 5.11-4.65c0-4.18-3.25-8.45-10.24-8.45-5.3 0-11.7 4.33-11.7 11 0 9.17 16.07 21.21 16.07 26.56 0 8.49-9.61 6.72-8.57 3 .33-1.17 3.23-1.17 3.23-3.63s-2.4-3.77-4.84-3.77-5.11 1.45-5.11 4.65c0 4.18 3.25 8.45 10.24 8.45 5.3 0 12.05-4.38 12.05-11 0-9.32-15.85-20-15.85-27.35 0-7.56 8.98-5.7 8-2.21zm205.9 18.27c-1.66-.57-3.1.72-2 2.08a4 4 0 0 1 .82 2.48V65.2c0 2.54-1.53 4.7-4.07 4.7s-4.07-2.16-4.07-4.7v-9c0-2 .24-5.75 2.16-8 .55.05 1.12.09 1.72.09 2.4 0 4.33-.69 4.33-2.21 0-1.71-2.89-2.23-6.26-1.3-1.8-1.4-3.21-3.9-3.21-8 0-3.83 1.35-7.33 4.47-7.33 2.08 0 4 1.32 3.53 3-.33 1.17-3.23 1.17-3.23 3.63s2.4 3.77 4.84 3.77 5.11-1.45 5.11-4.65c0-4.18-3.25-8.45-10.24-8.45-7.41 0-11.7 5.2-11.7 10.74a10.35 10.35 0 0 0 5.86 9.41 13 13 0 0 0-5.95 11.1v1.51c0 6 3.63 13.07 12.57 13.07 7.77 0 12-6.59 12-12.64a9.41 9.41 0 0 0-6.68-9.53zm61.66-1.99A11.29 11.29 0 0 0 420.23 38c0-5.37-3.5-11-12.67-11S395 34.36 395 40.11v29.27c0 2.88 2.43 3.4 4.24 3.4s4.25-.4 4.25-3.4V49.9h3.74c4 0 5.05 5.9 5.05 8.88V68a4 4 0 0 1-.82 2.48c-1.06 1.36.45 2.81 2 2.08a13 13 0 0 0 7.26-11.85v-.18a13.23 13.23 0 0 0-7.6-12.11zm-9.65-1.56V34.39c0-2.48 1.48-4.7 4.09-4.7s4.09 2.22 4.09 4.7c0 4.18.07 6.95 0 8.4a7.73 7.73 0 0 1-1.65 4.47 11.68 11.68 0 0 0-2.83-.39z" fill="#fff"/></g></g></svg>