<svg xmlns="http://www.w3.org/2000/svg" xmlns:xlink="http://www.w3.org/1999/xlink" version="1" width="1062.992" height="855.354"><defs><linearGradient id="a"><stop offset="0" stop-color="#7fd3f3"/><stop offset="1" stop-color="#017cc2"/></linearGradient><radialGradient cx="307.883" cy="189.888" r="388.894" fx="307.883" fy="189.888" id="b" xlink:href="#a" gradientUnits="userSpaceOnUse" gradientTransform="matrix(1.5231 1.63242 -1.50002 1.39956 81.913 -616.678)"/></defs><path d="M138.705 35.424h777.787v780.698H138.705V35.424z" fill="#fff"/><path d="M88.74 799.963H81.9c-.868-2.755-1.022-7.894-1.022-9.132 0-2.508-.403-5.077-5.077-5.077H65.74v14.209h-6.037V765.29h16.098c5.51 0 11.64 1.95 11.64 9.659 0 4.365-1.827 6.47-3.746 7.8 1.578.899 2.94 2.385 3.126 6.316l.248 6.006c.062 1.733.248 2.074 1.672 2.879v2.012zm-7.46-24.549c0-4.365-3.003-4.736-5.17-4.736H65.74v9.658h9.596c3.189 0 5.944-.743 5.944-4.922m28.48 7.584c0-20.524-16.655-36.962-37.179-36.962s-37.148 16.438-37.148 36.962c0 20.525 16.624 36.932 37.148 36.932 20.524 0 37.18-16.407 37.18-36.932m-5.635 0c0 17.43-13.373 31.545-31.545 31.545-18.14 0-31.514-14.116-31.514-31.545 0-17.428 13.312-31.544 31.514-31.544 18.234 0 31.545 14.116 31.545 31.544" fill="#1790cd"/><path d="M916.492 460.584H875.97c-12.104 0-21.174 2.817-27.428 7.337v-7.337h-59.746c-9.473 0-20.896 2.291-26.19 7.337v-7.337h-106.77v7.337c-8.543-6.037-22.845-7.337-29.594-7.337h-70.488v7.337c-6.749-6.501-21.546-7.337-30.616-7.337h-79.033l-18.079 19.565-16.81-19.565h-117.85v127.604H409.02l18.543-19.874 17.552 19.812 71.2.062v-30.09h7.09c9.41 0 20.555-.217 30.276-4.396v34.486h58.972v-33.403h2.88c3.59-.03 3.869.28 3.869 3.684v29.719h178.527c11.238 0 23.342-2.91 29.873-8.08v8.08h56.59c11.732 0 23.34-1.703 32.101-5.851v233.785H138.705V430.804h37.334l8.42-20.463h18.821l8.452 20.463h73.49v-15.571l6.595 15.602h38.045l6.625-15.85v15.819H519.04l-.03-33.403h3.56c2.63 0 3.25.31 3.25 4.365v29.038h94.449l-.031-7.925c7.522 4.086 19.348 7.925 35.074 7.925h39.717l8.575-20.463h18.822l8.451 20.463h76.34v-19.38l11.732 19.38h61.325V303.2H819.63v15.045l-8.7-15.045h-62.316v15.045l-7.646-15.045h-84.171c-14.179 0-26.654 1.889-36.56 7.337V303.2h-58.013v7.337c-6.594-5.572-15.17-7.337-24.766-7.337H325.25l-14.364 32.907-14.519-32.907h-66.773v15.045L222.04 303.2h-56.99l-26.344 60.52V35.425h777.787v425.16m-55.598-47.797h-31.142l-41.39-68.631.032 68.631H743.91l-8.42-20.493h-45.507l-8.39 20.493h-25.446c-10.742 0-24.177-2.477-31.792-10.185-7.677-7.832-11.578-18.264-11.578-34.919 0-13.59 2.415-26.004 11.733-35.755 7.027-7.275 18.202-10.711 33.278-10.711h20.896v19.627l-20.462-.031c-8.08 0-12.63 1.207-16.903 5.479-3.839 3.808-6.408 11.113-6.408 20.74 0 9.752 1.92 16.749 6.222 21.454 3.22 3.56 9.287 4.674 15.17 4.674h9.812l30.802-71.943h32.567l37.055 86.586v-86.586h33.402l38.449 63.74-.031-63.74h22.536v91.57zm-281.18 0h22.382v-91.601h-22.382v91.601zm-23.836-87.143c-7.059-4.025-15.262-4.427-26.345-4.427h-50.366v91.57h21.855v-33.34h23.465c7.956 0 12.755.712 15.881 4.024 4.056 4.303 3.591 12.29 3.591 17.738v11.578h22.01v-18.172c0-7.956-.557-12.166-3.621-16.592-1.858-2.663-5.975-5.944-10.773-7.77 5.758-2.26 15.57-9.783 15.57-24.302 0-10.246-4.24-16.252-11.267-20.307m-91.85 68.012l-51.17.062v-18.141l49.933.03v-18.82h-49.934v-16.5h51.172v-19.07h-73.027v91.57h73.027v-19.131zm-89.34-72.439h-36.405l-26.314 62.1-28.51-62.1h-35.787l.031 86.617-37.086-86.617h-32.566l-39.16 91.57h23.836l8.39-20.493h45.506l8.42 20.493h44.485v-71.789l31.792 71.789h19.225l31.7-71.696v71.696h22.443v-91.57zm352.937 52.007l-14.92-36.374-14.89 36.374h29.81zm-189.238-14.457c-2.94 1.765-6.5 1.889-10.711 1.889h-26.654v-20.37h26.964c3.87 0 7.8.124 10.401 1.58 2.724 1.516 4.489 4.333 4.489 8.203 0 3.931-1.703 7.089-4.489 8.698m-359.439 14.457l14.89-36.374 14.922 36.374h-29.812M921.26 541.32c0 19.472-12.228 28.821-34.362 28.821h-42.225v-19.627h42.07c4.055 0 6.965-.557 8.792-2.228a8.087 8.087 0 0 0 2.57-5.975c0-2.724-1.115-4.767-2.663-6.068-1.64-1.393-3.87-1.95-7.615-2.043-20.432-.557-46.126.65-46.126-28.387 0-13.126 8.327-27.242 31.328-27.242h43.587v19.658h-39.903c-3.931 0-6.563.123-8.699 1.547-2.322 1.517-3.25 3.684-3.25 6.625 0 3.405 1.981 5.789 4.798 6.78 2.229.774 4.736.96 8.39 1.021l11.732.31c12.135.278 20.06 2.29 24.982 7.367 4.334 4.551 6.594 9.907 6.594 19.441m-92.035-19.44c-4.922-5.046-12.908-7.09-25.044-7.368l-11.701-.31c-3.653-.062-6.13-.247-8.39-1.021-2.786-.991-4.767-3.375-4.767-6.78 0-2.94.929-5.108 3.22-6.625 2.136-1.424 4.798-1.547 8.76-1.547h40.09V478.57h-43.804c-23.001 0-31.329 14.085-31.329 27.242 0 29.068 25.695 27.83 46.095 28.387 3.746.093 6.006.65 7.615 2.043 1.548 1.3 2.694 3.344 2.694 6.068 0 2.57-1.146 4.612-2.6 5.975-1.827 1.671-4.706 2.228-8.792 2.228H758.83v19.627h42.596c22.134 0 34.362-9.349 34.362-28.82 0-9.535-2.229-14.89-6.563-19.442m-83.397 29.224l-51.171-.031v-18.08h49.964V514.14l-49.964.031v-16.5h51.171v-19.1h-73.027v91.57h73.027v-19.038zm-96.4-68.074c-7.088-4.056-15.26-4.458-26.312-4.458h-50.398v91.57h21.825v-33.278l23.527-.031c7.956 0 12.723.712 15.88 3.993 4.056 4.334 3.56 12.29 3.56 17.738v11.578h22.042V552c-.031-7.957-.558-12.167-3.653-16.593-1.827-2.694-5.944-5.975-10.711-7.802 5.696-2.26 15.509-9.75 15.509-24.3 0-10.216-4.241-16.222-11.268-20.277m-123.765-4.458h-69.9l-27.893 30.059-26.808-30.059h-88.041v91.57h86.679l27.954-30.183 26.901 30.183h42.566v-30.647h27.18c19.1 0 38.046-5.294 38.046-30.647 0-25.323-19.441-30.276-36.684-30.276m106.305 37.612c-2.972 1.703-6.532 1.827-10.742 1.827l-26.684.03V497.67h26.994c3.87 0 7.8.124 10.432 1.548 2.724 1.548 4.458 4.365 4.458 8.235 0 3.931-1.703 7.089-4.458 8.73m-106.553 4.52h-28.294V497.67h28.542c7.832 0 13.218 3.25 13.218 11.176 0 7.863-5.138 11.856-13.466 11.856m-83.645 3.87l33.495-36.065v73.275l-33.495-37.21zm-53.153 26.499h-53.71v-18.08h47.89V514.14l-47.89.031v-16.5h54.67l23.991 26.623-24.95 26.778" fill="url(#b)"/></svg>