<svg xmlns="http://www.w3.org/2000/svg" xmlns:xlink="http://www.w3.org/1999/xlink" viewBox="0 0 1167.81 255.4"><defs><style>.cls-1{fill:url(#Безымянный_градиент_4);}.cls-2{fill:url(#Безымянный_градиент_4-2);}.cls-3{fill:#fff;}.cls-4{fill:#f2d57c;}</style><linearGradient id="Безымянный_градиент_4" x1="21.47" y1="3115.64" x2="219.18" y2="3313.35" gradientTransform="translate(0 -3094)" gradientUnits="userSpaceOnUse"><stop offset="0" stop-color="#ad832d"/><stop offset="0.6" stop-color="#dbae27"/><stop offset="1" stop-color="#835723"/></linearGradient><linearGradient id="Безымянный_градиент_4-2" x1="18.13" y1="3223.12" x2="239.75" y2="3223.12" xlink:href="#Безымянный_градиент_4"/></defs><title>white-wide-logo</title><g id="Слой_2" data-name="Слой 2"><g id="Слой_1-2" data-name="Слой 1"><g id="Layer_2" data-name="Layer 2"><g id="Layer_1-2" data-name="Layer 1-2"><path class="cls-1" d="M242.24,89.34c-1.88-19-12.66-40.1-28.84-55.58C198.63,19.21,181.74,12,166.73,13.13,150.31,2.1,125-2.58,101.3,1.4,82.07,4.69,66.83,13.13,58.62,24.86,40.8,31.66,23.21,47.6,12.42,67.07,2.81,84.19-.24,101.31,3.75,115.14c-6.1,18-4.69,41.74,3.75,62.61,7.27,18.3,18.53,31.19,31.89,37.05,10.32,15.95,29.55,30,50.88,36.59a79.87,79.87,0,0,0,24.62,4A50.59,50.59,0,0,0,139,250c2.35.24,4.93.47,7.27.47a100.06,100.06,0,0,0,53.24-16.88c16.18-10.79,26.73-24.62,29.55-38.69,13.37-13.37,23.21-35.17,25.09-57.45C255.61,117,251.38,100.36,242.24,89.34Z"/><path class="cls-2" d="M228.17,98c.47-15.71-8.91-36.11-24.16-50.88-13.83-13.6-29.07-18.76-39.63-15C152.66,20.86,129,15.24,106,19.22,88.17,22.27,75.5,30.48,71.29,40.33,56,43.84,38.69,58.15,28.37,76.68c-8.91,15.94-10.32,30.71-5.39,40.1-6.8,14.07-6.56,36.58,1.41,56.28,6.8,16.88,17.35,27.66,27.66,29.55,6.8,14.07,24.16,28.14,44.56,34.47C114,242.48,129,240.83,137,234c15.24,3.75,37.05-1.17,54.87-12.89,15-10.09,23.22-22.75,23.22-33.3,12.43-9.61,22.51-29.55,24.39-50.89C241.07,118.89,236.38,104.58,228.17,98Zm1.41,34A106.22,106.22,0,0,1,227,147c-7-12.9-16.18-20.17-25.09-23.45l-8.44-7.74,25.32-14.31a34.76,34.76,0,0,1-2.57,14.55l-.24.47a1.8,1.8,0,0,0,.47,1.87,1,1,0,0,0,1.18,0,17.4,17.4,0,0,0,8.21-8.21,12.44,12.44,0,0,0,1.41-3.74A65.78,65.78,0,0,1,229.58,132Zm-72,21.33a29.46,29.46,0,0,0,3.28,13.14c-12.89-3.05-21.57,3.75-24.15,11.25a16.23,16.23,0,0,0,9.61,20.41l4-9.38a5.94,5.94,0,0,1-4-7.28v-.23c1.64-4.93,7.74-5.86,12.66-4.46,4.46,1.17,6.56,7,6.56,12A16.4,16.4,0,0,1,151,204.7c-10.08,1.64-21.34-2.35-33.54-6.8-16.18-5.86-34-12.19-51.12-4.68A33.06,33.06,0,0,1,78.78,182.9c9.62-5.16,23-9.15,35.88-12.9C130.39,165.31,146.1,160.63,157.59,153.35Zm8.2-22.5h0c-24.39,21.34-57.69,9.38-84.66-.48-10.78-4-20.4-7.5-27.9-8L85.36,92.62l39.86,38,31.89-34,27.2,24.62A30.35,30.35,0,0,0,165.79,130.85ZM124.05,87a23,23,0,0,1,19,9.85l-18.3,19.46-19.93-19A22.73,22.73,0,0,1,124.05,87Zm2.81-10.31L128,29.07a70.58,70.58,0,0,1,29.55,9.38L136.48,78.79a43.42,43.42,0,0,0-9.62-2.11ZM171,95.44l33.76-31a80.31,80.31,0,0,1,12.2,26l-31.65,17.82Zm23-43.63c1.64,1.64,3,3,4.46,4.69L163.45,88.63l-7-6.34-6.1,6.8a44.09,44.09,0,0,0-4.69-4.68L165.8,45.48a30,30,0,0,1,3,4.46l.23.47a1.24,1.24,0,0,0,1.88.24c.24-.24.47-.47.47-.7a17.82,17.82,0,0,0-1.87-11.5,17.22,17.22,0,0,0-1.64-2.57,61.17,61.17,0,0,1,26,15.93Zm-76-23-1.17,48.78A37,37,0,0,0,109,80.42L84,47.36a30.07,30.07,0,0,1,8,.23h.47A1.32,1.32,0,0,0,94,46.65a1.72,1.72,0,0,0-.24-1.17,16.72,16.72,0,0,0-10.08-5.62,25.38,25.38,0,0,0-4.23-.48,65.77,65.77,0,0,1,24.39-9.14A72.28,72.28,0,0,1,118,28.83ZM73.17,49.94l27.44,36.35c-1.18,1.17-2.11,2.35-3.29,3.75l-12-11.5L74.82,88.15l-27.91-19A76.25,76.25,0,0,1,73.17,49.94ZM35.65,85.11a89.8,89.8,0,0,1,5.16-8L67.31,95.2,30,129.9c1.64-10.55,5.4-19.23,11.5-24.39l.47-.24a1.42,1.42,0,0,0,.24-1.87,1.79,1.79,0,0,0-1.18-.47,18.06,18.06,0,0,0-10.78,4.22,18.34,18.34,0,0,0-3.05,3,67.48,67.48,0,0,1,8.43-25.09Zm0,88c-1.18-3.05-2.35-6.34-3.29-9.61a24.23,24.23,0,0,0,12.2,5.62,17.28,17.28,0,0,0,3.51.24,21.86,21.86,0,0,0,21.1-15.95l-9.84-3.28A11.8,11.8,0,0,1,46,158.75a12.58,12.58,0,0,1-11.26-12,13.53,13.53,0,0,1,3.75-10.08,16.56,16.56,0,0,1,13.13-4.22c6.1.23,15.25,3.51,25.79,7.5,16.19,5.86,35.65,12.9,54.87,12.9h1.64c-7,2.58-14.54,4.69-22,7-23.22,6.8-46.9,14.07-55.34,29.56A33.39,33.39,0,0,1,54.86,181v-.47a1.36,1.36,0,0,0-1.41-1.41,1.2,1.2,0,0,0-.94.47,18.62,18.62,0,0,0-3.51,11,25.24,25.24,0,0,0,.47,4.22,60.54,60.54,0,0,1-13.82-21.8Zm157.82,16.41H193a1.23,1.23,0,0,0-.93,1.63c0,.48.47.71.7.94a17.71,17.71,0,0,0,11.49,1.18,25.11,25.11,0,0,0,4-1.18,65.75,65.75,0,0,1-18.53,18.3c-23.22,15.48-53.23,19.23-67.3,8.2l-.24-.23a1.41,1.41,0,0,0-1.88,0,1,1,0,0,0-.23,1.17,17.81,17.81,0,0,0,6.33,9.61,33.06,33.06,0,0,0,3.51,2.35,61.69,61.69,0,0,1-26-3.05,86.47,86.47,0,0,1-37.53-23.45c14.77-9.61,31-3.75,48.07,2.57,10.55,3.75,21.58,7.74,32.37,7.74a62.7,62.7,0,0,0,6.56-.47,27,27,0,0,0,23-30.49,24.71,24.71,0,0,0-1.41-5.63,22.24,22.24,0,0,0,24.39-5.16,18.52,18.52,0,0,0,2.35-23.45c-3.75-5.4-12-9.38-23-4.46L182.9,155c4.69-2.11,8.67-1.63,10.55.94A8.52,8.52,0,0,1,192,166.46,12.17,12.17,0,0,1,178,168.81c-2.35-.94-10.32-5.16-9.85-17.36a20.24,20.24,0,0,1,17.82-19.93c17.82-2.57,30.25,13.6,36.11,29.32-7,14.79-17.56,26-28.58,28.63Z"/><path class="cls-3" d="M226.29,96.37c.48-15.71-8.91-36.11-24.15-50.88-13.83-13.6-29.08-18.76-39.64-15-11.72-11.26-35.41-16.88-58.39-12.89-17.82,3-30.49,11.25-34.7,21.1C54.17,42.2,36.81,56.51,26.5,75c-8.91,15.71-10.32,30.72-5.63,40.1-6.79,14.07-6.56,36.58,1.42,56.28C29.08,188.3,39.64,199.09,50,201c6.8,14.07,24.16,28.14,44.56,34.47,17.36,5.4,32.36,3.75,40.34-3,15.24,3.74,37.05-1.18,54.87-12.9,15-10.08,23.21-22.74,23.21-33.3,12.43-9.61,22.52-29.55,24.39-50.88C239.19,117,234.5,102.94,226.29,96.37Zm1.18,33.77a81.69,81.69,0,0,1-2.58,15c-7-12.89-16.18-20.16-25.09-23.45L191.35,114l25.33-14.31a34.71,34.71,0,0,1-2.57,14.54l-.24.48a1.8,1.8,0,0,0,.47,1.87,1,1,0,0,0,1.18,0,17.49,17.49,0,0,0,8.21-8.21,27.8,27.8,0,0,0,1.63-4A63.76,63.76,0,0,1,227.47,130.14Zm-71.76,21.34A28.64,28.64,0,0,0,159,164.61c-12.9-3.05-21.58,3.75-24.15,11.26a16.21,16.21,0,0,0,9.61,20.4l4-9.38a5.92,5.92,0,0,1-4-7.27v-.24c1.64-4.92,7.73-5.86,12.66-4.46,4.46,1.18,6.56,7,6.56,12a16.42,16.42,0,0,1-14.54,16c-10.09,1.64-21.58-2.35-33.54-6.8-16.18-5.86-33.77-12.2-51.12-4.69a34.81,34.81,0,0,1,12.43-10.08c9.61-5.16,23-9.15,35.88-12.9C128.51,163.44,144.22,158.75,155.71,151.48Zm8.2-22.28h0c-24.39,21.58-57.91,9.15-84.65-.47-10.79-4-20.41-7.51-27.91-8L83.48,91l39.86,38,31.89-34,27.21,24.62a29.31,29.31,0,0,0-18.53,9.62ZM122.18,85.11a23,23,0,0,1,19,9.85l-18.29,19.47L103,95.44A23.59,23.59,0,0,1,122.18,85.11ZM125,75l1.17-47.61a70.41,70.41,0,0,1,29.55,9.39l-21.1,40.33A33.87,33.87,0,0,0,125,75ZM169.08,93.8l33.76-31a80.73,80.73,0,0,1,12.2,26l-31.66,17.82Zm23-43.86c1.63,1.64,3,3.05,4.45,4.69L161.58,86.75l-7-6.33-6.33,6.8a44.19,44.19,0,0,0-4.69-4.69l20.17-38.92a30.4,30.4,0,0,1,3.05,4.45l.23.48a1.29,1.29,0,0,0,1.64.7c.47-.24.7-.47.7-.94a17.78,17.78,0,0,0-1.87-11.49,16.8,16.8,0,0,0-1.64-2.58,62.75,62.75,0,0,1,26.26,15.71Zm-76-23-1.17,48.77a37.41,37.41,0,0,0-7.74,2.81L81.84,45.48a29.57,29.57,0,0,1,8,.24h.48a1.34,1.34,0,0,0,1.64-.94c0-.47,0-.94-.24-1.17A16.76,16.76,0,0,0,81.61,38a25.36,25.36,0,0,0-4.23-.47,65.62,65.62,0,0,1,24.39-9.15A74.7,74.7,0,0,1,116.08,27ZM71.29,48.3,98.73,84.65c-1.17,1.17-2.11,2.35-3.28,3.75l-12-11.49L73.17,86.52l-27.9-19A73.26,73.26,0,0,1,71.29,48.3ZM33.77,83.48c1.64-2.82,3.29-5.4,4.92-8L65.2,93.56,28.15,128c1.63-10.54,5.39-19.23,11.49-24.39l.47-.23a1.43,1.43,0,0,0,.24-1.88,1.82,1.82,0,0,0-1.17-.47,18.22,18.22,0,0,0-10.79,4.22,19.13,19.13,0,0,0-3.05,3,67.62,67.62,0,0,1,8.43-24.85Zm0,87.7a65.57,65.57,0,0,1-3.05-9.61,22.17,22.17,0,0,0,12.2,5.4,18.06,18.06,0,0,0,3.51.23,21.88,21.88,0,0,0,21.11-15.94l-9.85-3a11.52,11.52,0,0,1-13.37,8.67,12.58,12.58,0,0,1-11.26-11.95,13.6,13.6,0,0,1,3.75-10.09,16.88,16.88,0,0,1,13.13-4.22c6.1.24,15.25,3.51,25.8,7.51C91.92,144,111.38,151,130.61,151h1.63c-7,2.58-14.54,4.69-22,7-23.22,6.8-46.9,14.07-55.34,29.55a33.39,33.39,0,0,1-1.64-8.45v-.47a1.36,1.36,0,0,0-1.41-1.41,1.25,1.25,0,0,0-.94.47,18.67,18.67,0,0,0-3.51,11,26.46,26.46,0,0,0,.47,4.23,55,55,0,0,1-14.06-21.82Zm157.82,16.41h-.47a1.24,1.24,0,0,0-.94,1.64c0,.47.47.7.7.94a17.67,17.67,0,0,0,11.5,1.17,19.93,19.93,0,0,0,4-1.17,63.52,63.52,0,0,1-18.76,18.29c-23.21,15.48-53.23,19.23-67.3,8.21l-.47-.24a1.43,1.43,0,0,0-1.88,0,1,1,0,0,0-.23,1.18,16.33,16.33,0,0,0,6.56,9.61,33.57,33.57,0,0,0,3.51,2.35,65.85,65.85,0,0,1-26-3,86.51,86.51,0,0,1-37.52-23.46c14.77-9.61,31-3.75,48.07,2.58,10.55,3.75,21.58,7.74,32.37,7.74a60.11,60.11,0,0,0,6.56-.48,27,27,0,0,0,23-30.49,24.63,24.63,0,0,0-1.41-5.62,21.88,21.88,0,0,0,24.39-5.4,18.52,18.52,0,0,0,2.35-23.45c-3.75-5.4-12-9.38-23-4.46l4.22,9.38c4.69-2.11,8.67-1.64,10.55.94a8.52,8.52,0,0,1-1.41,10.55,11.79,11.79,0,0,1-13.6,2.57c-2.35-.93-10.32-5.16-9.85-17.35a20.23,20.23,0,0,1,17.82-19.93c17.82-2.58,30.25,13.59,36.11,29.31-7.25,15-17.8,26.07-28.82,28.64Z"/></g></g><path class="cls-3" d="M412,49.48c-3.75-1.64-7.28,1.63-4.69,4.92a10.26,10.26,0,0,1,1.87,5.86v77.85a10.8,10.8,0,0,1-10.78,11h0a10.81,10.81,0,0,1-10.79-11V69.4c0-7.74,9.62-1.88,9.62-11,0-4.46-1.64-9.15-10.32-9.15-9.62,0-19.24,8.91-19.24,28.14v47.37c0,14.07,9.85,30.72,30.72,30.72,21.58,0,30.72-17.12,30.72-30.72V77.37A30.38,30.38,0,0,0,412,49.48Z"/><path class="cls-3" d="M875.39,48.3c-21.1,0-30.25,16.18-30.71,29.55h0v48.77h0c.47,13.84,10.32,29.55,30.71,29.55,21.11,0,30.25-16.18,30.72-29.55h0V77.85h0C905.41,64,895.8,48.3,875.39,48.3Zm10.79,90.28a10.81,10.81,0,0,1-10.79,11h0a10.8,10.8,0,0,1-10.78-11V65.42a10.8,10.8,0,0,1,10.78-11h0a10.81,10.81,0,0,1,10.79,11Z"/><path class="cls-3" d="M475.57,49a29.61,29.61,0,0,0-20.87,7.74c-1.88-5.16-4.92-7.51-9.38-7.51-5.63,0-8,3.29-8,6.1,0,7,7.51,4.46,7.51,10.32V84.18h0v42.91c0,19,9.61,28.14,19.23,28.14,8.68,0,10.32-4.69,10.32-9.15,0-9.14-9.61-3.28-9.61-11V66.36a10.81,10.81,0,0,1,10.79-11h0a10.81,10.81,0,0,1,10.78,11v77.85a10.26,10.26,0,0,1-1.87,5.86c-2.58,3.28,1.17,6.56,4.68,4.92a30.94,30.94,0,0,0,17.36-27.66V80C506.28,66.12,497.15,49,475.57,49Z"/><path class="cls-3" d="M645.58,49c-4.22,0-10.08.94-10.08,8V83.24c0,5.86-3.75,11-9.61,11s-9.38-5.16-9.38-11V60a13.58,13.58,0,0,1,1.87-7.27c2.58-3.28-.94-6.33-4.69-4.69a27.79,27.79,0,0,0-16.88,24.4c0,15.24,9.38,27.9,29.32,27.9A19.38,19.38,0,0,0,635.74,98v41c0,5.86-3.52,11-9.61,11s-9.62-5.16-9.62-11c0-9.85-.23-16.18,0-19.7a18.88,18.88,0,0,1,2.12-8.67c1.87-3.05-1.18-6.56-4.93-4.92a26.85,26.85,0,0,0-17.58,24.61c0,12.66,8.21,25.8,29.78,25.8s29.55-17.12,29.55-30.72V57.21C655.43,50.41,649.81,49,645.58,49Z"/><path class="cls-3" d="M750.4,97.07a3.08,3.08,0,0,0-2.11-4.22,2.78,2.78,0,0,0-3,.47c-7.74,4.69-10.32,10.32-10.32,18.06,0,8.21,14.07,16,14.07,26.73a10.81,10.81,0,0,1-10.79,11h0a10.81,10.81,0,0,1-10.78-11V66.59c0-5.87,3.51-11,9.61-11s9.61,5.16,9.61,11v6.33a15.78,15.78,0,0,1-2.11,8.67c-1.88,3,.94,6.1,4.92,4.93,9.15-2.58,15.25-8.45,15.25-17.12,0-9.15-9.39-19.93-27.67-19.93-21.58,0-29.55,17.12-29.55,30.71V125c0,13.6,9.15,30.71,30.72,30.71,19.93,0,30.48-15.24,29.07-28.84C766.35,117.24,749,103.64,750.4,97.07Z"/><path class="cls-3" d="M1038.14,97.07a3.08,3.08,0,0,0-2.12-4.22,2.77,2.77,0,0,0-3,.47c-7.74,4.69-10.32,10.32-10.32,18.06,0,8.21,14.07,16,14.07,26.73a10.81,10.81,0,0,1-10.79,11h0a10.8,10.8,0,0,1-10.78-11V66.59c0-5.87,3.51-11,9.61-11s9.38,5.16,9.38,11v6.33a15.78,15.78,0,0,1-2.11,8.67c-1.88,3,.94,6.1,4.92,4.93,9.15-2.58,15.25-8.45,15.25-17.12,0-9.15-9.39-19.93-27.67-19.93C1003,49.47,995,66.59,995,80.18V125c0,13.6,9.14,30.71,30.71,30.71,19.94,0,30.49-15.24,29.08-28.84C1053.84,117.24,1036.5,103.64,1038.14,97.07Z"/><path class="cls-3" d="M552.72,49a29.61,29.61,0,0,0-20.87,7.74c-1.88-5.16-4.92-7.27-9.38-7.27-5.4,0-8,3.28-8,6.09,0,7,7.51,4.46,7.51,10.32V84.41h0v42.92c0,19,9.61,28.14,19.23,28.14,8.68,0,10.32-4.69,10.32-9.15,0-9.15-9.61-3.29-9.61-11V66.59a10.82,10.82,0,0,1,10.79-11h0a10.82,10.82,0,0,1,10.78,11v77.85a10.26,10.26,0,0,1-1.87,5.86c-2.58,3.28,1.17,6.56,4.68,4.92a30.73,30.73,0,0,0,17.12-27.67V80.18C583.44,66.12,574.53,49,552.72,49Z"/><path class="cls-3" d="M1070.26,48.3c-3.75-1.64-7.27,1.64-4.68,4.92a10.27,10.27,0,0,1,1.87,5.87v89.58c0,6.8,5.62,8,9.85,8s10.08-.94,10.08-8V76A29.91,29.91,0,0,0,1070.26,48.3Z"/><path class="cls-3" d="M1160.54,139.76V73.63c0-12.9-11.72-25.09-29.31-25.09-16.42,0-27.67,10.08-27.67,19.93,0,7.51,6.1,11,12,11s11.26-3.29,11.26-8.91-6.8-5.86-7.51-8.45c-1.17-4,5.86-7,10.79-7,7.27,0,10.54,7.74,10.54,19V96.37A20.08,20.08,0,0,0,1131,94c-19.93,0-29.31,13.37-29.31,28.62v8.67c0,12.66,8,25.79,29.31,25.79a28.64,28.64,0,0,0,19.7-7,9,9,0,0,0,9.14,6.8c5.4,0,8-3.29,8-6.1C1168.05,143.27,1160.54,145.62,1160.54,139.76ZM1131,150.31c-6.09,0-9.61-5.17-9.61-11V110.91c0-5.86,3.52-11,9.39-11s9.38,4.92,9.61,10.32v29.07c.47,5.87-3.05,11-9.39,11Z"/><path class="cls-3" d="M336.51,61.2C335.81,64,329,64,329,69.64s5.62,8.91,11.25,8.91,12-3.51,12-11c0-9.85-7.73-19.93-23.91-19.93-12.44,0-27.44,10.08-27.44,25.79,0,21.58,37.75,49.72,37.75,62.38,0,19.93-22.52,15.71-20.17,7,.7-2.82,7.51-2.82,7.51-8.45,0-5.86-5.63-8.91-11.26-8.91s-12,3.51-12,10.78c0,9.85,7.74,19.94,23.92,19.94,12.43,0,28.14-10.32,28.14-25.8,0-21.8-37.29-46.89-37.29-64C317.75,48.54,338.62,53,336.51,61.2Z"/><path class="cls-3" d="M819.35,103.88c-4-1.41-7.27,1.64-4.69,4.92a10.21,10.21,0,0,1,1.88,5.87v23.91c0,5.86-3.52,11-9.61,11h0c-5.87,0-9.62-5.16-9.62-11v-21.1c0-4.69.48-13.6,5.16-18.76,1.18,0,2.58.24,4,.24,5.63,0,10.08-1.64,10.08-5.16,0-4-6.79-5.16-14.77-3-4.22-3.29-7.5-9.15-7.5-18.76,0-8.91,3.28-17.12,10.54-17.12,4.93,0,9.39,3.05,8.21,7-.7,2.81-7.51,2.81-7.51,8.44s5.63,8.91,11.26,8.91,12-3.51,12-11c0-9.85-7.73-19.93-23.92-19.93-17.35,0-27.44,12.2-27.44,25.09a24,24,0,0,0,13.84,22,29.86,29.86,0,0,0-13.84,26V125c0,14.07,8.45,30.71,29.56,30.71,18.29,0,28.14-15.48,28.14-29.55A22.47,22.47,0,0,0,819.35,103.88Z"/><path class="cls-3" d="M963.8,99.42A26.17,26.17,0,0,0,980.44,75c0-12.66-8.2-25.79-29.77-25.79S921.12,66.59,921.12,80v68.72c0,6.8,5.62,8,9.84,8s10.09-.94,10.09-8V102.94h8.67c9.38,0,11.72,13.84,11.72,20.87v21.58a10.26,10.26,0,0,1-1.87,5.86c-2.58,3.29,1.17,6.56,4.68,4.92a30.81,30.81,0,0,0,17.12-27.9v-.47A30.06,30.06,0,0,0,963.8,99.42Zm-22.52-3.75V66.36c0-5.86,3.52-11,9.61-11s9.61,5.16,9.61,11c0,9.84.24,16.42,0,19.69a19.26,19.26,0,0,1-3.74,10.55,31.74,31.74,0,0,0-6.57-.94h-8.91Z"/><path class="cls-4" d="M329,196.1h-7v22.79a2.76,2.76,0,0,1-2.92,2.93h-.3a2.76,2.76,0,0,1-2.92-2.93V196.1h-7a3.07,3.07,0,0,1,0-6.13h20.45a3,3,0,0,1,2.93,3.21A4.65,4.65,0,0,1,329,196.1Z"/><path class="cls-4" d="M379.21,209l4.09,8.17a2.17,2.17,0,0,1,.3,1.47,3,3,0,0,1-3.21,2.92,3.21,3.21,0,0,1-2.92-1.76,110.38,110.38,0,0,0-5.27-10.22h-9.05v9.35a2.77,2.77,0,0,1-2.93,2.93h-.29a2.77,2.77,0,0,1-2.93-2.93v-25.7c0-1.76,1.46-2.93,3.21-3.21h14.9a9.25,9.25,0,0,1,9.93,8.76v.88A8.46,8.46,0,0,1,379.21,209Zm-3.8-12.86h-12v7.3h12a3.64,3.64,0,0,0,4.1-3.2v-.59a3.63,3.63,0,0,0-3.51-3.8A.91.91,0,0,1,375.41,196.1Z"/><path class="cls-4" d="M434.14,221.52h0c-2,0-3.21-1.17-3.21-2.92v-9.36H416.32v9.36a2.76,2.76,0,0,1-2.93,2.92h-.29a2.76,2.76,0,0,1-2.93-2.92V201.66c0-5.84,1.76-12.56,13.44-12.56S437,195.82,437,201.66V218.6C436.47,220.06,435.59,221.52,434.14,221.52Zm-3.22-19.58c0-3.8-1.76-6.43-7.3-6.43s-7.3,2.63-7.3,6.43v1.46h14.6Z"/><path class="cls-4" d="M490.8,194.35l-11.1,25.41a2.94,2.94,0,0,1-2.92,1.76h-2.34a3.22,3.22,0,0,1-2.92-1.76l-10.81-25.12a1.76,1.76,0,0,1-.29-1.17,3,3,0,1,1,5.84-1.16l9.35,21.62c3.21-7,6.43-14.32,9.35-21.62a3.23,3.23,0,0,1,2.93-1.76,3.18,3.18,0,0,1,3.21,2.92A1.42,1.42,0,0,1,490.8,194.35Z"/><path class="cls-4" d="M538.42,221.23H525.28a8.88,8.88,0,0,1-9.36-8.47v-.88a9.35,9.35,0,0,1,2.93-6.42,9.4,9.4,0,0,1-2.93-6.43,9.1,9.1,0,0,1,8.77-9.35h14a3.07,3.07,0,0,1,0,6.13H525.56a3.23,3.23,0,0,0-3.21,3.21h0a3.25,3.25,0,0,0,3.21,3.21h10.81a3,3,0,0,1,3.2,2.92v.3a2.76,2.76,0,0,1-2.92,2.92h-11.1a3.21,3.21,0,1,0,0,6.42h13.14a3,3,0,0,1,2.93,3.21C541.34,219.76,540.17,221.23,538.42,221.23Z"/><path class="cls-4" d="M588.66,221.23H571.14a3.15,3.15,0,0,1-2.93-2.93V192.6a2.76,2.76,0,0,1,2.93-2.92h.29a2.76,2.76,0,0,1,2.93,2.92v22.49H589a3.18,3.18,0,0,1,3.21,2.93,3.33,3.33,0,0,1-3.51,3.21Z"/></g></g></svg>