<svg id="Layer_1" data-name="Layer 1" xmlns="http://www.w3.org/2000/svg" viewBox="0 0 98.92 94.08"><defs><style>.cls-1{fill:#ffc516}</style></defs><title>Artboard 1y6</title><path class="cls-1" d="M49.46 15.82l9 18.25 1.63 3.3 3.64.53 20.14 2.93L69.3 55l-2.63 2.6.62 3.63 3.44 20.06-18-9.47-3.27-1.72-3.26 1.71-18 9.47 3.44-20.06.62-3.63L29.62 55 15 40.82l20.18-2.92 3.64-.53 1.63-3.3 9-18.25M49.46 0L34.18 31 0 35.93 24.73 60l-5.84 34 30.57-16L80 94.08 74.19 60l24.73-24.07L64.74 31 49.46 0z"/></svg>