<svg xmlns="http://www.w3.org/2000/svg" width="32" height="32" viewBox="0 0 32 32"><path d="M28.889 0H3.111A3.111 3.111 0 0 0 0 3.111v25.778A3.111 3.111 0 0 0 3.111 32h25.778A3.111 3.111 0 0 0 32 28.889V3.111A3.111 3.111 0 0 0 28.889 0zm-3.843 19.214v2.372c-.046.47-.411.839-.877.898l-13.398.001c-.992 0-1.838-.32-2.536-.958s-1.048-1.412-1.048-2.321c0-.723.236-1.365.709-1.931a3.724 3.724 0 0 1 1.796-1.181l11.707-3.345H7.188v-2.265c.007-.475.343-.869.791-.967h13.483c.992 0 1.837.317 2.536.95.699.634 1.049 1.391 1.049 2.272 0 .736-.239 1.383-.714 1.943s-1.089.951-1.838 1.171l-11.723 3.361h14.275z"/></svg>