<svg xmlns="http://www.w3.org/2000/svg" width="51" height="32" viewBox="0 0 51 32"><path d="M13.477 1.912C15.009.885 16.815.19 18.678.199c1.741-.008 3.528.492 4.881 1.618.694.561 1.254 1.266 1.73 2.016.856-1.384 2.107-2.56 3.649-3.127C30.817 0 32.941.049 34.817.741c1.639.598 3.071 1.641 4.371 2.787 1.017.897 1.957 1.879 3.004 2.743.552.447 1.144.867 1.823 1.099.902.308 1.968.017 2.613-.677.597-.65.56-1.774-.098-2.368-.418-.361-1.134-.288-1.43.193-.259.381-.114.857.089 1.227-.539-.393-1.078-.942-1.076-1.657-.112-.827.502-1.556 1.237-1.846 1.434-.573 3.232-.079 4.137 1.183.87 1.178.939 2.727.788 4.13a4.944 4.944 0 0 1-2.034 3.349c-1.552 1.108-3.519 1.451-5.39 1.427-1.799-.049-3.58-.455-5.246-1.127-2.787-1.121-5.396-2.669-8.274-3.564a9.92 9.92 0 0 0-2.991-.633c.002 6.004-.011 12.009-.001 18.014-.007 2 .019 4.003-.012 6.003a18.216 18.216 0 0 1-.035-.698c.017-7.779.007-15.556.004-23.335-.77.012-1.54-.026-2.307.026-.936.09-1.867.282-2.744.625-2.927.91-5.575 2.498-8.415 3.621-2.398.933-5.055 1.367-7.601.848-1.424-.288-2.842-.918-3.803-2.04C.604 9.117.209 7.841.248 6.59c-.045-1.18.213-2.434.994-3.353.726-.871 1.895-1.313 3.018-1.216.723.033 1.455.349 1.902.931.351.46.373 1.091.219 1.63-.187.484-.574.863-.995 1.153.215-.362.345-.84.091-1.218-.312-.504-1.08-.555-1.487-.141-.501.515-.606 1.356-.27 1.987.364.661 1.117 1.038 1.847 1.115 1.103.095 2.06-.589 2.87-1.252 1.675-1.442 3.184-3.092 5.042-4.313z"/><path d="M23.987 7.015c.767-.052 1.538-.014 2.307-.026.003 7.779.013 15.557-.004 23.335.005.232.019.465.035.698.005.142-.104.249-.183.353l-.016.021c-.361.592-1.26.604-1.743.163-.327-.314-.405-.8-.399-1.233.004-5.31.063-10.621.018-15.931-.014-2.46-.018-4.92-.015-7.379zm2.138 24.381l.016-.021-.016.021z"/></svg>