<svg xmlns="http://www.w3.org/2000/svg" width="32" height="32" viewBox="0 0 32 32"><path fill="#fff" d="M32 16c0 8.837-7.163 16-16 16S0 24.837 0 16 7.163 0 16 0s16 7.163 16 16z"/><path fill="#1ebbee" d="M19.84 19.126c-.689 1.206-2.018 2.018-3.594 2.018-2.24 0-4.062-1.698-4.062-3.766h12.702a8.88 8.88 0 0 0 .074-1.157c0-4.898-3.988-8.886-8.886-8.886-4.209 0-7.729 2.929-8.665 6.868 1.305-1.551 3.175-3.126 4.628-3.84-1.132.935-3.422 3.594-4.849 6.006.074 4.849 4.012 8.763 8.886 8.763a8.877 8.877 0 0 0 8.394-5.957l-4.628-.049zm-3.668-7.877c2.191 0 3.988 1.625 3.988 3.618h-7.975c0-1.994 1.797-3.618 3.988-3.618z"/><path fill="#1ebbee" d="M23.754 6.72c-2.782-2.166-9.452 1.378-11.692 3.594-3.446 3.052-8.738 10.585-6.326 14.228.985 1.305 3.569 1.305 6.572-.517 0 0 .714-.418 1.797-1.231l-.246-.148c-3.028 2.018-5.711 2.732-6.818 1.625-1.649-1.649.714-6.695 5.292-11.274s9.625-6.942 11.274-5.292c1.329 1.329.074 4.825-2.831 8.517h.271a24.524 24.524 0 0 0 2.757-4.283c.394-.665 1.772-3.938-.049-5.218z"/></svg>