<svg xmlns="http://www.w3.org/2000/svg" width="31" height="32" viewBox="0 0 31 32"><path d="M23.423 17.392c.142.142.155.375-.013.492-.414.272-.945.233-1.438.181-.829-.091-1.813-.129-2.24-.907-.013 0-.013-.013-.026-.026-.544-.298.375-.505.635-.544.583-.078 1.204.078 1.774.207.479.09.932.22 1.308.596zm7.563 12.355c-.388.272-.22.738-.492 1.062-.272.311-.932.311-1.282.311-1.489.013-2.94-.103-4.403.013a5.753 5.753 0 0 0-1.062.168c-.104.026-.272.091-.389.026-.298-.155-.57-.647-.958-.492-.324.142-.57.609-.958.324-.712-.531-1.308-.052-2.059.091-.777.156-1.515-.272-2.279-.065-.57.168-1.114.337-1.697.142-.583-.207-.738-.66-.233-1.088.803-.66 1.8-.764 2.797-.686 1.515.13 3.017.013 4.532-.065.052 0 .078.026.078.065.647.259 1.062-.259 1.437-.712.052-.065.143-.026.169.013.544.803 1.204-.103 1.891-.026.181.013.35.065.466.233a.453.453 0 0 1 .065.259c.026.414.557.324.544-.091 0-.065.078-.13.142-.104.544.22 1.243.505 1.683-.065.376-.479.427-1.166.466-1.748.078-1.567-.026-3.173-.142-4.727-.091-1.515-.259-3.056-.078-4.571.181-1.502.168-2.966.143-4.481-.013-.79-.052-1.58 0-2.37.026-.725.155-1.502.078-2.227-.078-.647-.466-1.204-.544-1.839-.078-.583 0-1.191.142-1.761.078-.35.259-.777.246-1.14-.013-.311-.026-.635-.013-.945 0-.155-.026-.401.091-.531.181-.22.272-.544-.155-.583-1.023-.129-2.072-.777-3.043-.143.013.22.026.466-.026.686l.143.181c.246.104.492.142.764.155.311 0 .647-.078.958-.052.259.026.479.259.389.557-.065.22-.259.401-.375.583-.207.324-.168.79-.168 1.166-.013.945 0 1.891.026 2.81.026.777.103 1.567.155 2.344.013.013.065.026.065.065.026.88.324 1.748.337 2.629.013.013-.233 1.088-.233 1.088-.013 1.14-.103 3.25-.103 3.25-.013 1.942-.35 3.872-.013 5.802.142.777-.155 1.528-.181 2.305-.026.855.078 1.697-.052 2.551.013.052 0 .103-.065.13-1.774.337-3.574.401-5.387.298-.453-.026-.984-.065-1.425.104-.168.078-.401.181-.609.168-.259-.026-.389-.233-.635-.272-.311-.065-.609-.13-.907-.155-.803-.104-1.567-.155-2.318.168-.414.181-.855.104-1.269-.065-.492-.207-.868-.453-1.412-.181-.22.103-.414.22-.661.272-.207.052-.388 0-.57-.078-.414-.155-.738-.207-1.178-.129.052.065.013.181-.078.181-2.629-.143-5.271.168-7.9.207-.13.026-.22.169-.298.169h-.078c-.065 0-.078-.22-.065-.259-.35-.389-.259-1.671-.246-2.046.104-2.448-.207-4.908-.272-7.343-.026-1.217-.026-2.448.168-3.652.233-1.36.233-2.681.207-4.04-.065-2.707.207-5.4.129-8.107 0-.052.052-.065.078-.052l.026-.013c.725-.065 1.515-.259 2.227-.065.013 0 .026.013.026.026l.104.013h.803c.026 0 .065.013.065.026 1.425.013 2.849-.104 4.273-.168.492-.013 1.01 0 1.502-.155.246-.078.544-.207.803-.181.648.052 1.308.246 1.942.388.453.091.764-.686 1.166-.414.609.389 1.308.246 2.007.259.375.013.725-.065 1.101-.065.207 0 .376.052.557.091.181-.026.337-.013.544.065l3.315-.104c.66.013 1.386.065 2.02-.181a.537.537 0 0 0 .311-.259 2.26 2.26 0 0 1-.078-.168c-.052-.091-.103-.207-.168-.272-.712-.233-1.528-.168-2.279-.207-1.023-.052-2.02.091-3.043.168-.946.078-1.93.143-2.875.065-.557-.052-1.606-.298-2.085.091a.14.14 0 0 1-.143 0c-.907-.738-2.098.376-3.134.065-.622-.181-1.204-.311-1.865-.233-.635.065-1.256.155-1.904.155-1.412-.013-2.81.078-4.222.026-.311-.013-.609-.013-.893-.052-.246-.026-.57-.155-.816-.052-.388.143-.466.272-.427.388.104.078-.259.57-.259.816l-.026.647c-.013.958-.078 1.839-.298 2.771-.104.492-.35 1.191-.168 1.683.104.324.35.544.492.829.246.531.259 1.178.233 1.748l-.155 5.568c-.065 1.852-.181 3.717-.104 5.581.065 1.723.337 3.483.104 5.193-.078.57-.764 1.58-.104 1.981.376.22.816.272 1.243.311 1.049.065 2.098-.052 3.16-.168.388-.052.777-.129 1.166-.129.298-.013.57.026.855.129.246.091.622.259.906.259.013.013.466-.013.492-.142.389-.169.725-.298 1.217-.207.479.091.907.155 1.412.065.259-.052.647-.078.907-.013l.104.078c.104-.052-.065.129-.168.168-.583.233-.401.984-.466 1.489 0 .052-.065.065-.091.065-.233 0-.557 0-.686-.246-.272-.505-.932-.855-.932.207 0 .065-.052.091-.091.091-.052 0-.091-.026-.091-.091s-.686-.427-.764-.466c-.337-.181-.725-.401-1.127-.259-.246.078-.453.22-.686.324-.414.505-.855 1.049-1.463.725-.13-.065-.635-.505-.738-.414-.142.155-.298.311-.492.389-.557.22-1.14.181-1.735.168-.026 0-.091-.026-.091-.078-.026-.233-.155-.699-.479-.415-.078.065-.142.13-.22.207-.091.078-.207.181-.324.233-.388.156-1.58-.052-1.735-.324-.129-.207-.168-.415-.22-.648-.091-.57-.026-1.191-.052-1.774a98.152 98.152 0 0 0-.272-4.364c-.065-.738-.129-1.502-.065-2.253.026-.479.052-1.14.298-1.58.207-.35.065-.635-.207-.893a.542.542 0 0 1-.091-.311c-.052-.544.052-1.114.078-1.658.026-.401.091-.803.091-1.204 0-.311-.065-.609-.091-.907-.013-.155-.026-.311.065-.453.181-.259.155-.401.052-.699-.207-.57 0-1.256.026-1.852.052-.699.078-1.386 0-2.098C.256 9.971.101 9.22.153 8.43c.052-.712.091-1.36.129-2.059A46.82 46.82 0 0 0 .308 2.55v.298S.204 1.229.878.841C1.914.271 3.17.362 4.297.31 5.76.245 7.237.388 8.7.388c.855 0 1.697-.013 2.525-.207a6.688 6.688 0 0 1 1.761-.155c.725.052 1.425.233 2.137.298s1.411.026 2.124-.013c1.541-.104 3.095-.065 4.636 0l2.409.104c.376.013.803.104 1.166.013l.686-.233c.505-.143.855-.013 1.347.104l1.813.427c.207-.052.401-.065.557.091.337.311.013.699.259 1.049.298.414.57.686.635 1.217.065.57.091 1.191-.091 1.748-.13.376-.298.777-.143 1.178.091.246.259.479.324.738.13.557.13 1.114.091 1.683a24.368 24.368 0 0 1-.142 1.942c-.052.414-.22.816-.233 1.217-.013.337.091.622.155.945.22 1.062-.712 1.735-.881 2.707-.09.531.505.298.777.609.168.207.078.544.065.764-.065.57.104 1.127.078 1.697-.026.712-.246 1.295-.078 2.007.091.401.168.803.078 1.204s-.557 1.412.065 1.593c.026 0 .052.026.052.065 0 .181-.026.311-.103.479-.272.622.155.492.233.893.078.376-.142.505-.207.855-.091.557.207.984.181 1.528-.013.505-.298.79-.207 1.256.026 0 .065.026.065.065.052.246.078.531-.013.777-.129.35-.272.453.13.66.103-.077.103.013.038.052zm-6.773-17.185c-.246-1.515-.388-3.095-.893-4.545-.22-.609-.324-1.269-1.036-1.386-.932-.155-.622.622-.492 1.36.181 1.14.259 2.305.557 3.432.207.777.583 1.697-.453 1.101-1.735-1.049-2.331-3.341-3.03-5.051-.311-.777-1.217-2.629-1.839-3.095-.298-.22-1.761-.544-2.046-.35-.609.414 1.269 3.328 1.528 3.846.57 1.166 1.178 2.318 1.917 3.367.531.738 1.36 1.425.181 1.865-1.217.466-1.813-.22-2.642-.855-.66-.492-1.502-.57-2.331-.66-2.279-.272-4.442-.013-6.268 1.502-.88.738-1.437 1.748-1.904 2.784-.13.259-.88 2.551-.777 2.564-.466-.078-.181-1.166-.777-.531-.531.557.155 2.163.388 2.719.531 1.243 1.088 2.461 1.502 3.756s.505 1.269 1.697 1.373c1.515.143 3.004-.324 4.494-.505 0 0-2.642-1.644 2.577.156 1.166.401 2.396.298 3.613.337.868-.207.894-1.697 1.347-2.396.168-.259 1.01-1.58 1.269-1.684.376-.142.907.246 1.282.298 2.176.337 2.849-1.45 2.499-3.199-.298-1.528-.129-3.237.091-4.416.09-.44-.376-1.386-.454-1.787zm-9.725 18.596c-.233-.22-.583-.272-.816-.505-.13-.143-.168-.272-.143-.427 0 0-.013 0-.013-.013-.168-.311.22-.57.492-.466.142.065.35.155.376.324.013.22-.13.375-.168.57.155.091.311.311.388.414.052.091-.052.168-.116.104z"/></svg>