<svg xmlns="http://www.w3.org/2000/svg" width="33" height="32" viewBox="0 0 33 32"><path d="M20.25 31.944h-.001c-2.446 0-4.234-1.43-4.347-3.476-.071-1.298.571-2.679 1.191-4.015.716-1.541 1.457-3.134.938-4.269-.393-.859-1.538-1.563-3.403-2.093-5.631-1.597-7.88-5.843-7.61-9.341.323-4.198 3.941-7.332 9.218-7.984 5.739-.709 10.936 2.042 13.919 7.321 2.953 5.222 3.033 11.635.203 16.339-2.832 4.709-6.611 7.52-10.108 7.52zm-2.214-29.52c-.519 0-1.051.033-1.582.099-5.346.661-7.467 3.72-7.67 6.362-.214 2.78 1.66 6.177 6.328 7.502 2.421.687 3.902 1.688 4.53 3.059.86 1.878-.097 3.937-.942 5.754-.528 1.138-1.076 2.315-1.028 3.171.06 1.078 1.095 1.803 2.578 1.803h.001c1.075 0 4.873-.481 8.591-6.661 2.506-4.167 2.417-9.88-.227-14.555-2.347-4.152-6.203-6.533-10.578-6.533z"/><path d="M9.6 30.787a5.63 5.63 0 1 1 .009-11.262A5.63 5.63 0 0 1 9.6 30.788zm.007-9.489a3.89 3.89 0 0 0-.981.127c-.997.261-1.833.894-2.353 1.784s-.664 1.928-.402 2.925a3.857 3.857 0 1 0 7.463-1.954 3.857 3.857 0 0 0-3.728-2.882zm-5.429-2.181A3.973 3.973 0 0 1 .212 15.51a3.993 3.993 0 0 1 3.586-4.354 3.976 3.976 0 0 1 4.355 3.586 3.997 3.997 0 0 1-3.975 4.376zm.008-6.209a2.22 2.22 0 0 0-2.211 2.432 2.21 2.21 0 0 0 2.421 1.996 2.223 2.223 0 0 0 1.994-2.422 2.208 2.208 0 0 0-2.204-2.004zm19.131 14.766a.886.886 0 0 1-.544-1.585c.083-.065 5.781-4.628 4.974-12.083a.885.885 0 0 1 1.761-.19c.917 8.478-5.379 13.464-5.648 13.673a.88.88 0 0 1-.542.185z"/><path d="M9.959 28.088a.886.886 0 0 1-.158-1.757c.344-.069 1.438-.417 1.198-2.041a.886.886 0 0 1 1.751-.26c.426 2.869-1.761 3.893-2.639 4.044a.877.877 0 0 1-.152.014z"/></svg>