<svg xmlns="http://www.w3.org/2000/svg" width="32" height="32" viewBox="0 0 32 32"><path fill="#fff" d="M32 16c0 8.837-7.163 16-16 16S0 24.837 0 16 7.163 0 16 0s16 7.163 16 16z"/><path fill="#e5295b" d="M7.089 16c0-3.052.812-5.489 2.412-7.36 1.6-1.846 3.742-2.782 6.4-2.782 1.083 0 2.092.172 3.028.542s1.772.886 2.486 1.575c1.034.985 1.822 2.191 2.388 3.569.542 1.403.837 2.905.837 4.554 0 3.077-.837 5.588-2.486 7.557-1.674 1.969-3.815 2.954-6.425 2.954-2.585 0-4.677-.96-6.252-2.905s-2.388-4.529-2.388-7.705z"/><path fill="#fff" d="M15.877 8.074c-1.255 0-2.24.738-2.954 2.24-.738 1.502-1.108 3.545-1.108 6.105 0 2.412.369 4.357 1.132 5.858s1.748 2.24 2.929 2.24 2.142-.763 2.88-2.289c.738-1.526 1.083-3.569 1.083-6.129 0-2.437-.369-4.382-1.108-5.858-.689-1.428-1.674-2.166-2.855-2.166z"/></svg>