<svg xmlns="http://www.w3.org/2000/svg" width="32" height="32" viewBox="0 0 32 32"><path d="M24.569 26.706h-3.488a.23.23 0 0 1-.229-.229v-.849a.23.23 0 0 0-.229-.229h-4.881a.23.23 0 0 0-.229.229v.849a.23.23 0 0 1-.229.229h-2.622a.23.23 0 0 0-.229.229v.982a.23.23 0 0 0 .229.229h11.906a.23.23 0 0 0 .229-.229v-.982a.23.23 0 0 0-.229-.229zm5.86-22.964H5.539c-.866 0-1.571.705-1.571 1.571V9.41c0 .542-.04.618.323.618h.623c.305 0 .242-.077.242-.628V5.313c0-.207.175-.382.382-.382h24.89c.207 0 .382.175.382.382v15.334H13.065s-.625-.001-.625.808v1.918c0 .808.646.808.646.808h17.343c.866 0 1.571-.704 1.571-1.57V5.314c0-.866-.705-1.571-1.571-1.571zM17.984 22.824a.708.708 0 1 1 0-1.416.708.708 0 0 1 0 1.416z"/><path d="M10.018 11.431H1.014c-.559 0-1.014.455-1.014 1.014v14.8c0 .559.455 1.014 1.014 1.014h9.004c.559 0 1.014-.455 1.014-1.014v-14.8c0-.559-.455-1.014-1.014-1.014zm-5.613 1.034h2.221a.192.192 0 0 1 0 .384H4.405a.192.192 0 0 1 0-.384zm1.097 15.081a.525.525 0 1 1 0-1.05.525.525 0 0 1 0 1.05zm4.658-1.542a.244.244 0 0 1-.241.246H1.111a.244.244 0 0 1-.24-.246V13.706c0-.135.108-.246.24-.246h8.808c.132 0 .241.111.241.246v12.298z"/></svg>