<svg xmlns="http://www.w3.org/2000/svg" width="32" height="32" viewBox="0 0 32 32"><path fill="#e8e8e8" d="M32 16c0 8.837-7.163 16-16 16S0 24.837 0 16 7.163 0 16 0s16 7.163 16 16z"/><path fill="#00ccf4" d="M16 29.538c-7.458 0-13.538-6.08-13.538-13.538S8.542 2.462 16 2.462 29.538 8.542 29.538 16 23.458 29.538 16 29.538z"/><path fill="#fff" d="M16 22.154c-3.397 0-6.154-2.757-6.154-6.154S12.603 9.846 16 9.846s6.154 2.757 6.154 6.154-2.757 6.154-6.154 6.154z"/><path fill="#fff" d="M17.945 17.945L25.847 16l-7.902-1.945L16 6.153l-1.945 7.902L6.153 16l7.902 1.945L16 25.847l1.945-7.902z"/><path fill="#00ccf4" d="M16 20.677c-2.585 0-4.677-2.092-4.677-4.677s2.092-4.677 4.677-4.677 4.677 2.092 4.677 4.677-2.092 4.677-4.677 4.677z"/><path fill="#ff3e5b" d="M15.163 15.138l9.551-7.852-7.877 9.551z"/><path fill="#fff" d="M16.886 16.862l-9.551 7.852 7.852-9.551z"/></svg>